<svg width="201" height="84" viewBox="0 0 201 84" fill="none" xmlns="http://www.w3.org/2000/svg">
<g clip-path="url(#clip0_122_324)">
<path d="M4.42769 72.45L0.0797214 81.8154C-0.148597 82.3031 0.208771 82.8704 0.744822 82.8704H11.1383C11.4261 82.8803 11.6842 82.7211 11.8133 82.4524L16.1613 73.0671C16.3896 72.5794 16.0322 72.0121 15.4862 72.0121H5.10272C4.81484 72.0121 4.55674 72.1813 4.42769 72.44V72.45Z" fill="#5F717A"/>
<path d="M42.1101 33.6448C43.6786 33.7045 60.2862 33.6448 64.8327 33.6448C65.3688 33.6448 65.7361 34.1922 65.5078 34.6898C62.8871 40.4225 50.0615 67.8817 48.3144 71.604C48.1953 71.8628 47.9372 72.022 47.6493 72.022H37.3055C36.7595 72.022 36.4022 71.4547 36.6305 70.9671L50.4189 41.3182C50.6472 40.8306 50.2899 40.2633 49.7439 40.2633H39.3207C39.0328 40.2633 38.7747 40.4324 38.6456 40.6912L19.5563 81.8353C19.3279 82.323 19.6853 82.8903 20.2313 82.8903H54.5783C54.8661 82.8903 55.1242 82.7211 55.2533 82.4623L82.5323 23.8116C82.7607 23.3239 82.4033 22.7566 81.8573 22.7566H47.5103C47.2225 22.7566 46.9644 22.9258 46.8353 23.1846L42.0208 33.5353C42.0009 33.5851 42.0307 33.6448 42.0903 33.6547L42.1101 33.6448Z" fill="#0E0000"/>
<path d="M49.4957 -1.0102C50.0318 -1.0102 50.3991 -0.442904 50.1707 0.0447741L20.003 64.9557C19.8838 65.2144 19.6158 65.3836 19.3279 65.3836H8.93449C8.39844 65.3836 8.03115 64.8163 8.25947 64.3287L38.4173 -0.58224C38.5364 -0.841008 38.8045 -1.0102 39.0923 -1.0102H49.4957Z" fill="url(#paint0_linear_122_324)"/>
<path d="M11.3765 40.2533H0.804385C0.258407 40.2533 -0.0989604 39.686 0.129358 39.1983L18.6331 -0.58224C18.7522 -0.841008 19.0202 -1.0102 19.3081 -1.0102H29.8901C30.4361 -1.0102 30.7935 -0.442904 30.5652 0.0447739L12.0515 39.8253C11.9324 40.0841 11.6644 40.2533 11.3765 40.2533Z" fill="#0E0000"/>
<path d="M84.1802 48.9718L95.2884 24.2893C95.338 24.1798 95.4472 24.1102 95.5663 24.1102H102.694C102.882 24.1102 103.002 24.2993 102.922 24.4784L102.128 26.25C102.078 26.3595 101.969 26.4291 101.85 26.4291H96.9859C96.8667 26.4291 96.7576 26.4988 96.7079 26.6083L92.9655 34.9287C92.8861 35.1078 93.0052 35.2969 93.1938 35.2969H96.8469C97.0355 35.2969 97.1546 35.486 97.0752 35.6652L96.2811 37.4367C96.2314 37.5462 96.1222 37.6159 96.0031 37.6159H91.943C91.8239 37.6159 91.7147 37.6855 91.6651 37.795L87.5256 46.9912C87.4461 47.1704 87.5653 47.3595 87.7539 47.3595H92.221C92.4096 47.3595 92.5287 47.5486 92.4493 47.7277L91.6551 49.4993C91.6055 49.6088 91.4963 49.6784 91.3772 49.6784H84.6468C84.2596 49.6784 84.0313 49.3002 84.1901 48.932L84.1802 48.9718Z" fill="#0E0000"/>
<path d="M91.0496 48.8822H85.4906C85.3019 48.8822 85.1828 48.6931 85.2622 48.514L95.7946 25.1253C95.8443 25.0159 95.9535 24.9462 96.0726 24.9462H101.83L101.532 25.613H96.4796C96.3605 25.613 96.2513 25.6827 96.2017 25.7922L91.7048 35.7746C91.6254 35.9538 91.7445 36.1429 91.9331 36.1429H95.9833L95.6855 36.8097H91.4367C91.3176 36.8097 91.2084 36.8794 91.1588 36.9889L86.2648 47.8471C86.1854 48.0263 86.3046 48.2154 86.4932 48.2154H91.3474L91.0496 48.8822Z" fill="#0E0000"/>
<path d="M97.79 49.3102L109.057 24.2993C109.107 24.1898 109.216 24.1201 109.335 24.1201H113.464C114.666 24.1201 116.125 24.2495 116.76 25.2945C117.425 26.3893 116.879 27.9519 116.254 29.3452L109.107 45.2097C107.697 48.3448 105.692 49.6884 102.416 49.6884H98.0183C97.8297 49.6884 97.7105 49.4993 97.79 49.3201V49.3102ZM102.823 47.3595C104.957 47.3595 106.029 46.6528 106.923 44.6723L114.159 28.5888C114.755 27.2652 114.666 26.877 114.606 26.7675C114.556 26.6879 114.298 26.4391 113.018 26.4391H110.745C110.625 26.4391 110.516 26.5088 110.467 26.6182L101.135 47.3495H102.823V47.3595Z" fill="#0E0000"/>
<path d="M108.352 44.9211C107.101 47.6979 105.424 48.8524 102.485 48.8524H99.269C99.0804 48.8524 98.9613 48.6633 99.0407 48.4841L109.553 25.1253C109.603 25.0159 109.712 24.9462 109.831 24.9462H113.385C116.323 24.9462 116.899 25.9315 115.49 29.0566L108.342 44.9211H108.352ZM114.914 28.8775C115.986 26.4889 115.619 25.613 113.097 25.613H110.248C110.129 25.613 110.02 25.6827 109.97 25.7922L100.053 47.8073C99.9739 47.9865 100.093 48.1756 100.282 48.1756H102.753C105.275 48.1756 106.665 47.1903 107.677 44.9509L114.914 28.8675V28.8775Z" fill="#0E0000"/>
<path d="M129.814 49.34L141.091 24.2893C141.141 24.1798 141.25 24.1102 141.369 24.1102H148.496C148.685 24.1102 148.804 24.2993 148.725 24.4784L147.931 26.25C147.881 26.3595 147.772 26.4291 147.653 26.4291H142.788C142.669 26.4291 142.56 26.4988 142.511 26.6083L138.768 34.9287C138.689 35.1078 138.808 35.2969 138.996 35.2969H142.659C142.848 35.2969 142.967 35.486 142.888 35.6652L142.094 37.4367C142.044 37.5462 141.935 37.6159 141.816 37.6159H137.756C137.636 37.6159 137.527 37.6855 137.478 37.795L133.338 46.9912C133.259 47.1704 133.378 47.3595 133.566 47.3595H138.024C138.212 47.3595 138.331 47.5486 138.252 47.7277L137.458 49.4993C137.408 49.6088 137.299 49.6784 137.18 49.6784H130.052C129.864 49.6784 129.745 49.4893 129.824 49.3102L129.814 49.34Z" fill="#0E0000"/>
<path d="M147.325 25.613L147.623 24.9462H141.865C141.746 24.9462 141.637 25.0159 141.587 25.1253L131.055 48.514C130.975 48.6931 131.095 48.8822 131.283 48.8822H136.842L137.14 48.2154H132.286C132.097 48.2154 131.978 48.0263 132.058 47.8471L136.951 36.9889C137.001 36.8794 137.11 36.8097 137.229 36.8097H141.478L141.776 36.1429H137.726C137.537 36.1429 137.418 35.9538 137.497 35.7746L141.994 25.7922C142.044 25.6827 142.153 25.613 142.272 25.613H147.325Z" fill="#0E0000"/>
<path d="M125.665 41.6865C125.744 41.5173 125.804 41.378 125.853 41.2685L125.665 41.6865Z" fill="#0E0000"/>
<path d="M125.853 41.2685L125.943 41.0794C125.943 41.0794 125.893 41.1889 125.853 41.2685Z" fill="#0E0000"/>
<path d="M132.643 24.7671C131.998 23.7121 130.568 23.5827 129.556 23.5827C127.968 23.5827 125.019 24.2197 123.113 28.4495L115.718 44.8813C114.914 46.6628 114.805 48.0462 115.37 48.9817C115.867 49.7979 116.81 50.2059 118.17 50.2059C119.232 50.2059 122.865 49.8476 124.93 45.2694L127.997 38.4519C128.077 38.2727 127.958 38.0836 127.769 38.0836H125.694H123.471C123.352 38.0836 123.242 38.1533 123.193 38.2628L122.567 39.6661C122.409 40.0244 122.637 40.4125 123.024 40.4125H123.868C124.255 40.4125 124.483 40.7907 124.324 41.159L122.696 44.7718C122.041 46.2249 120.612 47.9069 118.706 47.9069C118.061 47.9069 117.624 47.7775 117.485 47.5486C117.396 47.3993 117.257 46.9216 117.842 45.6178L125.397 28.8377C126.379 26.6481 127.948 25.8718 129.089 25.8718C130.161 25.8718 130.41 26.0808 130.459 26.1704C130.588 26.3893 130.568 27.0462 129.695 28.977C129.407 29.6239 128.97 30.3803 128.663 30.8879L128.027 31.9628L130.459 32.2016L130.767 31.7239C131.035 31.3059 131.68 30.1016 131.948 29.5045C132.742 27.7528 133.368 25.9614 132.633 24.7671H132.643Z" fill="#0E0000"/>
<path d="M125.943 41.0694C125.962 41.0197 125.982 40.9798 125.982 40.9798L125.943 41.0694Z" fill="#0E0000"/>
<path d="M71.8212 82.1538L83.0882 57.1429C83.1379 57.0334 83.2471 56.9637 83.3662 56.9637H87.4958C88.6969 56.9637 90.1562 57.0931 90.7915 58.1381C91.4566 59.2329 90.9106 60.7955 90.2852 62.1889L83.1379 78.0533C81.7283 81.1884 79.723 82.532 76.4472 82.532H72.0496C71.8609 82.532 71.7418 82.3429 71.8212 82.1637V82.1538ZM77.5888 80.2031C78.8793 80.2031 80.1102 79.3969 80.6562 78.1727L88.1907 61.4424C88.7863 60.1187 88.6969 59.7306 88.6374 59.6211C88.5877 59.5415 88.3296 59.2926 87.0491 59.2926H84.7758C84.6567 59.2926 84.5475 59.3623 84.4979 59.4718L75.3254 79.8348C75.246 80.014 75.3651 80.2031 75.5537 80.2031H77.5788H77.5888Z" fill="#0E0000"/>
<path d="M82.3735 77.7647C81.1227 80.5415 79.4451 81.696 76.5067 81.696H73.2904C73.1018 81.696 72.9827 81.5069 73.0621 81.3277L83.5747 57.9689C83.6243 57.8595 83.7335 57.7898 83.8526 57.7898H87.4064C90.3448 57.7898 90.9206 58.7751 89.5109 61.9002L82.3636 77.7647H82.3735ZM88.9352 61.7211C90.0073 59.3325 89.64 58.4566 87.1186 58.4566H84.2695C84.1504 58.4566 84.0412 58.5263 83.9916 58.6358L74.0746 80.6509C73.9952 80.8301 74.1143 81.0192 74.303 81.0192H76.8145C79.3359 81.0192 80.6859 80.0339 81.6985 77.7945L88.9352 61.7111V61.7211Z" fill="#0E0000"/>
<path d="M97.5021 82.1936L108.779 57.1429C108.829 57.0334 108.938 56.9637 109.057 56.9637H116.184C116.373 56.9637 116.492 57.1528 116.413 57.332L115.619 59.1035C115.569 59.213 115.46 59.2827 115.341 59.2827H110.476C110.357 59.2827 110.248 59.3524 110.199 59.4618L106.198 68.3396C106.119 68.5187 106.238 68.7078 106.426 68.7078H110.089C110.278 68.7078 110.397 68.8969 110.318 69.0761L109.524 70.8476C109.474 70.9571 109.365 71.0268 109.246 71.0268H105.185C105.066 71.0268 104.957 71.0964 104.908 71.2059L99.8845 82.3528C99.8349 82.4623 99.7257 82.532 99.6066 82.532H97.7304C97.5418 82.532 97.4227 82.3429 97.5021 82.1637V82.1936Z" fill="#0E0000"/>
<path d="M115.023 58.4566H109.97C109.851 58.4566 109.742 58.5263 109.692 58.6358L104.947 69.1756C104.868 69.3547 104.987 69.5438 105.176 69.5438H109.226L108.928 70.2107H104.679C104.56 70.2107 104.451 70.2803 104.401 70.3898L99.2988 81.7258H98.594L109.295 57.9689C109.345 57.8595 109.454 57.7898 109.573 57.7898H115.331L115.033 58.4566H115.023Z" fill="#0E0000"/>
<path d="M111.191 82.1936L122.468 57.1429C122.518 57.0334 122.627 56.9637 122.746 56.9637H129.874C130.062 56.9637 130.181 57.1528 130.102 57.332L129.308 59.1035C129.258 59.213 129.149 59.2827 129.03 59.2827H124.166C124.047 59.2827 123.937 59.3524 123.888 59.4618L119.887 68.3396C119.808 68.5187 119.927 68.7078 120.115 68.7078H123.779C123.967 68.7078 124.086 68.8969 124.007 69.0761L123.213 70.8476C123.163 70.9571 123.054 71.0268 122.935 71.0268H118.875C118.756 71.0268 118.646 71.0964 118.597 71.2059L113.574 82.3528C113.524 82.4623 113.415 82.532 113.296 82.532H111.42C111.231 82.532 111.112 82.3429 111.191 82.1637V82.1936Z" fill="#0E0000"/>
<path d="M128.712 58.4566H123.659C123.54 58.4566 123.431 58.5263 123.381 58.6358L118.636 69.1756C118.557 69.3547 118.676 69.5438 118.865 69.5438H122.915L122.617 70.2107H118.368C118.249 70.2107 118.14 70.2803 118.09 70.3898L112.988 81.7258H112.283L122.984 57.9689C123.034 57.8595 123.143 57.7898 123.262 57.7898H129.02L128.722 58.4566H128.712Z" fill="#0E0000"/>
<path d="M129.397 82.8803C127.63 82.8803 126.836 82.1737 126.469 81.5865C125.883 80.631 125.972 79.2974 126.727 77.6253L135.949 57.1429C135.998 57.0334 136.108 56.9637 136.227 56.9637H138.103C138.292 56.9637 138.411 57.1528 138.331 57.332L128.871 78.332C128.514 79.1282 128.424 79.8249 128.643 80.1732C128.851 80.5216 129.407 80.5912 129.824 80.5912C131.363 80.5912 132.891 79.4964 133.616 77.8742L142.947 57.1528C142.997 57.0434 143.106 56.9737 143.225 56.9737H145.062C145.25 56.9737 145.369 57.1628 145.29 57.3419L135.899 78.2026C134.579 81.1386 132.147 82.8903 129.397 82.8903V82.8803Z" fill="#0E0000"/>
<path d="M135.145 77.904C133.993 80.4618 131.879 82.0443 129.467 82.0443C127.054 82.0443 126.31 80.5017 127.481 77.904L136.535 57.7898H137.239L128.117 78.0434C127.322 79.795 127.511 81.4173 129.754 81.4173C131.68 81.4173 133.517 80.0438 134.37 78.1528L143.543 57.7898H144.208L135.155 77.904H135.145Z" fill="#0E0000"/>
<path d="M144.208 82.95C142.769 82.95 142.084 82.323 141.766 81.7955C141.151 80.7903 141.299 79.2576 142.203 77.2372C142.729 76.0727 143.444 74.8187 143.692 74.4007C143.751 74.3111 143.851 74.2614 143.96 74.2713L145.776 74.4704C145.975 74.4903 146.084 74.7092 145.985 74.8884C145.558 75.595 144.645 77.1277 144.387 77.705C143.503 79.6756 143.722 80.3026 143.801 80.4419C143.9 80.6111 144.168 80.6907 144.585 80.6907C146.243 80.6907 147.752 79.5163 148.645 77.5457L149.261 76.1723C150.313 73.8334 149.896 71.7533 149.191 69.0761C148.655 67.0358 148.149 65.105 149.35 62.4476L149.876 61.2931C151.345 58.0187 153.49 56.3566 156.249 56.3566C157.52 56.3566 158.394 56.7348 158.85 57.4912C159.615 58.7453 158.969 60.5566 158.314 61.9998C158.026 62.6367 157.242 64.05 156.984 64.5178C156.934 64.6173 156.825 64.6671 156.716 64.6571L154.899 64.468C154.701 64.4481 154.582 64.2291 154.691 64.0599C155.068 63.4031 155.832 62.0495 156.11 61.4325C156.865 59.7505 156.865 59.1334 156.726 58.9045C156.627 58.7353 156.279 58.6457 155.773 58.6457C154.294 58.6457 153.043 59.6907 152.15 61.6813L151.584 62.9453C150.849 64.5675 151.008 66.1102 151.534 68.2301C152.11 70.4495 152.894 73.495 151.504 76.5704L150.839 78.0434C149.42 81.1983 147.057 82.94 144.198 82.94L144.208 82.95Z" fill="#0E0000"/>
<path d="M156.488 63.7912L155.822 63.7216C156.259 62.9851 156.488 62.5671 156.865 61.7211C157.897 59.4419 158.165 57.8197 155.852 57.8197C154.413 57.8197 152.656 58.6258 151.405 61.4026L150.839 62.6666C149.966 64.5974 150.214 66.3889 150.74 68.4988C151.306 70.6784 152.02 73.5149 150.77 76.2917L150.105 77.7647C148.824 80.6111 146.739 82.114 144.297 82.114C142.441 82.114 141.468 80.85 142.977 77.5159C143.493 76.3614 143.93 75.5453 144.188 75.1272L144.823 75.1969C144.476 75.7244 144.019 76.6002 143.652 77.4064C142.213 80.6012 143.027 81.5168 144.536 81.5168C146.531 81.5168 148.377 80.1434 149.42 77.8344L150.035 76.4609C151.236 73.7936 150.7 71.405 150.015 68.8073C149.499 66.8367 149.052 65.1249 150.124 62.7362L150.651 61.5817C152.199 58.1381 154.204 57.1926 156.2 57.1926C159.138 57.1926 158.592 59.5116 157.589 61.7211C157.262 62.4576 156.984 62.9851 156.517 63.7912H156.488Z" fill="#0E0000"/>
<path d="M169.452 82.8803C167.645 82.8803 166.831 82.1538 166.454 81.5467C166.047 80.8798 165.759 79.6656 166.682 77.6254L174.108 61.1239C175.468 58.0983 177.9 56.3666 180.789 56.3666C182.486 56.3666 183.28 57.0732 183.638 57.6704C184.045 58.3372 184.342 59.5614 183.429 61.5817L175.954 78.1827C174.634 81.1187 172.202 82.8704 169.452 82.8704V82.8803ZM180.322 58.6557C179.101 58.6557 177.344 59.4021 176.391 61.5121L168.817 78.332C168.469 79.0983 168.4 79.7652 168.628 80.1334C168.856 80.5116 169.432 80.5912 169.879 80.5912C171.418 80.5912 172.946 79.4964 173.671 77.8742L181.335 60.8453C181.662 60.1187 181.722 59.4917 181.493 59.1135C181.265 58.7353 180.729 58.6557 180.312 58.6557H180.322Z" fill="#0E0000"/>
<path d="M175.2 77.904C174.048 80.4618 171.934 82.0443 169.522 82.0443C167.109 82.0443 166.266 80.5017 167.427 77.904L174.852 61.4026C176.222 58.3472 178.565 57.1926 180.709 57.1926C183.022 57.1926 183.826 58.7353 182.675 61.3031L175.2 77.904ZM182.089 61.1239C182.913 59.2927 182.387 57.8197 180.391 57.8197C178.883 57.8197 176.758 58.7353 175.636 61.2235L168.062 78.0434C167.268 79.795 167.556 81.4173 169.799 81.4173C171.725 81.4173 173.572 80.0438 174.415 78.1528L182.079 61.1239H182.089Z" fill="#0E0000"/>
<path d="M187.628 82.2234L190.328 67.0059C190.388 66.6874 189.941 66.578 189.802 66.8865L182.843 82.3429C182.794 82.4524 182.685 82.522 182.565 82.522H180.689C180.501 82.522 180.382 82.3329 180.461 82.1538L191.728 57.1429C191.778 57.0334 191.887 56.9637 192.006 56.9637H194.19C194.349 56.9637 194.468 57.1031 194.438 57.2623L192.115 70.3898C192.056 70.7083 192.502 70.8178 192.641 70.5092L198.637 57.1429C198.687 57.0334 198.796 56.9637 198.915 56.9637H200.751C200.94 56.9637 201.059 57.1528 200.98 57.332L189.713 82.3429C189.663 82.4524 189.554 82.522 189.435 82.522H187.886C187.727 82.522 187.608 82.3827 187.638 82.2234H187.628Z" fill="#0E0000"/>
<path d="M189.107 81.696H188.551L192.264 60.7457C192.324 60.4272 191.877 60.3178 191.738 60.6263L182.248 81.696H181.543L192.224 57.9689C192.274 57.8595 192.383 57.7898 192.502 57.7898H193.495L190.14 76.6898C190.08 77.0083 190.527 77.1178 190.666 76.8092L199.203 57.7898H199.868L189.107 81.696Z" fill="#0E0000"/>
<path d="M90.1264 82.5618H88.2601C88.0616 82.5618 87.9226 82.3628 88.012 82.1737L89.9378 78.0931C89.9874 77.9936 90.0768 77.9339 90.186 77.9339H91.9927C92.1912 77.9339 92.3302 78.1429 92.2408 78.322L90.3845 82.3926C90.3349 82.4922 90.2455 82.5519 90.1363 82.5519L90.1264 82.5618Z" fill="#0E0000"/>
<path d="M92.9853 76.4211H91.1092C90.9106 76.4211 90.7716 76.2121 90.861 76.0329L99.6562 57.0732C99.7058 56.9737 99.7952 56.914 99.9044 56.914H101.781C101.979 56.914 102.118 57.123 102.029 57.3021L93.2236 76.2618C93.174 76.3614 93.0846 76.4211 92.9754 76.4211H92.9853Z" fill="#0E0000"/>
<path d="M157.808 82.6315H155.942C155.743 82.6315 155.604 82.4325 155.693 82.2434L157.619 78.1628C157.669 78.0633 157.758 78.0035 157.867 78.0035H159.674C159.873 78.0035 160.012 78.2126 159.922 78.3917L158.066 82.4623C158.016 82.5618 157.927 82.6216 157.818 82.6216L157.808 82.6315Z" fill="#0E0000"/>
<path d="M160.657 76.4908H158.781C158.582 76.4908 158.443 76.2817 158.532 76.1026L167.328 57.1429C167.377 57.0434 167.467 56.9836 167.576 56.9836H169.452C169.651 56.9836 169.79 57.1926 169.7 57.3718L160.895 76.3315C160.845 76.431 160.756 76.4908 160.647 76.4908H160.657Z" fill="#0E0000"/>
</g>
<defs>
<linearGradient id="paint0_linear_122_324" x1="17.0448" y1="66.1201" x2="40.131" y2="2.11318" gradientUnits="userSpaceOnUse">
<stop stop-color="#5F717A"/>
<stop offset="0.29" stop-color="#859AA2"/>
<stop offset="0.6" stop-color="#AAC1C9"/>
<stop offset="0.85" stop-color="#C1DAE1"/>
<stop offset="1" stop-color="#CAE3EA"/>
</linearGradient>
<clipPath id="clip0_122_324">
<rect width="201" height="84" fill="white"/>
</clipPath>
</defs>
</svg>
