<svg width="536" height="516" viewBox="0 0 536 516" fill="none" xmlns="http://www.w3.org/2000/svg">
<g style="mix-blend-mode:exclusion">
<path d="M431.393 163.621H415.971C415.893 163.621 415.842 163.544 415.88 163.466L422.339 149.563C422.339 149.563 422.39 149.498 422.429 149.498L437.851 149.524C437.928 149.524 437.98 149.602 437.941 149.679L431.483 163.556C431.483 163.556 431.431 163.621 431.393 163.621Z" fill="url(#paint0_linear_147_403)"/>
<path d="M382.635 213.464C380.361 213.386 353.974 213.464 351.701 213.464C351.623 213.464 351.571 213.386 351.61 213.322C352.876 210.404 373.903 165.557 374.782 163.686C374.794 163.647 374.833 163.621 374.872 163.621H390.229C390.307 163.621 390.358 163.698 390.32 163.776L371.217 204.724C371.178 204.789 371.23 204.879 371.307 204.879H386.781C386.781 204.879 386.858 204.853 386.871 204.814L412.548 149.666C412.587 149.602 412.535 149.511 412.458 149.511H365.818C365.818 149.511 365.74 149.537 365.727 149.576L329.394 227.457C329.356 227.522 329.407 227.612 329.485 227.612H376.125C376.125 227.612 376.202 227.586 376.215 227.548L382.712 213.619C382.738 213.554 382.699 213.477 382.622 213.464H382.635Z" fill="url(#paint1_linear_147_403)"/>
<path d="M422.029 204.931L397.126 258.31C397.088 258.375 397.139 258.465 397.217 258.465H412.884C412.884 258.465 412.961 258.44 412.974 258.401L437.89 205.021C437.928 204.956 437.877 204.866 437.799 204.866H422.132C422.132 204.866 422.054 204.892 422.042 204.931H422.029Z" fill="url(#paint2_linear_147_403)"/>
<path d="M427.234 172.244H411.644C411.644 172.244 411.567 172.27 411.554 172.309L371.423 258.31C371.385 258.375 371.436 258.465 371.514 258.465H387.104C387.104 258.465 387.181 258.44 387.194 258.401L427.324 172.399C427.363 172.335 427.311 172.244 427.234 172.244Z" fill="url(#paint3_linear_147_403)"/>
<path d="M369.932 126.844H385.354C385.432 126.844 385.483 126.922 385.444 126.999L378.986 140.903C378.986 140.903 378.935 140.967 378.896 140.967L363.474 140.941C363.397 140.941 363.345 140.864 363.384 140.786L369.842 126.909C369.842 126.909 369.893 126.844 369.932 126.844Z" fill="url(#paint4_linear_147_403)"/>
<path d="M418.69 77.0017C420.964 77.0792 447.351 77.0017 449.624 77.0017C449.702 77.0017 449.753 77.0792 449.715 77.1437C448.449 80.0612 427.422 124.908 426.543 126.78C426.53 126.819 426.492 126.844 426.453 126.844H411.096C411.018 126.844 410.966 126.767 411.005 126.689L430.108 85.7413C430.147 85.6768 430.095 85.5864 430.018 85.5864H414.544C414.544 85.5864 414.467 85.6122 414.454 85.6509L388.777 140.799C388.738 140.864 388.79 140.954 388.867 140.954H435.507C435.507 140.954 435.585 140.928 435.598 140.89L471.93 63.0081C471.969 62.9435 471.917 62.8532 471.84 62.8532H425.2C425.2 62.8532 425.123 62.879 425.11 62.9177L418.613 76.8468C418.587 76.9114 418.626 76.9888 418.703 77.0017H418.69Z" fill="url(#paint5_linear_147_403)"/>
<path d="M379.296 85.5348L404.198 32.1549C404.237 32.0904 404.186 32 404.108 32H388.441C388.441 32 388.363 32.0258 388.35 32.0645L363.435 85.4444C363.397 85.5089 363.448 85.5993 363.526 85.5993H379.193C379.193 85.5993 379.27 85.5735 379.283 85.5348H379.296Z" fill="url(#paint6_linear_147_403)"/>
<path d="M374.091 118.221H389.681C389.681 118.221 389.758 118.195 389.771 118.156L429.901 32.1549C429.94 32.0904 429.889 32 429.811 32H414.221C414.221 32 414.144 32.0258 414.131 32.0645L374.001 118.066C373.962 118.131 374.014 118.221 374.091 118.221Z" fill="url(#paint7_linear_147_403)"/>
<path d="M433.638 235.861H449.059C449.137 235.861 449.189 235.938 449.15 236.016L442.692 249.919C442.692 249.919 442.64 249.984 442.601 249.984L427.18 249.958C427.102 249.958 427.05 249.88 427.089 249.803L433.547 235.925C433.547 235.925 433.599 235.861 433.638 235.861Z" fill="url(#paint8_linear_147_403)"/>
<path d="M482.396 186.018C484.669 186.096 511.057 186.018 513.33 186.018C513.407 186.018 513.459 186.096 513.42 186.16C512.155 189.078 491.127 233.924 490.249 235.796C490.236 235.835 490.197 235.861 490.158 235.861H474.801C474.724 235.861 474.672 235.783 474.711 235.706L493.814 194.758C493.852 194.693 493.801 194.603 493.723 194.603H478.25C478.25 194.603 478.172 194.629 478.159 194.667L452.482 249.816C452.444 249.88 452.495 249.971 452.573 249.971H499.213C499.213 249.971 499.29 249.945 499.303 249.906L535.636 172.025C535.675 171.96 535.623 171.87 535.546 171.87H488.906C488.906 171.87 488.828 171.895 488.815 171.934L482.318 185.863C482.293 185.928 482.331 186.005 482.409 186.018H482.396Z" fill="url(#paint9_linear_147_403)"/>
<path d="M443.002 194.551L467.904 141.171C467.943 141.107 467.891 141.016 467.814 141.016H452.146C452.146 141.016 452.069 141.042 452.056 141.081L427.141 194.461C427.102 194.525 427.154 194.616 427.231 194.616H442.899C442.899 194.616 442.976 194.59 442.989 194.551H443.002Z" fill="url(#paint10_linear_147_403)"/>
<path d="M437.797 227.237H453.386C453.386 227.237 453.464 227.212 453.477 227.173L493.607 141.171C493.646 141.107 493.594 141.016 493.517 141.016H477.927C477.927 141.016 477.849 141.042 477.837 141.081L437.706 227.083C437.668 227.147 437.719 227.237 437.797 227.237Z" fill="url(#paint11_linear_147_403)"/>
<path d="M247.815 148.06H232.393C232.316 148.06 232.264 147.983 232.303 147.905L238.761 134.002C238.761 134.002 238.812 133.937 238.851 133.937L254.273 133.963C254.351 133.963 254.402 134.041 254.363 134.118L247.905 147.996C247.905 147.996 247.854 148.06 247.815 148.06Z" fill="url(#paint12_linear_147_403)"/>
<path d="M199.057 197.903C196.784 197.825 170.396 197.903 168.123 197.903C168.045 197.903 167.994 197.825 168.033 197.761C169.298 194.843 190.326 149.997 191.204 148.125C191.217 148.086 191.256 148.06 191.294 148.06H206.652C206.729 148.06 206.781 148.138 206.742 148.215L187.639 189.163C187.6 189.228 187.652 189.318 187.73 189.318H203.203C203.203 189.318 203.28 189.292 203.293 189.254L228.97 134.105C229.009 134.041 228.958 133.95 228.88 133.95H182.24C182.24 133.95 182.163 133.976 182.15 134.015L145.817 211.896C145.778 211.961 145.83 212.051 145.907 212.051H192.547C192.547 212.051 192.625 212.026 192.638 211.987L199.134 198.058C199.16 197.993 199.121 197.916 199.044 197.903H199.057Z" fill="url(#paint13_linear_147_403)"/>
<path d="M238.451 189.37L213.549 242.75C213.51 242.814 213.562 242.905 213.639 242.905H229.306C229.306 242.905 229.384 242.879 229.397 242.84L254.312 189.46C254.351 189.396 254.299 189.305 254.221 189.305H238.554C238.554 189.305 238.477 189.331 238.464 189.37H238.451Z" fill="url(#paint14_linear_147_403)"/>
<path d="M243.656 156.684H228.066C228.066 156.684 227.989 156.709 227.976 156.748L187.846 242.75C187.807 242.814 187.859 242.905 187.936 242.905H203.526C203.526 242.905 203.603 242.879 203.616 242.84L243.746 156.838C243.785 156.774 243.734 156.684 243.656 156.684Z" fill="url(#paint15_linear_147_403)"/>
<path d="M370.035 54.6175H354.614C354.536 54.6175 354.484 54.54 354.523 54.4626L360.981 40.5593C360.981 40.5593 361.033 40.4947 361.072 40.4947L376.493 40.5205C376.571 40.5205 376.622 40.598 376.584 40.6755L370.126 54.5529C370.126 54.5529 370.074 54.6175 370.035 54.6175Z" fill="url(#paint16_linear_147_403)"/>
<path d="M321.277 104.46C319.004 104.383 292.616 104.46 290.343 104.46C290.266 104.46 290.214 104.383 290.253 104.318C291.518 101.401 312.546 56.5539 313.424 54.682C313.437 54.6433 313.476 54.6175 313.515 54.6175L328.872 54.6175C328.949 54.6175 329.001 54.6949 328.962 54.7724L309.859 95.7206C309.82 95.7851 309.872 95.8755 309.95 95.8755H325.423C325.423 95.8755 325.501 95.8497 325.514 95.811L351.191 40.6626C351.229 40.598 351.178 40.5076 351.1 40.5076L304.46 40.5076C304.46 40.5076 304.383 40.5335 304.37 40.5722L268.037 118.454C267.998 118.518 268.05 118.609 268.127 118.609H314.767C314.767 118.609 314.845 118.583 314.858 118.544L321.355 104.615C321.38 104.551 321.342 104.473 321.264 104.46H321.277Z" fill="url(#paint17_linear_147_403)"/>
<path d="M360.671 95.9271L335.769 149.307C335.73 149.372 335.782 149.462 335.859 149.462H351.526C351.526 149.462 351.604 149.436 351.617 149.397L376.532 96.0175C376.571 95.953 376.519 95.8626 376.442 95.8626H360.774C360.774 95.8626 360.697 95.8884 360.684 95.9271H360.671Z" fill="url(#paint18_linear_147_403)"/>
<path d="M365.876 63.2409H350.287C350.287 63.2409 350.209 63.2667 350.196 63.3054L310.066 149.307C310.027 149.372 310.079 149.462 310.156 149.462H325.746C325.746 149.462 325.824 149.436 325.836 149.397L365.967 63.3958C366.005 63.3312 365.954 63.2409 365.876 63.2409Z" fill="url(#paint19_linear_147_403)"/>
<path d="M249.575 221.703H264.997C265.074 221.703 265.126 221.78 265.087 221.858L258.629 235.761C258.629 235.761 258.578 235.826 258.539 235.826L243.117 235.8C243.039 235.8 242.988 235.722 243.027 235.645L249.485 221.767C249.485 221.767 249.536 221.703 249.575 221.703Z" fill="url(#paint20_linear_147_403)"/>
<path d="M298.333 171.86C300.606 171.938 326.994 171.86 329.267 171.86C329.345 171.86 329.396 171.938 329.358 172.002C328.092 174.92 307.064 219.766 306.186 221.638C306.173 221.677 306.134 221.703 306.096 221.703H290.739C290.661 221.703 290.609 221.625 290.648 221.548L309.751 180.6C309.79 180.535 309.738 180.445 309.661 180.445H294.187C294.187 180.445 294.11 180.471 294.097 180.509L268.42 235.658C268.381 235.722 268.432 235.813 268.51 235.813H315.15C315.15 235.813 315.227 235.787 315.24 235.748L351.573 157.867C351.612 157.802 351.56 157.712 351.483 157.712H304.843C304.843 157.712 304.765 157.737 304.752 157.776L298.256 171.705C298.23 171.77 298.269 171.847 298.346 171.86H298.333Z" fill="url(#paint21_linear_147_403)"/>
<path d="M258.939 180.393L283.841 127.013C283.88 126.949 283.828 126.858 283.751 126.858H268.084C268.084 126.858 268.006 126.884 267.993 126.923L243.078 180.303C243.039 180.367 243.091 180.458 243.169 180.458H258.836C258.836 180.458 258.913 180.432 258.926 180.393H258.939Z" fill="url(#paint22_linear_147_403)"/>
<path d="M253.734 213.079H269.324C269.324 213.079 269.401 213.054 269.414 213.015L309.544 127.013C309.583 126.949 309.531 126.858 309.454 126.858H293.864C293.864 126.858 293.787 126.884 293.774 126.923L253.644 212.925C253.605 212.989 253.656 213.079 253.734 213.079Z" fill="url(#paint23_linear_147_403)"/>
<path d="M186.341 112.686H201.763C201.841 112.686 201.892 112.764 201.854 112.841L195.396 126.745C195.396 126.745 195.344 126.809 195.305 126.809L179.883 126.783C179.806 126.783 179.754 126.706 179.793 126.628L186.251 112.751C186.251 112.751 186.303 112.686 186.341 112.686Z" fill="url(#paint24_linear_147_403)"/>
<path d="M235.1 62.8437C237.373 62.9212 263.76 62.8437 266.034 62.8437C266.111 62.8437 266.163 62.9212 266.124 62.9857C264.858 65.9032 243.831 110.75 242.953 112.622C242.94 112.661 242.901 112.686 242.862 112.686H227.505C227.427 112.686 227.376 112.609 227.414 112.532L246.517 71.5833C246.556 71.5188 246.504 71.4284 246.427 71.4284H230.953C230.953 71.4284 230.876 71.4542 230.863 71.493L205.186 126.641C205.147 126.706 205.199 126.796 205.276 126.796H251.916C251.916 126.796 251.994 126.77 252.007 126.732L288.34 48.8501C288.378 48.7856 288.327 48.6952 288.249 48.6952H241.609C241.609 48.6952 241.532 48.721 241.519 48.7597L235.022 62.6888C234.996 62.7534 235.035 62.8308 235.112 62.8437H235.1Z" fill="url(#paint25_linear_147_403)"/>
<path d="M195.706 71.3768L220.608 17.9969C220.646 17.9324 220.595 17.842 220.517 17.842H204.85C204.85 17.842 204.773 17.8678 204.76 17.9066L179.845 71.2864C179.806 71.351 179.858 71.4413 179.935 71.4413H195.602C195.602 71.4413 195.68 71.4155 195.693 71.3768H195.706Z" fill="url(#paint26_linear_147_403)"/>
<path d="M190.5 104.063H206.09C206.09 104.063 206.168 104.037 206.18 103.999L246.311 17.9969C246.349 17.9324 246.298 17.842 246.22 17.842H230.631C230.631 17.842 230.553 17.8678 230.54 17.9066L190.41 103.908C190.371 103.973 190.423 104.063 190.5 104.063Z" fill="url(#paint27_linear_147_403)"/>
<path d="M308.562 330.719H323.983C324.061 330.719 324.113 330.797 324.074 330.874L317.616 344.777C317.616 344.777 317.564 344.842 317.525 344.842L302.104 344.816C302.026 344.816 301.974 344.739 302.013 344.661L308.471 330.784C308.471 330.784 308.523 330.719 308.562 330.719Z" fill="url(#paint28_linear_147_403)"/>
<path d="M357.32 280.877C359.593 280.954 385.981 280.877 388.254 280.877C388.331 280.877 388.383 280.954 388.344 281.019C387.078 283.936 366.051 328.783 365.173 330.655C365.16 330.693 365.121 330.719 365.082 330.719H349.725C349.648 330.719 349.596 330.642 349.635 330.564L368.738 289.616C368.776 289.552 368.725 289.461 368.647 289.461H353.174C353.174 289.461 353.096 289.487 353.083 289.526L327.406 344.674C327.367 344.739 327.419 344.829 327.497 344.829H374.137C374.137 344.829 374.214 344.803 374.227 344.765L410.56 266.883C410.599 266.818 410.547 266.728 410.469 266.728H363.829C363.829 266.728 363.752 266.754 363.739 266.793L357.242 280.722C357.216 280.786 357.255 280.864 357.333 280.877H357.32Z" fill="url(#paint29_linear_147_403)"/>
<path d="M317.926 289.41L342.828 236.03C342.867 235.965 342.815 235.875 342.737 235.875H327.07C327.07 235.875 326.993 235.901 326.98 235.939L302.065 289.319C302.026 289.384 302.078 289.474 302.155 289.474H317.822C317.822 289.474 317.9 289.448 317.913 289.41H317.926Z" fill="url(#paint30_linear_147_403)"/>
<path d="M312.721 322.096H328.31C328.31 322.096 328.388 322.07 328.401 322.031L368.531 236.03C368.57 235.965 368.518 235.875 368.441 235.875H352.851C352.851 235.875 352.773 235.901 352.76 235.939L312.63 321.941C312.591 322.005 312.643 322.096 312.721 322.096Z" fill="url(#paint31_linear_147_403)"/>
<path d="M65.3927 131.621H49.9709C49.8934 131.621 49.8418 131.544 49.8805 131.466L56.3385 117.563C56.3385 117.563 56.3902 117.498 56.429 117.498L71.8507 117.524C71.9282 117.524 71.9799 117.602 71.9412 117.679L65.4831 131.556C65.4831 131.556 65.4314 131.621 65.3927 131.621Z" fill="url(#paint32_linear_147_403)"/>
<path d="M16.6345 181.464C14.3613 181.386 -12.0262 181.464 -14.2994 181.464C-14.3769 181.464 -14.4286 181.386 -14.3899 181.322C-13.1241 178.404 7.90327 133.557 8.78157 131.686C8.79448 131.647 8.83324 131.621 8.87198 131.621H24.2292C24.3067 131.621 24.3583 131.698 24.3196 131.776L5.21674 172.724C5.17799 172.789 5.22966 172.879 5.30716 172.879H20.7806C20.7806 172.879 20.8581 172.853 20.871 172.814L46.5482 117.666C46.5869 117.602 46.5352 117.511 46.4577 117.511H-0.182182C-0.182182 117.511 -0.259674 117.537 -0.272591 117.576L-36.6055 195.457C-36.6442 195.522 -36.5926 195.612 -36.5151 195.612H10.1248C10.1248 195.612 10.2023 195.586 10.2153 195.548L16.712 181.619C16.7379 181.554 16.6991 181.477 16.6216 181.464H16.6345Z" fill="url(#paint33_linear_147_403)"/>
<path d="M56.0285 172.931L31.1264 226.311C31.0876 226.375 31.1393 226.465 31.2168 226.465H46.8839C46.8839 226.465 46.9615 226.44 46.9744 226.401L71.8895 173.021C71.9282 172.956 71.8766 172.866 71.7991 172.866H56.1319C56.1319 172.866 56.0544 172.892 56.0414 172.931H56.0285Z" fill="url(#paint34_linear_147_403)"/>
<path d="M61.2337 140.244H45.644C45.644 140.244 45.5665 140.27 45.5536 140.309L5.42339 226.311C5.38464 226.375 5.43629 226.465 5.51379 226.465H21.1035C21.1035 226.465 21.181 226.44 21.1939 226.401L61.3242 140.399C61.3629 140.335 61.3112 140.244 61.2337 140.244Z" fill="url(#paint35_linear_147_403)"/>
<path d="M3.93216 94.8444H19.3539C19.4314 94.8444 19.4831 94.9219 19.4444 94.9993L12.9863 108.903C12.9863 108.903 12.9346 108.967 12.8959 108.967L-2.52589 108.941C-2.60339 108.941 -2.65504 108.864 -2.61629 108.786L3.84174 94.909C3.84174 94.909 3.89342 94.8444 3.93216 94.8444Z" fill="url(#paint36_linear_147_403)"/>
<path d="M52.6903 45.0017C54.9635 45.0792 81.351 45.0017 83.6243 45.0017C83.7018 45.0017 83.7535 45.0792 83.7147 45.1437C82.4489 48.0612 61.4216 92.908 60.5433 94.7799C60.5304 94.8186 60.4916 94.8444 60.4529 94.8444H45.0957C45.0182 94.8444 44.9665 94.767 45.0052 94.6895L64.1081 53.7413C64.1468 53.6768 64.0952 53.5864 64.0177 53.5864H48.5443C48.5443 53.5864 48.4667 53.6122 48.4538 53.6509L22.7767 108.799C22.738 108.864 22.7896 108.954 22.8671 108.954H69.507C69.507 108.954 69.5845 108.928 69.5974 108.89L105.93 31.0081C105.969 30.9435 105.917 30.8532 105.84 30.8532H59.2C59.2 30.8532 59.1225 30.879 59.1096 30.9177L52.6128 44.8468C52.587 44.9114 52.6257 44.9888 52.7032 45.0017H52.6903Z" fill="url(#paint37_linear_147_403)"/>
<path d="M13.2963 53.5348L38.1985 0.154911C38.2372 0.0903647 38.1856 0 38.1081 0H22.4409C22.4409 0 22.3634 0.0258178 22.3505 0.0645456L-2.56464 53.4444C-2.60339 53.5089 -2.55173 53.5993 -2.47424 53.5993H13.193C13.193 53.5993 13.2705 53.5735 13.2834 53.5348H13.2963Z" fill="url(#paint38_linear_147_403)"/>
<path d="M8.09113 86.221H23.6808C23.6808 86.221 23.7583 86.1952 23.7712 86.1565L63.9015 0.154911C63.9402 0.0903647 63.8885 0 63.811 0H48.2213C48.2213 0 48.1439 0.0258178 48.131 0.0645456L8.00072 86.0661C7.96198 86.1307 8.01363 86.221 8.09113 86.221Z" fill="url(#paint39_linear_147_403)"/>
<path d="M67.6377 203.861H83.0595C83.137 203.861 83.1886 203.938 83.1499 204.016L76.6918 217.919C76.6918 217.919 76.6402 217.984 76.6014 217.984L61.1797 217.958C61.1022 217.958 61.0505 217.88 61.0892 217.803L67.5473 203.925C67.5473 203.925 67.5989 203.861 67.6377 203.861Z" fill="url(#paint40_linear_147_403)"/>
<path d="M116.396 154.018C118.669 154.096 145.057 154.018 147.33 154.018C147.407 154.018 147.459 154.096 147.42 154.16C146.154 157.078 125.127 201.924 124.249 203.796C124.236 203.835 124.197 203.861 124.158 203.861H108.801C108.724 203.861 108.672 203.783 108.711 203.706L127.814 162.758C127.852 162.693 127.801 162.603 127.723 162.603H112.25C112.25 162.603 112.172 162.629 112.159 162.667L86.4822 217.816C86.4435 217.88 86.4951 217.971 86.5726 217.971H133.212C133.212 217.971 133.29 217.945 133.303 217.906L169.636 140.025C169.675 139.96 169.623 139.87 169.545 139.87H122.905C122.905 139.87 122.828 139.895 122.815 139.934L116.318 153.863C116.292 153.928 116.331 154.005 116.409 154.018H116.396Z" fill="url(#paint41_linear_147_403)"/>
<path d="M77.0018 162.551L101.904 109.171C101.943 109.107 101.891 109.016 101.814 109.016H86.1464C86.1464 109.016 86.0689 109.042 86.056 109.081L61.1409 162.461C61.1021 162.525 61.1538 162.616 61.2313 162.616H76.8985C76.8985 162.616 76.976 162.59 76.9889 162.551H77.0018Z" fill="url(#paint42_linear_147_403)"/>
<path d="M71.7966 195.237H87.3864C87.3864 195.237 87.4638 195.212 87.4767 195.173L127.607 109.171C127.646 109.107 127.594 109.016 127.516 109.016H111.927C111.927 109.016 111.849 109.042 111.836 109.081L71.7062 195.083C71.6675 195.147 71.7191 195.237 71.7966 195.237Z" fill="url(#paint43_linear_147_403)"/>
<path d="M185.242 36.7754L169.82 36.7754C169.743 36.7754 169.691 36.698 169.73 36.6205L176.188 22.7172C176.188 22.7172 176.24 22.6527 176.278 22.6527L191.7 22.6785C191.778 22.6785 191.829 22.756 191.791 22.8334L185.332 36.7109C185.332 36.7109 185.281 36.7754 185.242 36.7754Z" fill="url(#paint44_linear_147_403)"/>
<path d="M136.484 86.6181C134.211 86.5407 107.823 86.6181 105.55 86.6181C105.472 86.6181 105.421 86.5407 105.46 86.4761C106.725 83.5586 127.753 38.7118 128.631 36.84C128.644 36.8013 128.683 36.7754 128.721 36.7754L144.079 36.7754C144.156 36.7754 144.208 36.8529 144.169 36.9304L125.066 77.8786C125.027 77.9431 125.079 78.0335 125.157 78.0335H140.63C140.63 78.0335 140.708 78.0077 140.72 77.9689L166.398 22.8205C166.436 22.756 166.385 22.6656 166.307 22.6656L119.667 22.6656C119.667 22.6656 119.59 22.6914 119.577 22.7302L83.2439 100.612C83.2052 100.676 83.2568 100.767 83.3343 100.767H129.974C129.974 100.767 130.052 100.741 130.065 100.702L136.561 86.7731C136.587 86.7085 136.548 86.6311 136.471 86.6181H136.484Z" fill="url(#paint45_linear_147_403)"/>
<path d="M175.878 78.0851L150.976 131.465C150.937 131.53 150.989 131.62 151.066 131.62H166.733C166.733 131.62 166.811 131.594 166.824 131.555L191.739 78.1755C191.778 78.1109 191.726 78.0206 191.648 78.0206H175.981C175.981 78.0206 175.904 78.0464 175.891 78.0851H175.878Z" fill="url(#paint46_linear_147_403)"/>
<path d="M181.083 45.3988H165.493C165.493 45.3988 165.416 45.4247 165.403 45.4634L125.273 131.465C125.234 131.53 125.286 131.62 125.363 131.62H140.953C140.953 131.62 141.03 131.594 141.043 131.555L181.174 45.5538C181.212 45.4892 181.161 45.3988 181.083 45.3988Z" fill="url(#paint47_linear_147_403)"/>
<path d="M-57.4384 298.719H-42.0166C-41.9391 298.719 -41.8874 298.797 -41.9262 298.874L-48.3842 312.777C-48.3842 312.777 -48.4359 312.842 -48.4746 312.842L-63.8964 312.816C-63.9739 312.816 -64.0256 312.739 -63.9868 312.661L-57.5288 298.784C-57.5288 298.784 -57.4771 298.719 -57.4384 298.719Z" fill="url(#paint48_linear_147_403)"/>
<path d="M-8.68023 248.877C-6.407 248.954 19.9805 248.877 22.2538 248.877C22.3313 248.877 22.3829 248.954 22.3442 249.019C21.0784 251.936 0.0510254 296.783 -0.827263 298.655C-0.840179 298.693 -0.878922 298.719 -0.917671 298.719H-16.2749C-16.3524 298.719 -16.404 298.642 -16.3653 298.564L2.73759 257.616C2.77634 257.552 2.72469 257.461 2.64719 257.461H-12.8263C-12.8263 257.461 -12.9038 257.487 -12.9167 257.526L-38.5938 312.674C-38.6326 312.739 -38.5809 312.829 -38.5034 312.829H8.13651C8.13651 312.829 8.214 312.803 8.22691 312.765L44.5598 234.883C44.5986 234.818 44.5469 234.728 44.4694 234.728H-2.17052C-2.17052 234.728 -2.24802 234.754 -2.26093 234.793L-8.75771 248.722C-8.78355 248.786 -8.7448 248.864 -8.6673 248.877H-8.68023Z" fill="url(#paint49_linear_147_403)"/>
<path d="M-48.0742 257.41L-23.1721 204.03C-23.1333 203.965 -23.185 203.875 -23.2625 203.875H-38.9297C-38.9297 203.875 -39.0072 203.901 -39.0201 203.939L-63.9352 257.319C-63.9739 257.384 -63.9222 257.474 -63.8447 257.474H-48.1776C-48.1776 257.474 -48.1001 257.448 -48.0871 257.41H-48.0742Z" fill="url(#paint50_linear_147_403)"/>
<path d="M-53.2794 290.096H-37.6897C-37.6897 290.096 -37.6122 290.07 -37.5993 290.031L2.53094 204.03C2.56969 203.965 2.51802 203.875 2.44052 203.875H-13.1492C-13.1492 203.875 -13.2267 203.901 -13.2396 203.939L-53.3698 289.941C-53.4086 290.005 -53.3569 290.096 -53.2794 290.096Z" fill="url(#paint51_linear_147_403)"/>
<path d="M367.393 366.621H351.971C351.893 366.621 351.842 366.544 351.88 366.466L358.339 352.563C358.339 352.563 358.39 352.498 358.429 352.498L373.851 352.524C373.928 352.524 373.98 352.602 373.941 352.679L367.483 366.556C367.483 366.556 367.431 366.621 367.393 366.621Z" fill="url(#paint52_linear_147_403)"/>
<path d="M318.635 416.464C316.361 416.386 289.974 416.464 287.701 416.464C287.623 416.464 287.571 416.386 287.61 416.322C288.876 413.404 309.903 368.557 310.782 366.686C310.794 366.647 310.833 366.621 310.872 366.621H326.229C326.307 366.621 326.358 366.698 326.32 366.776L307.217 407.724C307.178 407.789 307.23 407.879 307.307 407.879H322.781C322.781 407.879 322.858 407.853 322.871 407.814L348.548 352.666C348.587 352.602 348.535 352.511 348.458 352.511H301.818C301.818 352.511 301.74 352.537 301.727 352.576L265.394 430.457C265.356 430.522 265.407 430.612 265.485 430.612H312.125C312.125 430.612 312.202 430.586 312.215 430.548L318.712 416.619C318.738 416.554 318.699 416.477 318.622 416.464H318.635Z" fill="url(#paint53_linear_147_403)"/>
<path d="M358.029 407.931L333.126 461.31C333.088 461.375 333.139 461.465 333.217 461.465H348.884C348.884 461.465 348.961 461.44 348.974 461.401L373.889 408.021C373.928 407.956 373.877 407.866 373.799 407.866H358.132C358.132 407.866 358.054 407.892 358.041 407.931H358.029Z" fill="url(#paint54_linear_147_403)"/>
<path d="M363.234 375.244H347.644C347.644 375.244 347.566 375.27 347.554 375.309L307.423 461.31C307.385 461.375 307.436 461.465 307.514 461.465H323.103C323.103 461.465 323.181 461.44 323.194 461.401L363.324 375.399C363.363 375.335 363.311 375.244 363.234 375.244Z" fill="url(#paint55_linear_147_403)"/>
<path d="M369.638 438.861H385.059C385.137 438.861 385.189 438.938 385.15 439.016L378.692 452.919C378.692 452.919 378.64 452.984 378.601 452.984L363.18 452.958C363.102 452.958 363.05 452.88 363.089 452.803L369.547 438.925C369.547 438.925 369.599 438.861 369.638 438.861Z" fill="url(#paint56_linear_147_403)"/>
<path d="M418.396 389.018C420.669 389.096 447.057 389.018 449.33 389.018C449.407 389.018 449.459 389.096 449.42 389.16C448.155 392.078 427.127 436.924 426.249 438.796C426.236 438.835 426.197 438.861 426.158 438.861H410.801C410.724 438.861 410.672 438.783 410.711 438.706L429.814 397.758C429.852 397.693 429.801 397.603 429.723 397.603H414.25C414.25 397.603 414.172 397.629 414.159 397.667L388.482 452.816C388.444 452.88 388.495 452.971 388.573 452.971H435.213C435.213 452.971 435.29 452.945 435.303 452.906L471.636 375.025C471.675 374.96 471.623 374.87 471.546 374.87H424.906C424.906 374.87 424.828 374.895 424.815 374.934L418.318 388.863C418.293 388.928 418.331 389.005 418.409 389.018H418.396Z" fill="url(#paint57_linear_147_403)"/>
<path d="M379.002 397.551L403.904 344.171C403.943 344.107 403.891 344.016 403.814 344.016H388.146C388.146 344.016 388.069 344.042 388.056 344.081L363.141 397.461C363.102 397.525 363.154 397.616 363.231 397.616H378.899C378.899 397.616 378.976 397.59 378.989 397.551H379.002Z" fill="url(#paint58_linear_147_403)"/>
<path d="M373.797 430.237H389.386C389.386 430.237 389.464 430.212 389.477 430.173L429.607 344.171C429.646 344.107 429.594 344.016 429.517 344.016H413.927C413.927 344.016 413.849 344.042 413.837 344.081L373.706 430.083C373.668 430.147 373.719 430.237 373.797 430.237Z" fill="url(#paint59_linear_147_403)"/>
<path d="M183.815 351.06H168.393C168.316 351.06 168.264 350.983 168.303 350.905L174.761 337.002C174.761 337.002 174.812 336.937 174.851 336.937L190.273 336.963C190.351 336.963 190.402 337.041 190.363 337.118L183.905 350.996C183.905 350.996 183.854 351.06 183.815 351.06Z" fill="url(#paint60_linear_147_403)"/>
<path d="M135.057 400.903C132.784 400.825 106.396 400.903 104.123 400.903C104.045 400.903 103.994 400.825 104.032 400.761C105.298 397.843 126.326 352.997 127.204 351.125C127.217 351.086 127.256 351.06 127.294 351.06H142.652C142.729 351.06 142.781 351.138 142.742 351.215L123.639 392.163C123.6 392.228 123.652 392.318 123.73 392.318H139.203C139.203 392.318 139.28 392.292 139.293 392.254L164.97 337.105C165.009 337.041 164.958 336.95 164.88 336.95H118.24C118.24 336.95 118.163 336.976 118.15 337.015L81.8168 414.896C81.7781 414.961 81.8297 415.051 81.9072 415.051H128.547C128.547 415.051 128.625 415.026 128.638 414.987L135.134 401.058C135.16 400.993 135.121 400.916 135.044 400.903H135.057Z" fill="url(#paint61_linear_147_403)"/>
<path d="M174.451 392.37L149.549 445.75C149.51 445.814 149.562 445.905 149.639 445.905H165.306C165.306 445.905 165.384 445.879 165.397 445.84L190.312 392.46C190.351 392.396 190.299 392.305 190.221 392.305H174.554C174.554 392.305 174.477 392.331 174.464 392.37H174.451Z" fill="url(#paint62_linear_147_403)"/>
<path d="M179.656 359.684H164.066C164.066 359.684 163.989 359.709 163.976 359.748L123.846 445.75C123.807 445.814 123.859 445.905 123.936 445.905H139.526C139.526 445.905 139.603 445.879 139.616 445.84L179.746 359.838C179.785 359.774 179.734 359.684 179.656 359.684Z" fill="url(#paint63_linear_147_403)"/>
<path d="M306.035 257.617H290.614C290.536 257.617 290.484 257.54 290.523 257.463L296.981 243.559C296.981 243.559 297.033 243.495 297.072 243.495L312.493 243.521C312.571 243.521 312.622 243.598 312.584 243.675L306.126 257.553C306.126 257.553 306.074 257.617 306.035 257.617Z" fill="url(#paint64_linear_147_403)"/>
<path d="M257.277 307.46C255.004 307.383 228.616 307.46 226.343 307.46C226.266 307.46 226.214 307.383 226.253 307.318C227.518 304.401 248.546 259.554 249.424 257.682C249.437 257.643 249.476 257.617 249.515 257.617H264.872C264.949 257.617 265.001 257.695 264.962 257.772L245.859 298.721C245.82 298.785 245.872 298.876 245.95 298.876H261.423C261.423 298.876 261.501 298.85 261.514 298.811L287.191 243.663C287.229 243.598 287.178 243.508 287.1 243.508L240.46 243.508C240.46 243.508 240.383 243.533 240.37 243.572L204.037 321.454C203.998 321.518 204.05 321.609 204.127 321.609H250.767C250.767 321.609 250.845 321.583 250.858 321.544L257.355 307.615C257.38 307.551 257.342 307.473 257.264 307.46H257.277Z" fill="url(#paint65_linear_147_403)"/>
<path d="M296.671 298.927L271.769 352.307C271.73 352.372 271.782 352.462 271.859 352.462H287.526C287.526 352.462 287.604 352.436 287.617 352.397L312.532 299.018C312.571 298.953 312.519 298.863 312.442 298.863H296.774C296.774 298.863 296.697 298.888 296.684 298.927H296.671Z" fill="url(#paint66_linear_147_403)"/>
<path d="M301.876 266.241H286.287C286.287 266.241 286.209 266.267 286.196 266.305L246.066 352.307C246.027 352.372 246.079 352.462 246.156 352.462H261.746C261.746 352.462 261.824 352.436 261.836 352.397L301.967 266.396C302.005 266.331 301.954 266.241 301.876 266.241Z" fill="url(#paint67_linear_147_403)"/>
<path d="M185.575 424.703H200.997C201.074 424.703 201.126 424.78 201.087 424.858L194.629 438.761C194.629 438.761 194.578 438.826 194.539 438.826L179.117 438.8C179.039 438.8 178.988 438.722 179.027 438.645L185.485 424.767C185.485 424.767 185.536 424.703 185.575 424.703Z" fill="url(#paint68_linear_147_403)"/>
<path d="M234.333 374.86C236.606 374.938 262.994 374.86 265.267 374.86C265.345 374.86 265.396 374.938 265.358 375.002C264.092 377.92 243.064 422.766 242.186 424.638C242.173 424.677 242.134 424.703 242.096 424.703H226.739C226.661 424.703 226.609 424.625 226.648 424.548L245.751 383.6C245.79 383.535 245.738 383.445 245.661 383.445H230.187C230.187 383.445 230.11 383.471 230.097 383.509L204.42 438.658C204.381 438.722 204.432 438.813 204.51 438.813H251.15C251.15 438.813 251.227 438.787 251.24 438.748L287.573 360.867C287.612 360.802 287.56 360.712 287.483 360.712H240.843C240.843 360.712 240.765 360.737 240.752 360.776L234.256 374.705C234.23 374.77 234.269 374.847 234.346 374.86H234.333Z" fill="url(#paint69_linear_147_403)"/>
<path d="M194.939 383.393L219.841 330.013C219.88 329.949 219.828 329.858 219.751 329.858H204.084C204.084 329.858 204.006 329.884 203.993 329.923L179.078 383.303C179.039 383.367 179.091 383.458 179.169 383.458H194.836C194.836 383.458 194.913 383.432 194.926 383.393H194.939Z" fill="url(#paint70_linear_147_403)"/>
<path d="M189.734 416.079H205.324C205.324 416.079 205.401 416.054 205.414 416.015L245.544 330.013C245.583 329.949 245.531 329.858 245.454 329.858H229.864C229.864 329.858 229.787 329.884 229.774 329.923L189.644 415.925C189.605 415.989 189.656 416.079 189.734 416.079Z" fill="url(#paint71_linear_147_403)"/>
<path d="M122.341 315.686H137.763C137.841 315.686 137.892 315.764 137.854 315.841L131.396 329.745C131.396 329.745 131.344 329.809 131.305 329.809L115.883 329.783C115.806 329.783 115.754 329.706 115.793 329.628L122.251 315.751C122.251 315.751 122.303 315.686 122.341 315.686Z" fill="url(#paint72_linear_147_403)"/>
<path d="M171.1 265.844C173.373 265.921 199.76 265.844 202.034 265.844C202.111 265.844 202.163 265.921 202.124 265.986C200.858 268.903 179.831 313.75 178.953 315.622C178.94 315.661 178.901 315.686 178.862 315.686H163.505C163.427 315.686 163.376 315.609 163.414 315.532L182.517 274.583C182.556 274.519 182.504 274.428 182.427 274.428H166.953C166.953 274.428 166.876 274.454 166.863 274.493L141.186 329.641C141.147 329.706 141.199 329.796 141.276 329.796H187.916C187.916 329.796 187.994 329.77 188.007 329.732L224.34 251.85C224.378 251.786 224.327 251.695 224.249 251.695H177.609C177.609 251.695 177.532 251.721 177.519 251.76L171.022 265.689C170.996 265.753 171.035 265.831 171.112 265.844H171.1Z" fill="url(#paint73_linear_147_403)"/>
<path d="M131.706 274.377L156.608 220.997C156.646 220.932 156.595 220.842 156.517 220.842H140.85C140.85 220.842 140.773 220.868 140.76 220.907L115.845 274.286C115.806 274.351 115.858 274.441 115.935 274.441H131.602C131.602 274.441 131.68 274.416 131.693 274.377H131.706Z" fill="url(#paint74_linear_147_403)"/>
<path d="M126.5 307.063H142.09C142.09 307.063 142.168 307.037 142.18 306.999L182.311 220.997C182.349 220.932 182.298 220.842 182.22 220.842H166.631C166.631 220.842 166.553 220.868 166.54 220.907L126.41 306.908C126.371 306.973 126.423 307.063 126.5 307.063Z" fill="url(#paint75_linear_147_403)"/>
<path d="M1.3927 334.621H-14.0291C-14.1066 334.621 -14.1583 334.544 -14.1195 334.466L-7.66148 320.563C-7.66148 320.563 -7.6098 320.498 -7.57105 320.498L7.85074 320.524C7.92824 320.524 7.9799 320.602 7.94116 320.679L1.48309 334.556C1.48309 334.556 1.43144 334.621 1.3927 334.621Z" fill="url(#paint76_linear_147_403)"/>
<path d="M-47.3655 384.464C-49.6387 384.386 -76.0262 384.464 -78.2994 384.464C-78.3769 384.464 -78.4286 384.386 -78.3899 384.322C-77.1241 381.404 -56.0967 336.557 -55.2184 334.686C-55.2055 334.647 -55.1668 334.621 -55.128 334.621H-39.7708C-39.6933 334.621 -39.6417 334.698 -39.6804 334.776L-58.7833 375.724C-58.822 375.789 -58.7703 375.879 -58.6928 375.879H-43.2194C-43.2194 375.879 -43.1419 375.853 -43.129 375.814L-17.4519 320.666C-17.4131 320.602 -17.4648 320.511 -17.5423 320.511H-64.1822C-64.1822 320.511 -64.2597 320.537 -64.2726 320.576L-100.605 398.457C-100.644 398.522 -100.593 398.612 -100.515 398.612H-53.8752C-53.8752 398.612 -53.7977 398.586 -53.7848 398.548L-47.288 384.619C-47.2621 384.554 -47.3009 384.477 -47.3784 384.464H-47.3655Z" fill="url(#paint77_linear_147_403)"/>
<path d="M-7.97147 375.931L-32.8736 429.31C-32.9124 429.375 -32.8607 429.465 -32.7832 429.465H-17.1161C-17.1161 429.465 -17.0386 429.44 -17.0256 429.401L7.8895 376.021C7.92824 375.956 7.87657 375.866 7.79907 375.866H-7.86814C-7.86814 375.866 -7.94565 375.892 -7.95856 375.931H-7.97147Z" fill="url(#paint78_linear_147_403)"/>
<path d="M-2.76627 343.244H-18.356C-18.356 343.244 -18.4335 343.27 -18.4464 343.309L-58.5766 429.31C-58.6154 429.375 -58.5637 429.465 -58.4862 429.465H-42.8965C-42.8965 429.465 -42.819 429.44 -42.8061 429.401L-2.67585 343.399C-2.6371 343.335 -2.68877 343.244 -2.76627 343.244Z" fill="url(#paint79_linear_147_403)"/>
<path d="M-60.0678 297.844H-44.6461C-44.5686 297.844 -44.5169 297.922 -44.5557 297.999L-51.0137 311.903C-51.0137 311.903 -51.0654 311.967 -51.1041 311.967L-66.5259 311.941C-66.6034 311.941 -66.655 311.864 -66.6163 311.786L-60.1583 297.909C-60.1583 297.909 -60.1066 297.844 -60.0678 297.844Z" fill="url(#paint80_linear_147_403)"/>
<path d="M-11.3097 248.002C-9.03647 248.079 17.351 248.002 19.6243 248.002C19.7018 248.002 19.7535 248.079 19.7147 248.144C18.4489 251.061 -2.57844 295.908 -3.45673 297.78C-3.46965 297.819 -3.50841 297.844 -3.54716 297.844H-18.9043C-18.9818 297.844 -19.0335 297.767 -18.9948 297.69L0.108093 256.741C0.146835 256.677 0.0951996 256.586 0.0177002 256.586H-15.4558C-15.4558 256.586 -15.5333 256.612 -15.5462 256.651L-41.2233 311.799C-41.2621 311.864 -41.2104 311.954 -41.1329 311.954H5.50705C5.50705 311.954 5.58453 311.928 5.59744 311.89L41.9303 234.008C41.969 233.944 41.9174 233.853 41.8399 233.853H-4.8C-4.8 233.853 -4.8775 233.879 -4.89042 233.918L-11.3872 247.847C-11.413 247.911 -11.3743 247.989 -11.2968 248.002H-11.3097Z" fill="url(#paint81_linear_147_403)"/>
<path d="M-50.7037 256.535L-25.8015 203.155C-25.7628 203.09 -25.8144 203 -25.8919 203H-41.5591C-41.5591 203 -41.6366 203.026 -41.6495 203.065L-66.5646 256.444C-66.6034 256.509 -66.5517 256.599 -66.4742 256.599H-50.807C-50.807 256.599 -50.7295 256.573 -50.7166 256.535H-50.7037Z" fill="url(#paint82_linear_147_403)"/>
<path d="M-55.9089 289.221H-40.3192C-40.3192 289.221 -40.2417 289.195 -40.2288 289.156L-0.0985489 203.155C-0.0597992 203.09 -0.111473 203 -0.188972 203H-15.7787C-15.7787 203 -15.8561 203.026 -15.8691 203.065L-55.9993 289.066C-56.038 289.131 -55.9864 289.221 -55.9089 289.221Z" fill="url(#paint83_linear_147_403)"/>
<path d="M3.63766 406.861H19.0595C19.137 406.861 19.1886 406.938 19.1499 407.016L12.6918 420.919C12.6918 420.919 12.6402 420.984 12.6014 420.984L-2.82035 420.958C-2.89785 420.958 -2.94955 420.88 -2.9108 420.803L3.54727 406.925C3.54727 406.925 3.59892 406.861 3.63766 406.861Z" fill="url(#paint84_linear_147_403)"/>
<path d="M52.3958 357.018C54.669 357.096 81.0566 357.018 83.3298 357.018C83.4073 357.018 83.4589 357.096 83.4202 357.16C82.1544 360.078 61.127 404.924 60.2487 406.796C60.2358 406.835 60.1971 406.861 60.1583 406.861H44.8011C44.7236 406.861 44.672 406.783 44.7108 406.706L63.8136 365.758C63.8524 365.693 63.8007 365.603 63.7232 365.603H48.2497C48.2497 365.603 48.1722 365.629 48.1593 365.667L22.4822 420.816C22.4435 420.88 22.4951 420.971 22.5726 420.971H69.2125C69.2125 420.971 69.29 420.945 69.3029 420.906L105.636 343.025C105.675 342.96 105.623 342.87 105.545 342.87H58.9055C58.9055 342.87 58.828 342.895 58.8151 342.934L52.3183 356.863C52.2925 356.928 52.3312 357.005 52.4087 357.018H52.3958Z" fill="url(#paint85_linear_147_403)"/>
<path d="M13.0018 365.551L37.904 312.171C37.9427 312.107 37.8911 312.016 37.8136 312.016H22.1464C22.1464 312.016 22.0689 312.042 22.056 312.081L-2.85914 365.461C-2.89789 365.525 -2.84621 365.616 -2.76871 365.616H12.8985C12.8985 365.616 12.976 365.59 12.9889 365.551H13.0018Z" fill="url(#paint86_linear_147_403)"/>
<path d="M7.79663 398.237H23.3864C23.3864 398.237 23.4638 398.212 23.4767 398.173L63.6069 312.171C63.6457 312.107 63.594 312.016 63.5165 312.016H47.9268C47.9268 312.016 47.8493 312.042 47.8364 312.081L7.70621 398.083C7.66747 398.147 7.71913 398.237 7.79663 398.237Z" fill="url(#paint87_linear_147_403)"/>
<path d="M121.242 239.775H105.82C105.743 239.775 105.691 239.698 105.73 239.621L112.188 225.717C112.188 225.717 112.24 225.653 112.278 225.653L127.7 225.679C127.778 225.679 127.829 225.756 127.791 225.833L121.332 239.711C121.332 239.711 121.281 239.775 121.242 239.775Z" fill="url(#paint88_linear_147_403)"/>
<path d="M72.4839 289.618C70.2107 289.541 43.8232 289.618 41.5499 289.618C41.4724 289.618 41.4208 289.541 41.4595 289.476C42.7253 286.559 63.7526 241.712 64.6309 239.84C64.6438 239.801 64.6826 239.775 64.7214 239.775H80.0786C80.1561 239.775 80.2077 239.853 80.169 239.93L61.0661 280.879C61.0274 280.943 61.079 281.033 61.1565 281.033H76.63C76.63 281.033 76.7075 281.008 76.7204 280.969L102.398 225.821C102.436 225.756 102.385 225.666 102.307 225.666H55.6672C55.6672 225.666 55.5897 225.691 55.5768 225.73L19.2439 303.612C19.2052 303.676 19.2568 303.767 19.3343 303.767H65.9742C65.9742 303.767 66.0517 303.741 66.0647 303.702L72.5614 289.773C72.5872 289.709 72.5485 289.631 72.471 289.618H72.4839Z" fill="url(#paint89_linear_147_403)"/>
<path d="M111.878 281.085L86.9757 334.465C86.937 334.53 86.9886 334.62 87.0661 334.62H102.733C102.733 334.62 102.811 334.594 102.824 334.555L127.739 281.175C127.778 281.111 127.726 281.021 127.648 281.021H111.981C111.981 281.021 111.904 281.046 111.891 281.085H111.878Z" fill="url(#paint90_linear_147_403)"/>
<path d="M117.083 248.399H101.493C101.493 248.399 101.416 248.425 101.403 248.463L61.2728 334.465C61.234 334.53 61.2857 334.62 61.3632 334.62H76.9529C76.9529 334.62 77.0304 334.594 77.0433 334.555L117.174 248.554C117.212 248.489 117.161 248.399 117.083 248.399Z" fill="url(#paint91_linear_147_403)"/>
<path d="M-121.438 501.719H-106.017C-105.939 501.719 -105.887 501.797 -105.926 501.874L-112.384 515.777C-112.384 515.777 -112.436 515.842 -112.475 515.842L-127.896 515.816C-127.974 515.816 -128.026 515.739 -127.987 515.661L-121.529 501.784C-121.529 501.784 -121.477 501.719 -121.438 501.719Z" fill="url(#paint92_linear_147_403)"/>
<path d="M-72.6802 451.877C-70.407 451.954 -44.0195 451.877 -41.7462 451.877C-41.6687 451.877 -41.6171 451.954 -41.6558 452.019C-42.9216 454.936 -63.949 499.783 -64.8273 501.655C-64.8402 501.693 -64.8789 501.719 -64.9177 501.719H-80.2749C-80.3524 501.719 -80.404 501.642 -80.3653 501.564L-61.2624 460.616C-61.2237 460.552 -61.2753 460.461 -61.3528 460.461H-76.8263C-76.8263 460.461 -76.9038 460.487 -76.9167 460.526L-102.594 515.674C-102.633 515.739 -102.581 515.829 -102.503 515.829H-55.8635C-55.8635 515.829 -55.786 515.803 -55.7731 515.765L-19.4402 437.883C-19.4014 437.818 -19.4531 437.728 -19.5306 437.728H-66.1705C-66.1705 437.728 -66.248 437.754 -66.2609 437.793L-72.7577 451.722C-72.7835 451.786 -72.7448 451.864 -72.6673 451.877H-72.6802Z" fill="url(#paint93_linear_147_403)"/>
<path d="M-112.074 460.41L-87.1721 407.03C-87.1333 406.965 -87.185 406.875 -87.2625 406.875H-102.93C-102.93 406.875 -103.007 406.901 -103.02 406.939L-127.935 460.319C-127.974 460.384 -127.922 460.474 -127.845 460.474H-112.178C-112.178 460.474 -112.1 460.448 -112.087 460.41H-112.074Z" fill="url(#paint94_linear_147_403)"/>
<path d="M-117.279 493.096H-101.69C-101.69 493.096 -101.612 493.07 -101.599 493.031L-61.4691 407.03C-61.4303 406.965 -61.482 406.875 -61.5595 406.875H-77.1492C-77.1492 406.875 -77.2267 406.901 -77.2396 406.939L-117.37 492.941C-117.409 493.005 -117.357 493.096 -117.279 493.096Z" fill="url(#paint95_linear_147_403)"/>
</g>
<defs>
<linearGradient id="paint0_linear_147_403" x1="128.804" y1="167.842" x2="-29.1963" y2="489.842" gradientUnits="userSpaceOnUse">
<stop stop-color="#1F1F1F"/>
<stop offset="1" stop-color="#BDBDBD"/>
</linearGradient>
<linearGradient id="paint1_linear_147_403" x1="128.804" y1="167.842" x2="-29.1963" y2="489.842" gradientUnits="userSpaceOnUse">
<stop stop-color="#1F1F1F"/>
<stop offset="1" stop-color="#BDBDBD"/>
</linearGradient>
<linearGradient id="paint2_linear_147_403" x1="128.804" y1="167.842" x2="-29.1963" y2="489.842" gradientUnits="userSpaceOnUse">
<stop stop-color="#1F1F1F"/>
<stop offset="1" stop-color="#BDBDBD"/>
</linearGradient>
<linearGradient id="paint3_linear_147_403" x1="128.804" y1="167.842" x2="-29.1963" y2="489.842" gradientUnits="userSpaceOnUse">
<stop stop-color="#1F1F1F"/>
<stop offset="1" stop-color="#BDBDBD"/>
</linearGradient>
<linearGradient id="paint4_linear_147_403" x1="128.804" y1="167.842" x2="-29.1963" y2="489.842" gradientUnits="userSpaceOnUse">
<stop stop-color="#1F1F1F"/>
<stop offset="1" stop-color="#BDBDBD"/>
</linearGradient>
<linearGradient id="paint5_linear_147_403" x1="128.804" y1="167.842" x2="-29.1963" y2="489.842" gradientUnits="userSpaceOnUse">
<stop stop-color="#1F1F1F"/>
<stop offset="1" stop-color="#BDBDBD"/>
</linearGradient>
<linearGradient id="paint6_linear_147_403" x1="128.804" y1="167.842" x2="-29.1963" y2="489.842" gradientUnits="userSpaceOnUse">
<stop stop-color="#1F1F1F"/>
<stop offset="1" stop-color="#BDBDBD"/>
</linearGradient>
<linearGradient id="paint7_linear_147_403" x1="128.804" y1="167.842" x2="-29.1963" y2="489.842" gradientUnits="userSpaceOnUse">
<stop stop-color="#1F1F1F"/>
<stop offset="1" stop-color="#BDBDBD"/>
</linearGradient>
<linearGradient id="paint8_linear_147_403" x1="128.804" y1="167.842" x2="-29.1963" y2="489.842" gradientUnits="userSpaceOnUse">
<stop stop-color="#1F1F1F"/>
<stop offset="1" stop-color="#BDBDBD"/>
</linearGradient>
<linearGradient id="paint9_linear_147_403" x1="128.804" y1="167.842" x2="-29.1963" y2="489.842" gradientUnits="userSpaceOnUse">
<stop stop-color="#1F1F1F"/>
<stop offset="1" stop-color="#BDBDBD"/>
</linearGradient>
<linearGradient id="paint10_linear_147_403" x1="128.804" y1="167.842" x2="-29.1963" y2="489.842" gradientUnits="userSpaceOnUse">
<stop stop-color="#1F1F1F"/>
<stop offset="1" stop-color="#BDBDBD"/>
</linearGradient>
<linearGradient id="paint11_linear_147_403" x1="128.804" y1="167.842" x2="-29.1963" y2="489.842" gradientUnits="userSpaceOnUse">
<stop stop-color="#1F1F1F"/>
<stop offset="1" stop-color="#BDBDBD"/>
</linearGradient>
<linearGradient id="paint12_linear_147_403" x1="128.804" y1="167.842" x2="-29.1963" y2="489.842" gradientUnits="userSpaceOnUse">
<stop stop-color="#1F1F1F"/>
<stop offset="1" stop-color="#BDBDBD"/>
</linearGradient>
<linearGradient id="paint13_linear_147_403" x1="128.804" y1="167.842" x2="-29.1963" y2="489.842" gradientUnits="userSpaceOnUse">
<stop stop-color="#1F1F1F"/>
<stop offset="1" stop-color="#BDBDBD"/>
</linearGradient>
<linearGradient id="paint14_linear_147_403" x1="128.804" y1="167.842" x2="-29.1963" y2="489.842" gradientUnits="userSpaceOnUse">
<stop stop-color="#1F1F1F"/>
<stop offset="1" stop-color="#BDBDBD"/>
</linearGradient>
<linearGradient id="paint15_linear_147_403" x1="128.804" y1="167.842" x2="-29.1963" y2="489.842" gradientUnits="userSpaceOnUse">
<stop stop-color="#1F1F1F"/>
<stop offset="1" stop-color="#BDBDBD"/>
</linearGradient>
<linearGradient id="paint16_linear_147_403" x1="128.804" y1="167.842" x2="-29.1963" y2="489.842" gradientUnits="userSpaceOnUse">
<stop stop-color="#1F1F1F"/>
<stop offset="1" stop-color="#BDBDBD"/>
</linearGradient>
<linearGradient id="paint17_linear_147_403" x1="128.804" y1="167.842" x2="-29.1963" y2="489.842" gradientUnits="userSpaceOnUse">
<stop stop-color="#1F1F1F"/>
<stop offset="1" stop-color="#BDBDBD"/>
</linearGradient>
<linearGradient id="paint18_linear_147_403" x1="128.804" y1="167.842" x2="-29.1963" y2="489.842" gradientUnits="userSpaceOnUse">
<stop stop-color="#1F1F1F"/>
<stop offset="1" stop-color="#BDBDBD"/>
</linearGradient>
<linearGradient id="paint19_linear_147_403" x1="128.804" y1="167.842" x2="-29.1963" y2="489.842" gradientUnits="userSpaceOnUse">
<stop stop-color="#1F1F1F"/>
<stop offset="1" stop-color="#BDBDBD"/>
</linearGradient>
<linearGradient id="paint20_linear_147_403" x1="128.804" y1="167.842" x2="-29.1963" y2="489.842" gradientUnits="userSpaceOnUse">
<stop stop-color="#1F1F1F"/>
<stop offset="1" stop-color="#BDBDBD"/>
</linearGradient>
<linearGradient id="paint21_linear_147_403" x1="128.804" y1="167.842" x2="-29.1963" y2="489.842" gradientUnits="userSpaceOnUse">
<stop stop-color="#1F1F1F"/>
<stop offset="1" stop-color="#BDBDBD"/>
</linearGradient>
<linearGradient id="paint22_linear_147_403" x1="128.804" y1="167.842" x2="-29.1963" y2="489.842" gradientUnits="userSpaceOnUse">
<stop stop-color="#1F1F1F"/>
<stop offset="1" stop-color="#BDBDBD"/>
</linearGradient>
<linearGradient id="paint23_linear_147_403" x1="128.804" y1="167.842" x2="-29.1963" y2="489.842" gradientUnits="userSpaceOnUse">
<stop stop-color="#1F1F1F"/>
<stop offset="1" stop-color="#BDBDBD"/>
</linearGradient>
<linearGradient id="paint24_linear_147_403" x1="128.804" y1="167.842" x2="-29.1963" y2="489.842" gradientUnits="userSpaceOnUse">
<stop stop-color="#1F1F1F"/>
<stop offset="1" stop-color="#BDBDBD"/>
</linearGradient>
<linearGradient id="paint25_linear_147_403" x1="128.804" y1="167.842" x2="-29.1963" y2="489.842" gradientUnits="userSpaceOnUse">
<stop stop-color="#1F1F1F"/>
<stop offset="1" stop-color="#BDBDBD"/>
</linearGradient>
<linearGradient id="paint26_linear_147_403" x1="128.804" y1="167.842" x2="-29.1963" y2="489.842" gradientUnits="userSpaceOnUse">
<stop stop-color="#1F1F1F"/>
<stop offset="1" stop-color="#BDBDBD"/>
</linearGradient>
<linearGradient id="paint27_linear_147_403" x1="128.804" y1="167.842" x2="-29.1963" y2="489.842" gradientUnits="userSpaceOnUse">
<stop stop-color="#1F1F1F"/>
<stop offset="1" stop-color="#BDBDBD"/>
</linearGradient>
<linearGradient id="paint28_linear_147_403" x1="128.804" y1="167.842" x2="-29.1963" y2="489.842" gradientUnits="userSpaceOnUse">
<stop stop-color="#1F1F1F"/>
<stop offset="1" stop-color="#BDBDBD"/>
</linearGradient>
<linearGradient id="paint29_linear_147_403" x1="128.804" y1="167.842" x2="-29.1963" y2="489.842" gradientUnits="userSpaceOnUse">
<stop stop-color="#1F1F1F"/>
<stop offset="1" stop-color="#BDBDBD"/>
</linearGradient>
<linearGradient id="paint30_linear_147_403" x1="128.804" y1="167.842" x2="-29.1963" y2="489.842" gradientUnits="userSpaceOnUse">
<stop stop-color="#1F1F1F"/>
<stop offset="1" stop-color="#BDBDBD"/>
</linearGradient>
<linearGradient id="paint31_linear_147_403" x1="128.804" y1="167.842" x2="-29.1963" y2="489.842" gradientUnits="userSpaceOnUse">
<stop stop-color="#1F1F1F"/>
<stop offset="1" stop-color="#BDBDBD"/>
</linearGradient>
<linearGradient id="paint32_linear_147_403" x1="128.804" y1="167.842" x2="-29.1963" y2="489.842" gradientUnits="userSpaceOnUse">
<stop stop-color="#1F1F1F"/>
<stop offset="1" stop-color="#BDBDBD"/>
</linearGradient>
<linearGradient id="paint33_linear_147_403" x1="128.804" y1="167.842" x2="-29.1963" y2="489.842" gradientUnits="userSpaceOnUse">
<stop stop-color="#1F1F1F"/>
<stop offset="1" stop-color="#BDBDBD"/>
</linearGradient>
<linearGradient id="paint34_linear_147_403" x1="128.804" y1="167.842" x2="-29.1963" y2="489.842" gradientUnits="userSpaceOnUse">
<stop stop-color="#1F1F1F"/>
<stop offset="1" stop-color="#BDBDBD"/>
</linearGradient>
<linearGradient id="paint35_linear_147_403" x1="128.804" y1="167.842" x2="-29.1963" y2="489.842" gradientUnits="userSpaceOnUse">
<stop stop-color="#1F1F1F"/>
<stop offset="1" stop-color="#BDBDBD"/>
</linearGradient>
<linearGradient id="paint36_linear_147_403" x1="128.804" y1="167.842" x2="-29.1963" y2="489.842" gradientUnits="userSpaceOnUse">
<stop stop-color="#1F1F1F"/>
<stop offset="1" stop-color="#BDBDBD"/>
</linearGradient>
<linearGradient id="paint37_linear_147_403" x1="128.804" y1="167.842" x2="-29.1963" y2="489.842" gradientUnits="userSpaceOnUse">
<stop stop-color="#1F1F1F"/>
<stop offset="1" stop-color="#BDBDBD"/>
</linearGradient>
<linearGradient id="paint38_linear_147_403" x1="128.804" y1="167.842" x2="-29.1963" y2="489.842" gradientUnits="userSpaceOnUse">
<stop stop-color="#1F1F1F"/>
<stop offset="1" stop-color="#BDBDBD"/>
</linearGradient>
<linearGradient id="paint39_linear_147_403" x1="128.804" y1="167.842" x2="-29.1963" y2="489.842" gradientUnits="userSpaceOnUse">
<stop stop-color="#1F1F1F"/>
<stop offset="1" stop-color="#BDBDBD"/>
</linearGradient>
<linearGradient id="paint40_linear_147_403" x1="128.804" y1="167.842" x2="-29.1963" y2="489.842" gradientUnits="userSpaceOnUse">
<stop stop-color="#1F1F1F"/>
<stop offset="1" stop-color="#BDBDBD"/>
</linearGradient>
<linearGradient id="paint41_linear_147_403" x1="128.804" y1="167.842" x2="-29.1963" y2="489.842" gradientUnits="userSpaceOnUse">
<stop stop-color="#1F1F1F"/>
<stop offset="1" stop-color="#BDBDBD"/>
</linearGradient>
<linearGradient id="paint42_linear_147_403" x1="128.804" y1="167.842" x2="-29.1963" y2="489.842" gradientUnits="userSpaceOnUse">
<stop stop-color="#1F1F1F"/>
<stop offset="1" stop-color="#BDBDBD"/>
</linearGradient>
<linearGradient id="paint43_linear_147_403" x1="128.804" y1="167.842" x2="-29.1963" y2="489.842" gradientUnits="userSpaceOnUse">
<stop stop-color="#1F1F1F"/>
<stop offset="1" stop-color="#BDBDBD"/>
</linearGradient>
<linearGradient id="paint44_linear_147_403" x1="128.804" y1="167.842" x2="-29.1963" y2="489.842" gradientUnits="userSpaceOnUse">
<stop stop-color="#1F1F1F"/>
<stop offset="1" stop-color="#BDBDBD"/>
</linearGradient>
<linearGradient id="paint45_linear_147_403" x1="128.804" y1="167.842" x2="-29.1963" y2="489.842" gradientUnits="userSpaceOnUse">
<stop stop-color="#1F1F1F"/>
<stop offset="1" stop-color="#BDBDBD"/>
</linearGradient>
<linearGradient id="paint46_linear_147_403" x1="128.804" y1="167.842" x2="-29.1963" y2="489.842" gradientUnits="userSpaceOnUse">
<stop stop-color="#1F1F1F"/>
<stop offset="1" stop-color="#BDBDBD"/>
</linearGradient>
<linearGradient id="paint47_linear_147_403" x1="128.804" y1="167.842" x2="-29.1963" y2="489.842" gradientUnits="userSpaceOnUse">
<stop stop-color="#1F1F1F"/>
<stop offset="1" stop-color="#BDBDBD"/>
</linearGradient>
<linearGradient id="paint48_linear_147_403" x1="128.804" y1="167.842" x2="-29.1963" y2="489.842" gradientUnits="userSpaceOnUse">
<stop stop-color="#1F1F1F"/>
<stop offset="1" stop-color="#BDBDBD"/>
</linearGradient>
<linearGradient id="paint49_linear_147_403" x1="128.804" y1="167.842" x2="-29.1963" y2="489.842" gradientUnits="userSpaceOnUse">
<stop stop-color="#1F1F1F"/>
<stop offset="1" stop-color="#BDBDBD"/>
</linearGradient>
<linearGradient id="paint50_linear_147_403" x1="128.804" y1="167.842" x2="-29.1963" y2="489.842" gradientUnits="userSpaceOnUse">
<stop stop-color="#1F1F1F"/>
<stop offset="1" stop-color="#BDBDBD"/>
</linearGradient>
<linearGradient id="paint51_linear_147_403" x1="128.804" y1="167.842" x2="-29.1963" y2="489.842" gradientUnits="userSpaceOnUse">
<stop stop-color="#1F1F1F"/>
<stop offset="1" stop-color="#BDBDBD"/>
</linearGradient>
<linearGradient id="paint52_linear_147_403" x1="128.804" y1="167.842" x2="-29.1963" y2="489.842" gradientUnits="userSpaceOnUse">
<stop stop-color="#1F1F1F"/>
<stop offset="1" stop-color="#BDBDBD"/>
</linearGradient>
<linearGradient id="paint53_linear_147_403" x1="128.804" y1="167.842" x2="-29.1963" y2="489.842" gradientUnits="userSpaceOnUse">
<stop stop-color="#1F1F1F"/>
<stop offset="1" stop-color="#BDBDBD"/>
</linearGradient>
<linearGradient id="paint54_linear_147_403" x1="128.804" y1="167.842" x2="-29.1963" y2="489.842" gradientUnits="userSpaceOnUse">
<stop stop-color="#1F1F1F"/>
<stop offset="1" stop-color="#BDBDBD"/>
</linearGradient>
<linearGradient id="paint55_linear_147_403" x1="128.804" y1="167.842" x2="-29.1963" y2="489.842" gradientUnits="userSpaceOnUse">
<stop stop-color="#1F1F1F"/>
<stop offset="1" stop-color="#BDBDBD"/>
</linearGradient>
<linearGradient id="paint56_linear_147_403" x1="128.804" y1="167.842" x2="-29.1963" y2="489.842" gradientUnits="userSpaceOnUse">
<stop stop-color="#1F1F1F"/>
<stop offset="1" stop-color="#BDBDBD"/>
</linearGradient>
<linearGradient id="paint57_linear_147_403" x1="128.804" y1="167.842" x2="-29.1963" y2="489.842" gradientUnits="userSpaceOnUse">
<stop stop-color="#1F1F1F"/>
<stop offset="1" stop-color="#BDBDBD"/>
</linearGradient>
<linearGradient id="paint58_linear_147_403" x1="128.804" y1="167.842" x2="-29.1963" y2="489.842" gradientUnits="userSpaceOnUse">
<stop stop-color="#1F1F1F"/>
<stop offset="1" stop-color="#BDBDBD"/>
</linearGradient>
<linearGradient id="paint59_linear_147_403" x1="128.804" y1="167.842" x2="-29.1963" y2="489.842" gradientUnits="userSpaceOnUse">
<stop stop-color="#1F1F1F"/>
<stop offset="1" stop-color="#BDBDBD"/>
</linearGradient>
<linearGradient id="paint60_linear_147_403" x1="128.804" y1="167.842" x2="-29.1963" y2="489.842" gradientUnits="userSpaceOnUse">
<stop stop-color="#1F1F1F"/>
<stop offset="1" stop-color="#BDBDBD"/>
</linearGradient>
<linearGradient id="paint61_linear_147_403" x1="128.804" y1="167.842" x2="-29.1963" y2="489.842" gradientUnits="userSpaceOnUse">
<stop stop-color="#1F1F1F"/>
<stop offset="1" stop-color="#BDBDBD"/>
</linearGradient>
<linearGradient id="paint62_linear_147_403" x1="128.804" y1="167.842" x2="-29.1963" y2="489.842" gradientUnits="userSpaceOnUse">
<stop stop-color="#1F1F1F"/>
<stop offset="1" stop-color="#BDBDBD"/>
</linearGradient>
<linearGradient id="paint63_linear_147_403" x1="128.804" y1="167.842" x2="-29.1963" y2="489.842" gradientUnits="userSpaceOnUse">
<stop stop-color="#1F1F1F"/>
<stop offset="1" stop-color="#BDBDBD"/>
</linearGradient>
<linearGradient id="paint64_linear_147_403" x1="128.804" y1="167.842" x2="-29.1963" y2="489.842" gradientUnits="userSpaceOnUse">
<stop stop-color="#1F1F1F"/>
<stop offset="1" stop-color="#BDBDBD"/>
</linearGradient>
<linearGradient id="paint65_linear_147_403" x1="128.804" y1="167.842" x2="-29.1963" y2="489.842" gradientUnits="userSpaceOnUse">
<stop stop-color="#1F1F1F"/>
<stop offset="1" stop-color="#BDBDBD"/>
</linearGradient>
<linearGradient id="paint66_linear_147_403" x1="128.804" y1="167.842" x2="-29.1963" y2="489.842" gradientUnits="userSpaceOnUse">
<stop stop-color="#1F1F1F"/>
<stop offset="1" stop-color="#BDBDBD"/>
</linearGradient>
<linearGradient id="paint67_linear_147_403" x1="128.804" y1="167.842" x2="-29.1963" y2="489.842" gradientUnits="userSpaceOnUse">
<stop stop-color="#1F1F1F"/>
<stop offset="1" stop-color="#BDBDBD"/>
</linearGradient>
<linearGradient id="paint68_linear_147_403" x1="128.804" y1="167.842" x2="-29.1963" y2="489.842" gradientUnits="userSpaceOnUse">
<stop stop-color="#1F1F1F"/>
<stop offset="1" stop-color="#BDBDBD"/>
</linearGradient>
<linearGradient id="paint69_linear_147_403" x1="128.804" y1="167.842" x2="-29.1963" y2="489.842" gradientUnits="userSpaceOnUse">
<stop stop-color="#1F1F1F"/>
<stop offset="1" stop-color="#BDBDBD"/>
</linearGradient>
<linearGradient id="paint70_linear_147_403" x1="128.804" y1="167.842" x2="-29.1963" y2="489.842" gradientUnits="userSpaceOnUse">
<stop stop-color="#1F1F1F"/>
<stop offset="1" stop-color="#BDBDBD"/>
</linearGradient>
<linearGradient id="paint71_linear_147_403" x1="128.804" y1="167.842" x2="-29.1963" y2="489.842" gradientUnits="userSpaceOnUse">
<stop stop-color="#1F1F1F"/>
<stop offset="1" stop-color="#BDBDBD"/>
</linearGradient>
<linearGradient id="paint72_linear_147_403" x1="128.804" y1="167.842" x2="-29.1963" y2="489.842" gradientUnits="userSpaceOnUse">
<stop stop-color="#1F1F1F"/>
<stop offset="1" stop-color="#BDBDBD"/>
</linearGradient>
<linearGradient id="paint73_linear_147_403" x1="128.804" y1="167.842" x2="-29.1963" y2="489.842" gradientUnits="userSpaceOnUse">
<stop stop-color="#1F1F1F"/>
<stop offset="1" stop-color="#BDBDBD"/>
</linearGradient>
<linearGradient id="paint74_linear_147_403" x1="128.804" y1="167.842" x2="-29.1963" y2="489.842" gradientUnits="userSpaceOnUse">
<stop stop-color="#1F1F1F"/>
<stop offset="1" stop-color="#BDBDBD"/>
</linearGradient>
<linearGradient id="paint75_linear_147_403" x1="128.804" y1="167.842" x2="-29.1963" y2="489.842" gradientUnits="userSpaceOnUse">
<stop stop-color="#1F1F1F"/>
<stop offset="1" stop-color="#BDBDBD"/>
</linearGradient>
<linearGradient id="paint76_linear_147_403" x1="128.804" y1="167.842" x2="-29.1963" y2="489.842" gradientUnits="userSpaceOnUse">
<stop stop-color="#1F1F1F"/>
<stop offset="1" stop-color="#BDBDBD"/>
</linearGradient>
<linearGradient id="paint77_linear_147_403" x1="128.804" y1="167.842" x2="-29.1963" y2="489.842" gradientUnits="userSpaceOnUse">
<stop stop-color="#1F1F1F"/>
<stop offset="1" stop-color="#BDBDBD"/>
</linearGradient>
<linearGradient id="paint78_linear_147_403" x1="128.804" y1="167.842" x2="-29.1963" y2="489.842" gradientUnits="userSpaceOnUse">
<stop stop-color="#1F1F1F"/>
<stop offset="1" stop-color="#BDBDBD"/>
</linearGradient>
<linearGradient id="paint79_linear_147_403" x1="128.804" y1="167.842" x2="-29.1963" y2="489.842" gradientUnits="userSpaceOnUse">
<stop stop-color="#1F1F1F"/>
<stop offset="1" stop-color="#BDBDBD"/>
</linearGradient>
<linearGradient id="paint80_linear_147_403" x1="128.804" y1="167.842" x2="-29.1963" y2="489.842" gradientUnits="userSpaceOnUse">
<stop stop-color="#1F1F1F"/>
<stop offset="1" stop-color="#BDBDBD"/>
</linearGradient>
<linearGradient id="paint81_linear_147_403" x1="128.804" y1="167.842" x2="-29.1963" y2="489.842" gradientUnits="userSpaceOnUse">
<stop stop-color="#1F1F1F"/>
<stop offset="1" stop-color="#BDBDBD"/>
</linearGradient>
<linearGradient id="paint82_linear_147_403" x1="128.804" y1="167.842" x2="-29.1963" y2="489.842" gradientUnits="userSpaceOnUse">
<stop stop-color="#1F1F1F"/>
<stop offset="1" stop-color="#BDBDBD"/>
</linearGradient>
<linearGradient id="paint83_linear_147_403" x1="128.804" y1="167.842" x2="-29.1963" y2="489.842" gradientUnits="userSpaceOnUse">
<stop stop-color="#1F1F1F"/>
<stop offset="1" stop-color="#BDBDBD"/>
</linearGradient>
<linearGradient id="paint84_linear_147_403" x1="128.804" y1="167.842" x2="-29.1963" y2="489.842" gradientUnits="userSpaceOnUse">
<stop stop-color="#1F1F1F"/>
<stop offset="1" stop-color="#BDBDBD"/>
</linearGradient>
<linearGradient id="paint85_linear_147_403" x1="128.804" y1="167.842" x2="-29.1963" y2="489.842" gradientUnits="userSpaceOnUse">
<stop stop-color="#1F1F1F"/>
<stop offset="1" stop-color="#BDBDBD"/>
</linearGradient>
<linearGradient id="paint86_linear_147_403" x1="128.804" y1="167.842" x2="-29.1963" y2="489.842" gradientUnits="userSpaceOnUse">
<stop stop-color="#1F1F1F"/>
<stop offset="1" stop-color="#BDBDBD"/>
</linearGradient>
<linearGradient id="paint87_linear_147_403" x1="128.804" y1="167.842" x2="-29.1963" y2="489.842" gradientUnits="userSpaceOnUse">
<stop stop-color="#1F1F1F"/>
<stop offset="1" stop-color="#BDBDBD"/>
</linearGradient>
<linearGradient id="paint88_linear_147_403" x1="128.804" y1="167.842" x2="-29.1963" y2="489.842" gradientUnits="userSpaceOnUse">
<stop stop-color="#1F1F1F"/>
<stop offset="1" stop-color="#BDBDBD"/>
</linearGradient>
<linearGradient id="paint89_linear_147_403" x1="128.804" y1="167.842" x2="-29.1963" y2="489.842" gradientUnits="userSpaceOnUse">
<stop stop-color="#1F1F1F"/>
<stop offset="1" stop-color="#BDBDBD"/>
</linearGradient>
<linearGradient id="paint90_linear_147_403" x1="128.804" y1="167.842" x2="-29.1963" y2="489.842" gradientUnits="userSpaceOnUse">
<stop stop-color="#1F1F1F"/>
<stop offset="1" stop-color="#BDBDBD"/>
</linearGradient>
<linearGradient id="paint91_linear_147_403" x1="128.804" y1="167.842" x2="-29.1963" y2="489.842" gradientUnits="userSpaceOnUse">
<stop stop-color="#1F1F1F"/>
<stop offset="1" stop-color="#BDBDBD"/>
</linearGradient>
<linearGradient id="paint92_linear_147_403" x1="128.804" y1="167.842" x2="-29.1963" y2="489.842" gradientUnits="userSpaceOnUse">
<stop stop-color="#1F1F1F"/>
<stop offset="1" stop-color="#BDBDBD"/>
</linearGradient>
<linearGradient id="paint93_linear_147_403" x1="128.804" y1="167.842" x2="-29.1963" y2="489.842" gradientUnits="userSpaceOnUse">
<stop stop-color="#1F1F1F"/>
<stop offset="1" stop-color="#BDBDBD"/>
</linearGradient>
<linearGradient id="paint94_linear_147_403" x1="128.804" y1="167.842" x2="-29.1963" y2="489.842" gradientUnits="userSpaceOnUse">
<stop stop-color="#1F1F1F"/>
<stop offset="1" stop-color="#BDBDBD"/>
</linearGradient>
<linearGradient id="paint95_linear_147_403" x1="128.804" y1="167.842" x2="-29.1963" y2="489.842" gradientUnits="userSpaceOnUse">
<stop stop-color="#1F1F1F"/>
<stop offset="1" stop-color="#BDBDBD"/>
</linearGradient>
</defs>
</svg>
