<svg width="652" height="661" viewBox="0 0 652 661" fill="none" xmlns="http://www.w3.org/2000/svg">
<g filter="url(#filter0_f_0_1)">
<path fill-rule="evenodd" clip-rule="evenodd" d="M397.34 243.015C406.735 189.92 389.873 140.428 348.273 115.578C285.837 78.2799 191.32 110.615 137.164 187.801C83.0075 264.987 89.72 357.794 152.156 395.092C154.749 396.641 157.398 398.07 160.096 399.381C157.008 409.725 155.113 420.235 154.541 430.793C149.881 516.82 234.848 573.459 344.32 557.299C453.791 541.14 546.313 458.301 550.973 372.274C555.105 295.986 488.757 242.809 397.34 243.015Z" fill="url(#paint0_linear_0_1)" fill-opacity="0.5"/>
</g>
<g style="mix-blend-mode:screen">
<path fill-rule="evenodd" clip-rule="evenodd" d="M290.132 290.773L387.88 89H397.997L398.802 89.3899L299.132 295.133L504.875 394.803L500.515 403.803L294.772 304.132L192.619 515H182.743L181.742 514.515L285.772 299.773L71.03 195.743L75.3898 186.743L290.132 290.773Z" fill="#B6D6E6"/>
</g>
<defs>
<filter id="filter0_f_0_1" x="0.55957" y="0.0806122" width="650.596" height="659.971" filterUnits="userSpaceOnUse" color-interpolation-filters="sRGB">
<feFlood flood-opacity="0" result="BackgroundImageFix"/>
<feBlend mode="normal" in="SourceGraphic" in2="BackgroundImageFix" result="shape"/>
<feGaussianBlur stdDeviation="50" result="effect1_foregroundBlur_0_1"/>
</filter>
<linearGradient id="paint0_linear_0_1" x1="422.835" y1="307.03" x2="467.445" y2="578.181" gradientUnits="userSpaceOnUse">
<stop stop-color="#CBE1E5"/>
<stop offset="1" stop-color="#D0D0D0"/>
</linearGradient>
</defs>
</svg>
