      <svg
        width="1440"
        height="450"
        viewBox="0 0 1440 450"
        fill="none"
        xmlns="http://www.w3.org/2000/svg"
      >
        <g opacity="0.3">
          <mask
            id="mask0_146_1364"
            style="mask-type:alpha"
            maskUnits="userSpaceOnUse"
            x="-196"
            y="0"
            width="491"
            height="450"
          >
            <path
              d="M-45.3057 389.54C-45.0736 389.54 -44.9188 389.78 -45.0349 390.02L-64.3759 433.048C-64.3759 433.048 -64.5306 433.248 -64.6467 433.248L-110.833 433.168C-111.065 433.168 -111.22 432.929 -111.104 432.689L-91.7628 389.74C-91.7628 389.74 -91.6081 389.54 -91.492 389.54H-45.3057Z"
              fill="url(#paint0_linear_146_1364)"
            />
            <path
              d="M54.5327 235.261C61.3407 235.501 140.329 235.261 147.138 235.261C147.37 235.261 147.524 235.501 147.408 235.701C143.617 244.739 80.6818 383.622 78.0514 389.38C78.0127 389.5 77.8967 389.58 77.7806 389.58H31.7877C31.5556 389.58 31.4008 389.34 31.5169 389.1L88.6889 262.334C88.805 262.134 88.6503 261.854 88.4182 261.854H42.1158C42.1158 261.854 41.8837 261.934 41.845 262.054L-34.9776 432.809C-35.0936 433.009 -34.9389 433.288 -34.7068 433.288H104.897C104.897 433.288 105.129 433.208 105.167 433.089L213.941 191.993C214.057 191.793 213.903 191.513 213.671 191.513H74.0671C74.0671 191.513 73.835 191.593 73.7964 191.713L54.3393 234.862C54.2619 235.062 54.378 235.301 54.6101 235.341L54.5327 235.261Z"
              fill="url(#paint1_linear_146_1364)"
            />
            <path
              d="M-63.4089 261.614L11.1314 96.3787C11.2475 96.1787 11.0927 95.8988 10.8606 95.8988H-36.0607C-36.0607 95.8988 -36.2928 95.9788 -36.3315 96.0988L-110.872 261.335C-110.988 261.534 -110.833 261.814 -110.601 261.814H-63.6796C-63.6796 261.814 -63.4476 261.734 -63.4089 261.614Z"
              fill="url(#paint2_linear_146_1364)"
            />
            <path
              d="M-78.959 362.867H-32.3085C-32.3085 362.867 -32.0764 362.787 -32.0377 362.667L88.1087 96.3787C88.2248 96.1787 88.07 95.8988 87.838 95.8988H41.1874C41.1874 95.8988 40.9553 95.9788 40.9166 96.0988L-79.2298 362.387C-79.3459 362.587 -79.1911 362.867 -78.959 362.867Z"
              fill="url(#paint3_linear_146_1364)"
            />
            <path
              d="M-148.498 449.8L-73.9574 284.564C-73.8413 284.364 -73.9961 284.084 -74.2281 284.084H-121.149C-121.149 284.084 -121.382 284.164 -121.42 284.284L-195.961 449.52C-196.077 449.72 -195.922 450 -195.69 450H-148.768C-148.768 450 -148.536 449.92 -148.498 449.8Z"
              fill="url(#paint4_linear_146_1364)"
            />
            <path
              d="M135.347 165.716L209.887 0.479871C210.003 0.279925 209.849 0 209.617 0H162.695C162.695 0 162.463 0.0799786 162.425 0.199946L87.8842 165.436C87.7682 165.636 87.9229 165.916 88.155 165.916H135.076C135.076 165.916 135.308 165.836 135.347 165.716Z"
              fill="url(#paint5_linear_146_1364)"
            />
            <path
              d="M220.243 165.716L294.784 0.479871C294.9 0.279925 294.745 0 294.513 0H247.591C247.591 0 247.359 0.0799786 247.321 0.199946L172.78 165.436C172.664 165.636 172.819 165.916 173.051 165.916H219.973C219.973 165.916 220.205 165.836 220.243 165.716Z"
              fill="url(#paint6_linear_146_1364)"
            />
          </mask>
          <g mask="url(#mask0_146_1364)">
            <rect
              x="-233.732"
              y="95.8784"
              width="500.802"
              height="337.35"
              fill="url(#paint7_linear_146_1364)"
            />
          </g>
          <mask
            id="mask1_146_1364"
            style="mask-type:alpha"
            maskUnits="userSpaceOnUse"
            x="128"
            y="0"
            width="491"
            height="450"
          >
            <path
              d="M278.843 389.54C279.075 389.54 279.23 389.78 279.114 390.02L259.773 433.048C259.773 433.048 259.618 433.248 259.502 433.248L213.316 433.168C213.084 433.168 212.929 432.929 213.045 432.689L232.386 389.74C232.386 389.74 232.541 389.54 232.657 389.54H278.843Z"
              fill="url(#paint8_linear_146_1364)"
            />
            <path
              d="M378.682 235.261C385.49 235.501 464.478 235.261 471.287 235.261C471.519 235.261 471.673 235.501 471.557 235.701C467.766 244.739 404.831 383.622 402.2 389.38C402.162 389.5 402.046 389.58 401.93 389.58H355.937C355.705 389.58 355.55 389.34 355.666 389.1L412.838 262.334C412.954 262.134 412.799 261.854 412.567 261.854H366.265C366.265 261.854 366.033 261.934 365.994 262.054L289.171 432.809C289.055 433.009 289.21 433.288 289.442 433.288H429.046C429.046 433.288 429.278 433.208 429.316 433.089L538.09 191.993C538.206 191.793 538.052 191.513 537.82 191.513H398.216C398.216 191.513 397.984 191.593 397.945 191.713L378.488 234.862C378.411 235.062 378.527 235.301 378.759 235.341L378.682 235.261Z"
              fill="url(#paint9_linear_146_1364)"
            />
            <path
              d="M260.74 261.614L335.28 96.3787C335.396 96.1787 335.242 95.8988 335.01 95.8988H288.088C288.088 95.8988 287.856 95.9788 287.818 96.0988L213.277 261.335C213.161 261.534 213.316 261.814 213.548 261.814H260.469C260.469 261.814 260.701 261.734 260.74 261.614Z"
              fill="url(#paint10_linear_146_1364)"
            />
            <path
              d="M245.19 362.867H291.841C291.841 362.867 292.073 362.787 292.111 362.667L412.258 96.3787C412.374 96.1787 412.219 95.8988 411.987 95.8988H365.336C365.336 95.8988 365.104 95.9788 365.066 96.0988L244.919 362.387C244.803 362.587 244.958 362.867 245.19 362.867Z"
              fill="url(#paint11_linear_146_1364)"
            />
            <path
              d="M175.651 449.8L250.192 284.564C250.308 284.364 250.153 284.084 249.921 284.084H203C203 284.084 202.767 284.164 202.729 284.284L128.188 449.52C128.072 449.72 128.227 450 128.459 450H175.381C175.381 450 175.613 449.92 175.651 449.8Z"
              fill="url(#paint12_linear_146_1364)"
            />
            <path
              d="M459.496 165.716L534.036 0.479871C534.152 0.279925 533.998 0 533.766 0H486.844C486.844 0 486.612 0.0799786 486.574 0.199946L412.033 165.436C411.917 165.636 412.072 165.916 412.304 165.916H459.225C459.225 165.916 459.457 165.836 459.496 165.716Z"
              fill="url(#paint13_linear_146_1364)"
            />
            <path
              d="M544.392 165.716L618.933 0.479871C619.049 0.279925 618.894 0 618.662 0H571.74C571.74 0 571.508 0.0799786 571.47 0.199946L496.929 165.436C496.813 165.636 496.968 165.916 497.2 165.916H544.122C544.122 165.916 544.354 165.836 544.392 165.716Z"
              fill="url(#paint14_linear_146_1364)"
            />
          </mask>
          <g mask="url(#mask1_146_1364)">
            <rect
              x="90.4174"
              y="95.8784"
              width="500.802"
              height="337.35"
              fill="url(#paint15_linear_146_1364)"
            />
          </g>
          <mask
            id="mask2_146_1364"
            style="mask-type:alpha"
            maskUnits="userSpaceOnUse"
            x="462"
            y="0"
            width="492"
            height="450"
          >
            <path
              d="M613.283 389.54C613.515 389.54 613.67 389.78 613.554 390.02L594.213 433.048C594.213 433.048 594.058 433.248 593.942 433.248L547.755 433.168C547.523 433.168 547.369 432.929 547.485 432.689L566.826 389.74C566.826 389.74 566.98 389.54 567.096 389.54H613.283Z"
              fill="url(#paint16_linear_146_1364)"
            />
            <path
              d="M713.121 235.261C719.929 235.501 798.918 235.261 805.726 235.261C805.958 235.261 806.113 235.501 805.997 235.701C802.206 244.739 739.27 383.622 736.64 389.38C736.601 389.5 736.485 389.58 736.369 389.58H690.376C690.144 389.58 689.989 389.34 690.105 389.1L747.277 262.334C747.393 262.134 747.239 261.854 747.007 261.854H700.704C700.704 261.854 700.472 261.934 700.433 262.054L623.611 432.809C623.495 433.009 623.65 433.288 623.882 433.288H763.485C763.485 433.288 763.717 433.208 763.756 433.089L872.53 191.993C872.646 191.793 872.491 191.513 872.259 191.513H732.656C732.656 191.513 732.423 191.593 732.385 191.713L712.928 234.862C712.85 235.062 712.966 235.301 713.199 235.341L713.121 235.261Z"
              fill="url(#paint17_linear_146_1364)"
            />
            <path
              d="M595.18 261.614L669.72 96.3787C669.836 96.1787 669.681 95.8988 669.449 95.8988H622.528C622.528 95.8988 622.296 95.9788 622.257 96.0988L547.717 261.335C547.601 261.534 547.755 261.814 547.987 261.814H594.909C594.909 261.814 595.141 261.734 595.18 261.614Z"
              fill="url(#paint18_linear_146_1364)"
            />
            <path
              d="M579.629 362.867H626.28C626.28 362.867 626.512 362.787 626.551 362.667L746.697 96.3787C746.813 96.1787 746.658 95.8988 746.426 95.8988H699.776C699.776 95.8988 699.544 95.9788 699.505 96.0988L579.359 362.387C579.243 362.587 579.397 362.867 579.629 362.867Z"
              fill="url(#paint19_linear_146_1364)"
            />
            <path
              d="M510.091 449.8L584.631 284.564C584.747 284.364 584.592 284.084 584.36 284.084H537.439C537.439 284.084 537.207 284.164 537.168 284.284L462.628 449.52C462.512 449.72 462.667 450 462.899 450H509.82C509.82 450 510.052 449.92 510.091 449.8Z"
              fill="url(#paint20_linear_146_1364)"
            />
            <path
              d="M793.936 165.716L868.476 0.479871C868.592 0.279925 868.437 0 868.205 0H821.284C821.284 0 821.052 0.0799786 821.013 0.199946L746.473 165.436C746.357 165.636 746.511 165.916 746.743 165.916H793.665C793.665 165.916 793.897 165.836 793.936 165.716Z"
              fill="url(#paint21_linear_146_1364)"
            />
            <path
              d="M878.832 165.716L953.372 0.479871C953.488 0.279925 953.333 0 953.101 0H906.18C906.18 0 905.948 0.0799786 905.909 0.199946L831.369 165.436C831.253 165.636 831.408 165.916 831.64 165.916H878.561C878.561 165.916 878.793 165.836 878.832 165.716Z"
              fill="url(#paint22_linear_146_1364)"
            />
          </mask>
          <g mask="url(#mask2_146_1364)">
            <rect
              x="424.857"
              y="95.8784"
              width="500.802"
              height="337.35"
              fill="url(#paint23_linear_146_1364)"
            />
          </g>
          <mask
            id="mask3_146_1364"
            style="mask-type:alpha"
            maskUnits="userSpaceOnUse"
            x="791"
            y="0"
            width="492"
            height="450"
          >
            <path
              d="M942.577 389.54C942.809 389.54 942.964 389.78 942.848 390.02L923.507 433.048C923.507 433.048 923.352 433.248 923.236 433.248L877.05 433.168C876.818 433.168 876.663 432.929 876.779 432.689L896.12 389.74C896.12 389.74 896.275 389.54 896.391 389.54H942.577Z"
              fill="url(#paint24_linear_146_1364)"
            />
            <path
              d="M1042.42 235.261C1049.22 235.501 1128.21 235.261 1135.02 235.261C1135.25 235.261 1135.41 235.501 1135.29 235.701C1131.5 244.739 1068.56 383.622 1065.93 389.38C1065.9 389.5 1065.78 389.58 1065.66 389.58H1019.67C1019.44 389.58 1019.28 389.34 1019.4 389.1L1076.57 262.334C1076.69 262.134 1076.53 261.854 1076.3 261.854H1030C1030 261.854 1029.77 261.934 1029.73 262.054L952.905 432.809C952.789 433.009 952.944 433.288 953.176 433.288H1092.78C1092.78 433.288 1093.01 433.208 1093.05 433.089L1201.82 191.993C1201.94 191.793 1201.79 191.513 1201.55 191.513H1061.95C1061.95 191.513 1061.72 191.593 1061.68 191.713L1042.22 234.862C1042.14 235.062 1042.26 235.301 1042.49 235.341L1042.42 235.261Z"
              fill="url(#paint25_linear_146_1364)"
            />
            <path
              d="M924.474 261.614L999.014 96.3787C999.13 96.1787 998.975 95.8988 998.743 95.8988H951.822C951.822 95.8988 951.59 95.9788 951.551 96.0988L877.011 261.335C876.895 261.534 877.05 261.814 877.282 261.814H924.203C924.203 261.814 924.435 261.734 924.474 261.614Z"
              fill="url(#paint26_linear_146_1364)"
            />
            <path
              d="M908.924 362.867H955.574C955.574 362.867 955.806 362.787 955.845 362.667L1075.99 96.3787C1076.11 96.1787 1075.95 95.8988 1075.72 95.8988H1029.07C1029.07 95.8988 1028.84 95.9788 1028.8 96.0988L908.653 362.387C908.537 362.587 908.692 362.867 908.924 362.867Z"
              fill="url(#paint27_linear_146_1364)"
            />
            <path
              d="M839.385 449.8L913.925 284.564C914.041 284.364 913.887 284.084 913.655 284.084H866.733C866.733 284.084 866.501 284.164 866.462 284.284L791.922 449.52C791.806 449.72 791.961 450 792.193 450H839.114C839.114 450 839.346 449.92 839.385 449.8Z"
              fill="url(#paint28_linear_146_1364)"
            />
            <path
              d="M1123.23 165.716L1197.77 0.479871C1197.89 0.279925 1197.73 0 1197.5 0H1150.58C1150.58 0 1150.35 0.0799786 1150.31 0.199946L1075.77 165.436C1075.65 165.636 1075.81 165.916 1076.04 165.916H1122.96C1122.96 165.916 1123.19 165.836 1123.23 165.716Z"
              fill="url(#paint29_linear_146_1364)"
            />
            <path
              d="M1208.13 165.716L1282.67 0.479871C1282.78 0.279925 1282.63 0 1282.4 0H1235.47C1235.47 0 1235.24 0.0799786 1235.2 0.199946L1160.66 165.436C1160.55 165.636 1160.7 165.916 1160.93 165.916H1207.86C1207.86 165.916 1208.09 165.836 1208.13 165.716Z"
              fill="url(#paint30_linear_146_1364)"
            />
          </mask>
          <g mask="url(#mask3_146_1364)">
            <rect
              x="754.151"
              y="95.8784"
              width="500.802"
              height="337.35"
              fill="url(#paint31_linear_146_1364)"
            />
          </g>
          <mask
            id="mask4_146_1364"
            style="mask-type:alpha"
            maskUnits="userSpaceOnUse"
            x="1121"
            y="0"
            width="491"
            height="450"
          >
            <path
              d="M1271.87 389.54C1272.1 389.54 1272.26 389.78 1272.14 390.02L1252.8 433.048C1252.8 433.048 1252.65 433.248 1252.53 433.248L1206.34 433.168C1206.11 433.168 1205.96 432.929 1206.07 432.689L1225.41 389.74C1225.41 389.74 1225.57 389.54 1225.68 389.54H1271.87Z"
              fill="url(#paint32_linear_146_1364)"
            />
            <path
              d="M1371.71 235.261C1378.52 235.501 1457.51 235.261 1464.31 235.261C1464.55 235.261 1464.7 235.501 1464.59 235.701C1460.79 244.739 1397.86 383.622 1395.23 389.38C1395.19 389.5 1395.07 389.58 1394.96 389.58H1348.96C1348.73 389.58 1348.58 389.34 1348.69 389.1L1405.87 262.334C1405.98 262.134 1405.83 261.854 1405.6 261.854H1359.29C1359.29 261.854 1359.06 261.934 1359.02 262.054L1282.2 432.809C1282.08 433.009 1282.24 433.288 1282.47 433.288H1422.07C1422.07 433.288 1422.31 433.208 1422.34 433.089L1531.12 191.993C1531.23 191.793 1531.08 191.513 1530.85 191.513H1391.24C1391.24 191.513 1391.01 191.593 1390.97 191.713L1371.52 234.862C1371.44 235.062 1371.55 235.301 1371.79 235.341L1371.71 235.261Z"
              fill="url(#paint33_linear_146_1364)"
            />
            <path
              d="M1253.77 261.614L1328.31 96.3787C1328.42 96.1787 1328.27 95.8988 1328.04 95.8988H1281.12C1281.12 95.8988 1280.88 95.9788 1280.85 96.0988L1206.31 261.335C1206.19 261.534 1206.34 261.814 1206.58 261.814H1253.5C1253.5 261.814 1253.73 261.734 1253.77 261.614Z"
              fill="url(#paint34_linear_146_1364)"
            />
            <path
              d="M1238.22 362.867H1284.87C1284.87 362.867 1285.1 362.787 1285.14 362.667L1405.29 96.3787C1405.4 96.1787 1405.25 95.8988 1405.01 95.8988H1358.36C1358.36 95.8988 1358.13 95.9788 1358.09 96.0988L1237.95 362.387C1237.83 362.587 1237.99 362.867 1238.22 362.867Z"
              fill="url(#paint35_linear_146_1364)"
            />
            <path
              d="M1168.68 449.8L1243.22 284.564C1243.34 284.364 1243.18 284.084 1242.95 284.084H1196.03C1196.03 284.084 1195.8 284.164 1195.76 284.284L1121.22 449.52C1121.1 449.72 1121.26 450 1121.49 450H1168.41C1168.41 450 1168.64 449.92 1168.68 449.8Z"
              fill="url(#paint36_linear_146_1364)"
            />
            <path
              d="M1452.52 165.716L1527.06 0.479871C1527.18 0.279925 1527.03 0 1526.79 0H1479.87C1479.87 0 1479.64 0.0799786 1479.6 0.199946L1405.06 165.436C1404.95 165.636 1405.1 165.916 1405.33 165.916H1452.25C1452.25 165.916 1452.49 165.836 1452.52 165.716Z"
              fill="url(#paint37_linear_146_1364)"
            />
            <path
              d="M1537.42 165.716L1611.96 0.479871C1612.08 0.279925 1611.92 0 1611.69 0H1564.77C1564.77 0 1564.54 0.0799786 1564.5 0.199946L1489.96 165.436C1489.84 165.636 1490 165.916 1490.23 165.916H1537.15C1537.15 165.916 1537.38 165.836 1537.42 165.716Z"
              fill="url(#paint38_linear_146_1364)"
            />
          </mask>
          <g mask="url(#mask4_146_1364)">
            <rect
              x="1083.45"
              y="95.8784"
              width="500.802"
              height="337.35"
              fill="url(#paint39_linear_146_1364)"
            />
          </g>
        </g>
        <defs>
          <linearGradient
            id="paint0_linear_146_1364"
            x1="49.4115"
            y1="0"
            x2="49.4115"
            y2="450"
            gradientUnits="userSpaceOnUse"
          >
            <stop stop-color="white" />
            <stop offset="0.546875" stop-color="#CBE1E5" />
            <stop offset="1" stop-color="#D9D9D9" />
          </linearGradient>
          <linearGradient
            id="paint1_linear_146_1364"
            x1="49.4115"
            y1="0"
            x2="49.4115"
            y2="450"
            gradientUnits="userSpaceOnUse"
          >
            <stop stop-color="white" />
            <stop offset="0.546875" stop-color="#CBE1E5" />
            <stop offset="1" stop-color="#D9D9D9" />
          </linearGradient>
          <linearGradient
            id="paint2_linear_146_1364"
            x1="49.4115"
            y1="0"
            x2="49.4115"
            y2="450"
            gradientUnits="userSpaceOnUse"
          >
            <stop stop-color="white" />
            <stop offset="0.546875" stop-color="#CBE1E5" />
            <stop offset="1" stop-color="#D9D9D9" />
          </linearGradient>
          <linearGradient
            id="paint3_linear_146_1364"
            x1="49.4115"
            y1="0"
            x2="49.4115"
            y2="450"
            gradientUnits="userSpaceOnUse"
          >
            <stop stop-color="white" />
            <stop offset="0.546875" stop-color="#CBE1E5" />
            <stop offset="1" stop-color="#D9D9D9" />
          </linearGradient>
          <linearGradient
            id="paint4_linear_146_1364"
            x1="49.4115"
            y1="0"
            x2="49.4115"
            y2="450"
            gradientUnits="userSpaceOnUse"
          >
            <stop stop-color="white" />
            <stop offset="0.546875" stop-color="#CBE1E5" />
            <stop offset="1" stop-color="#D9D9D9" />
          </linearGradient>
          <linearGradient
            id="paint5_linear_146_1364"
            x1="49.4115"
            y1="0"
            x2="49.4115"
            y2="450"
            gradientUnits="userSpaceOnUse"
          >
            <stop stop-color="white" />
            <stop offset="0.546875" stop-color="#CBE1E5" />
            <stop offset="1" stop-color="#D9D9D9" />
          </linearGradient>
          <linearGradient
            id="paint6_linear_146_1364"
            x1="49.4115"
            y1="0"
            x2="49.4115"
            y2="450"
            gradientUnits="userSpaceOnUse"
          >
            <stop stop-color="white" />
            <stop offset="0.546875" stop-color="#CBE1E5" />
            <stop offset="1" stop-color="#D9D9D9" />
          </linearGradient>
          <linearGradient
            id="paint7_linear_146_1364"
            x1="16.6692"
            y1="95.8784"
            x2="16.6692"
            y2="433.229"
            gradientUnits="userSpaceOnUse"
          >
            <stop stop-color="#CBE1E5" />
            <stop offset="0.0001" stop-color="#D3D3D3" />
            <stop offset="1" stop-color="#61737C" />
          </linearGradient>
          <linearGradient
            id="paint8_linear_146_1364"
            x1="373.561"
            y1="0"
            x2="373.561"
            y2="450"
            gradientUnits="userSpaceOnUse"
          >
            <stop stop-color="white" />
            <stop offset="0.546875" stop-color="#CBE1E5" />
            <stop offset="1" stop-color="#D9D9D9" />
          </linearGradient>
          <linearGradient
            id="paint9_linear_146_1364"
            x1="373.561"
            y1="0"
            x2="373.561"
            y2="450"
            gradientUnits="userSpaceOnUse"
          >
            <stop stop-color="white" />
            <stop offset="0.546875" stop-color="#CBE1E5" />
            <stop offset="1" stop-color="#D9D9D9" />
          </linearGradient>
          <linearGradient
            id="paint10_linear_146_1364"
            x1="373.561"
            y1="0"
            x2="373.561"
            y2="450"
            gradientUnits="userSpaceOnUse"
          >
            <stop stop-color="white" />
            <stop offset="0.546875" stop-color="#CBE1E5" />
            <stop offset="1" stop-color="#D9D9D9" />
          </linearGradient>
          <linearGradient
            id="paint11_linear_146_1364"
            x1="373.561"
            y1="0"
            x2="373.561"
            y2="450"
            gradientUnits="userSpaceOnUse"
          >
            <stop stop-color="white" />
            <stop offset="0.546875" stop-color="#CBE1E5" />
            <stop offset="1" stop-color="#D9D9D9" />
          </linearGradient>
          <linearGradient
            id="paint12_linear_146_1364"
            x1="373.561"
            y1="0"
            x2="373.561"
            y2="450"
            gradientUnits="userSpaceOnUse"
          >
            <stop stop-color="white" />
            <stop offset="0.546875" stop-color="#CBE1E5" />
            <stop offset="1" stop-color="#D9D9D9" />
          </linearGradient>
          <linearGradient
            id="paint13_linear_146_1364"
            x1="373.561"
            y1="0"
            x2="373.561"
            y2="450"
            gradientUnits="userSpaceOnUse"
          >
            <stop stop-color="white" />
            <stop offset="0.546875" stop-color="#CBE1E5" />
            <stop offset="1" stop-color="#D9D9D9" />
          </linearGradient>
          <linearGradient
            id="paint14_linear_146_1364"
            x1="373.561"
            y1="0"
            x2="373.561"
            y2="450"
            gradientUnits="userSpaceOnUse"
          >
            <stop stop-color="white" />
            <stop offset="0.546875" stop-color="#CBE1E5" />
            <stop offset="1" stop-color="#D9D9D9" />
          </linearGradient>
          <linearGradient
            id="paint15_linear_146_1364"
            x1="340.818"
            y1="95.8784"
            x2="340.818"
            y2="433.229"
            gradientUnits="userSpaceOnUse"
          >
            <stop stop-color="#CBE1E5" />
            <stop offset="0.0001" stop-color="#D3D3D3" />
            <stop offset="1" stop-color="#61737C" />
          </linearGradient>
          <linearGradient
            id="paint16_linear_146_1364"
            x1="708"
            y1="0"
            x2="708"
            y2="450"
            gradientUnits="userSpaceOnUse"
          >
            <stop stop-color="white" />
            <stop offset="0.546875" stop-color="#CBE1E5" />
            <stop offset="1" stop-color="#D9D9D9" />
          </linearGradient>
          <linearGradient
            id="paint17_linear_146_1364"
            x1="708"
            y1="0"
            x2="708"
            y2="450"
            gradientUnits="userSpaceOnUse"
          >
            <stop stop-color="white" />
            <stop offset="0.546875" stop-color="#CBE1E5" />
            <stop offset="1" stop-color="#D9D9D9" />
          </linearGradient>
          <linearGradient
            id="paint18_linear_146_1364"
            x1="708"
            y1="0"
            x2="708"
            y2="450"
            gradientUnits="userSpaceOnUse"
          >
            <stop stop-color="white" />
            <stop offset="0.546875" stop-color="#CBE1E5" />
            <stop offset="1" stop-color="#D9D9D9" />
          </linearGradient>
          <linearGradient
            id="paint19_linear_146_1364"
            x1="708"
            y1="0"
            x2="708"
            y2="450"
            gradientUnits="userSpaceOnUse"
          >
            <stop stop-color="white" />
            <stop offset="0.546875" stop-color="#CBE1E5" />
            <stop offset="1" stop-color="#D9D9D9" />
          </linearGradient>
          <linearGradient
            id="paint20_linear_146_1364"
            x1="708"
            y1="0"
            x2="708"
            y2="450"
            gradientUnits="userSpaceOnUse"
          >
            <stop stop-color="white" />
            <stop offset="0.546875" stop-color="#CBE1E5" />
            <stop offset="1" stop-color="#D9D9D9" />
          </linearGradient>
          <linearGradient
            id="paint21_linear_146_1364"
            x1="708"
            y1="0"
            x2="708"
            y2="450"
            gradientUnits="userSpaceOnUse"
          >
            <stop stop-color="white" />
            <stop offset="0.546875" stop-color="#CBE1E5" />
            <stop offset="1" stop-color="#D9D9D9" />
          </linearGradient>
          <linearGradient
            id="paint22_linear_146_1364"
            x1="708"
            y1="0"
            x2="708"
            y2="450"
            gradientUnits="userSpaceOnUse"
          >
            <stop stop-color="white" />
            <stop offset="0.546875" stop-color="#CBE1E5" />
            <stop offset="1" stop-color="#D9D9D9" />
          </linearGradient>
          <linearGradient
            id="paint23_linear_146_1364"
            x1="675.258"
            y1="95.8784"
            x2="675.258"
            y2="433.229"
            gradientUnits="userSpaceOnUse"
          >
            <stop stop-color="#CBE1E5" />
            <stop offset="0.0001" stop-color="#D3D3D3" />
            <stop offset="1" stop-color="#61737C" />
          </linearGradient>
          <linearGradient
            id="paint24_linear_146_1364"
            x1="1037.29"
            y1="0"
            x2="1037.29"
            y2="450"
            gradientUnits="userSpaceOnUse"
          >
            <stop stop-color="white" />
            <stop offset="0.546875" stop-color="#CBE1E5" />
            <stop offset="1" stop-color="#D9D9D9" />
          </linearGradient>
          <linearGradient
            id="paint25_linear_146_1364"
            x1="1037.29"
            y1="0"
            x2="1037.29"
            y2="450"
            gradientUnits="userSpaceOnUse"
          >
            <stop stop-color="white" />
            <stop offset="0.546875" stop-color="#CBE1E5" />
            <stop offset="1" stop-color="#D9D9D9" />
          </linearGradient>
          <linearGradient
            id="paint26_linear_146_1364"
            x1="1037.29"
            y1="0"
            x2="1037.29"
            y2="450"
            gradientUnits="userSpaceOnUse"
          >
            <stop stop-color="white" />
            <stop offset="0.546875" stop-color="#CBE1E5" />
            <stop offset="1" stop-color="#D9D9D9" />
          </linearGradient>
          <linearGradient
            id="paint27_linear_146_1364"
            x1="1037.29"
            y1="0"
            x2="1037.29"
            y2="450"
            gradientUnits="userSpaceOnUse"
          >
            <stop stop-color="white" />
            <stop offset="0.546875" stop-color="#CBE1E5" />
            <stop offset="1" stop-color="#D9D9D9" />
          </linearGradient>
          <linearGradient
            id="paint28_linear_146_1364"
            x1="1037.29"
            y1="0"
            x2="1037.29"
            y2="450"
            gradientUnits="userSpaceOnUse"
          >
            <stop stop-color="white" />
            <stop offset="0.546875" stop-color="#CBE1E5" />
            <stop offset="1" stop-color="#D9D9D9" />
          </linearGradient>
          <linearGradient
            id="paint29_linear_146_1364"
            x1="1037.29"
            y1="0"
            x2="1037.29"
            y2="450"
            gradientUnits="userSpaceOnUse"
          >
            <stop stop-color="white" />
            <stop offset="0.546875" stop-color="#CBE1E5" />
            <stop offset="1" stop-color="#D9D9D9" />
          </linearGradient>
          <linearGradient
            id="paint30_linear_146_1364"
            x1="1037.29"
            y1="0"
            x2="1037.29"
            y2="450"
            gradientUnits="userSpaceOnUse"
          >
            <stop stop-color="white" />
            <stop offset="0.546875" stop-color="#CBE1E5" />
            <stop offset="1" stop-color="#D9D9D9" />
          </linearGradient>
          <linearGradient
            id="paint31_linear_146_1364"
            x1="1004.55"
            y1="95.8784"
            x2="1004.55"
            y2="433.229"
            gradientUnits="userSpaceOnUse"
          >
            <stop stop-color="#CBE1E5" />
            <stop offset="0.0001" stop-color="#D3D3D3" />
            <stop offset="1" stop-color="#61737C" />
          </linearGradient>
          <linearGradient
            id="paint32_linear_146_1364"
            x1="1366.59"
            y1="0"
            x2="1366.59"
            y2="450"
            gradientUnits="userSpaceOnUse"
          >
            <stop stop-color="white" />
            <stop offset="0.546875" stop-color="#CBE1E5" />
            <stop offset="1" stop-color="#D9D9D9" />
          </linearGradient>
          <linearGradient
            id="paint33_linear_146_1364"
            x1="1366.59"
            y1="0"
            x2="1366.59"
            y2="450"
            gradientUnits="userSpaceOnUse"
          >
            <stop stop-color="white" />
            <stop offset="0.546875" stop-color="#CBE1E5" />
            <stop offset="1" stop-color="#D9D9D9" />
          </linearGradient>
          <linearGradient
            id="paint34_linear_146_1364"
            x1="1366.59"
            y1="0"
            x2="1366.59"
            y2="450"
            gradientUnits="userSpaceOnUse"
          >
            <stop stop-color="white" />
            <stop offset="0.546875" stop-color="#CBE1E5" />
            <stop offset="1" stop-color="#D9D9D9" />
          </linearGradient>
          <linearGradient
            id="paint35_linear_146_1364"
            x1="1366.59"
            y1="0"
            x2="1366.59"
            y2="450"
            gradientUnits="userSpaceOnUse"
          >
            <stop stop-color="white" />
            <stop offset="0.546875" stop-color="#CBE1E5" />
            <stop offset="1" stop-color="#D9D9D9" />
          </linearGradient>
          <linearGradient
            id="paint36_linear_146_1364"
            x1="1366.59"
            y1="0"
            x2="1366.59"
            y2="450"
            gradientUnits="userSpaceOnUse"
          >
            <stop stop-color="white" />
            <stop offset="0.546875" stop-color="#CBE1E5" />
            <stop offset="1" stop-color="#D9D9D9" />
          </linearGradient>
          <linearGradient
            id="paint37_linear_146_1364"
            x1="1366.59"
            y1="0"
            x2="1366.59"
            y2="450"
            gradientUnits="userSpaceOnUse"
          >
            <stop stop-color="white" />
            <stop offset="0.546875" stop-color="#CBE1E5" />
            <stop offset="1" stop-color="#D9D9D9" />
          </linearGradient>
          <linearGradient
            id="paint38_linear_146_1364"
            x1="1366.59"
            y1="0"
            x2="1366.59"
            y2="450"
            gradientUnits="userSpaceOnUse"
          >
            <stop stop-color="white" />
            <stop offset="0.546875" stop-color="#CBE1E5" />
            <stop offset="1" stop-color="#D9D9D9" />
          </linearGradient>
          <linearGradient
            id="paint39_linear_146_1364"
            x1="1333.85"
            y1="95.8784"
            x2="1333.85"
            y2="433.229"
            gradientUnits="userSpaceOnUse"
          >
            <stop stop-color="#CBE1E5" />
            <stop offset="0.0001" stop-color="#D3D3D3" />
            <stop offset="1" stop-color="#61737C" />
          </linearGradient>
        </defs>
      </svg>
