<svg width="249" height="247" viewBox="0 0 249 247" fill="none" xmlns="http://www.w3.org/2000/svg">
<path d="M102.688 121.536L125.856 144.704L149.024 121.536L145.504 118.144L128.224 135.424V99.84H123.424V135.424L106.144 118.144L102.688 121.536Z" fill="black"/>
<path d="M103.036 210.722C104.032 210.957 105.041 211.326 106.062 211.83C107.058 212.349 107.742 212.84 108.116 213.3L106.37 215.683C105.33 214.518 104.01 213.746 102.412 213.369C100.813 212.992 99.9032 213.271 99.6829 214.205C99.585 214.621 99.6753 214.982 99.9536 215.288C100.232 215.595 100.76 216.005 101.538 216.517L102.619 217.232C103.747 218.024 104.594 218.848 105.159 219.705C105.719 220.582 105.865 221.592 105.596 222.734C105.287 224.042 104.539 224.939 103.35 225.426C102.135 225.929 100.667 225.977 98.9431 225.571C98.0918 225.37 97.2833 225.081 96.5175 224.703C95.731 224.32 95.154 223.932 94.7865 223.539L96.6327 221.147C96.839 221.48 97.2212 221.811 97.7793 222.14C98.3117 222.485 98.9413 222.743 99.6681 222.914C101.142 223.262 101.985 222.989 102.195 222.096C102.313 221.598 102.206 221.167 101.875 220.805C101.539 220.462 100.962 220.03 100.142 219.508C100.064 219.468 99.7692 219.278 99.2576 218.938C98.0511 218.106 97.2043 217.281 96.7173 216.465C96.2302 215.649 96.1091 214.722 96.3539 213.684C96.6868 212.272 97.4787 211.329 98.7298 210.857C99.9601 210.38 101.395 210.335 103.036 210.722Z" fill="black"/>
<path d="M87.4057 205.277C88.7432 205.839 89.8331 206.632 90.6754 207.657C91.4897 208.693 91.9844 209.884 92.1595 211.23C92.3264 212.596 92.1001 214.017 91.4805 215.492C90.8941 216.888 90.0967 217.988 89.0885 218.791C88.0524 219.605 86.8933 220.079 85.6113 220.211C84.3096 220.336 82.9704 220.109 81.5935 219.531C80.551 219.093 79.7139 218.579 79.0821 217.99C78.4224 217.412 77.9588 216.836 77.6913 216.261L80.1854 214.288C80.6646 215.461 81.4254 216.267 82.4679 216.705C83.7267 217.233 84.8516 217.255 85.8425 216.768C86.8137 216.274 87.5678 215.387 88.1047 214.109C88.716 212.653 88.8565 211.382 88.5265 210.295C88.1767 209.199 87.3921 208.395 86.1726 207.883C85.5628 207.627 84.9356 207.468 84.2908 207.405C83.6264 207.334 83.0873 207.351 82.6735 207.455L82.4645 204.729C83.0376 204.577 83.7754 204.528 84.6778 204.583C85.5523 204.649 86.4616 204.881 87.4057 205.277Z" fill="black"/>
<path d="M72.4695 214.412L69.5254 212.602L71.0336 210.148C70.2289 210.805 69.343 211.187 68.3759 211.294C67.4088 211.401 66.5073 211.197 65.6713 210.683C65.0897 210.326 64.7234 210.025 64.5724 209.782L66.8079 207.062C66.9045 207.272 67.2253 207.544 67.7706 207.879C68.6247 208.404 69.5738 208.612 70.6178 208.503C71.6435 208.382 72.5251 207.722 73.2625 206.523L77.2174 200.089L80.1616 201.899L72.4695 214.412Z" fill="black"/>
<path d="M64.8277 190.327C65.9651 191.327 66.7488 192.471 67.179 193.758C67.6092 195.046 67.6772 196.341 67.3828 197.645C67.0885 198.949 66.4693 200.137 65.5254 201.211C64.5955 202.268 63.5108 203.033 62.2713 203.505C61.0159 203.964 59.7222 204.062 58.3903 203.799C57.0584 203.537 55.8158 202.899 54.6624 201.884C53.509 200.87 52.7253 199.726 52.3111 198.453C51.8809 197.165 51.821 195.876 52.1313 194.587C52.4257 193.283 53.0378 192.103 53.9677 191.045C54.9116 189.972 56.0114 189.206 57.2668 188.748C58.5223 188.29 59.816 188.191 61.1479 188.454C62.4638 188.702 63.6904 189.326 64.8277 190.327ZM62.8959 192.378C61.9668 191.561 60.935 191.264 59.8005 191.488C58.6501 191.698 57.6169 192.323 56.7011 193.364C55.7853 194.406 55.3058 195.532 55.2626 196.744C55.2052 197.972 55.6491 199.002 56.5943 199.833C57.5073 200.636 58.5542 200.932 59.7348 200.72C60.8993 200.494 61.9466 199.853 62.8764 198.796C63.7781 197.77 64.2426 196.645 64.2698 195.419C64.283 194.209 63.825 193.195 62.8959 192.378Z" fill="black"/>
<path d="M38.4084 197.211L36.2246 194.574L54.3394 179.573L56.5233 182.21L38.4084 197.211Z" fill="black"/>
<path d="M30.5413 186.725L28.678 183.852L48.4104 171.053L50.2737 173.926L30.5413 186.725Z" fill="black"/>
<path d="M39.5483 150.616C39.9462 151.877 40.0203 153.14 39.7705 154.405C39.4939 155.655 38.9089 156.779 38.0157 157.777C37.0957 158.761 35.8931 159.487 34.4079 159.955C32.1903 160.655 30.2245 160.593 28.5106 159.769C26.7763 158.951 25.5754 157.485 24.9079 155.369C24.5357 154.189 24.4905 153.017 24.7724 151.855C25.034 150.698 25.5172 149.819 26.2219 149.216L23.8896 150.12L15.2532 152.844L14.2327 149.61L36.663 142.534L37.6546 145.677L35.202 146.518C36.0435 146.633 36.8935 147.058 37.752 147.794C38.5901 148.536 39.1889 149.477 39.5483 150.616ZM36.5979 150.943C36.2321 149.783 35.5273 148.932 34.4835 148.389C33.4194 147.852 32.2363 147.789 30.9343 148.2L30.7206 148.267C29.8458 148.543 29.1203 148.973 28.5441 149.558C27.9679 150.142 27.586 150.811 27.3984 151.563C27.2108 152.316 27.2357 153.069 27.4732 153.821C27.884 155.123 28.6289 155.996 29.7081 156.438C30.7668 156.887 31.9676 156.9 33.3104 156.476C34.6735 156.046 35.6732 155.35 36.3095 154.389C36.919 153.414 37.0151 152.265 36.5979 150.943Z" fill="black"/>
<path d="M35.9202 132.136C36.0747 133.643 35.8722 135.014 35.3128 136.251C34.7533 137.488 33.9227 138.485 32.8207 139.241C31.7188 139.997 30.4569 140.448 29.035 140.594C27.6343 140.738 26.3189 140.562 25.0885 140.066C23.8561 139.549 22.8404 138.742 22.0416 137.644C21.2429 136.546 20.7651 135.234 20.6085 133.706C20.4518 132.178 20.6543 130.806 21.2159 129.59C21.7753 128.353 22.6071 127.367 23.7112 126.632C24.8131 125.876 26.0644 125.426 27.4651 125.282C28.887 125.137 30.2141 125.322 31.4466 125.839C32.6791 126.356 33.6948 127.163 34.4935 128.261C35.2902 129.337 35.7657 130.629 35.9202 132.136ZM33.1091 132.327C32.9829 131.097 32.4276 130.178 31.4432 129.571C30.4567 128.943 29.2737 128.7 27.8943 128.841C26.5149 128.983 25.3974 129.483 24.542 130.343C23.6653 131.205 23.2912 132.262 23.4196 133.514C23.5436 134.724 24.1106 135.652 25.1205 136.299C26.1283 136.925 27.3325 137.166 28.7331 137.022C30.0913 136.883 31.1971 136.373 32.0503 135.492C32.8824 134.613 33.2353 133.558 33.1091 132.327Z" fill="black"/>
<path d="M27.941 111.535L35.5546 116.785L35.4856 117.389L20.1918 121.859L20.6129 118.171L29.4611 115.993L21.4479 110.858L21.4624 110.731L30.3668 107.497L22.301 103.387L22.7148 99.7626L36.611 107.533L36.542 108.137L27.941 111.535Z" fill="black"/>
<path d="M24.3872 95.9409L25.4849 92.7314L28.0386 93.571C27.322 92.8976 26.8327 92.0538 26.5708 91.0398C26.3089 90.0258 26.3678 88.9637 26.7475 87.8535C27.2377 86.4203 27.9167 85.4238 28.7846 84.8639C29.6324 84.2971 30.636 84.0654 31.7956 84.1689C32.9551 84.2724 34.3928 84.6176 36.1086 85.2044L42.8 87.4931L41.6815 90.7631L35.0809 88.5055C33.3248 87.9049 32.0046 87.6449 31.1201 87.7257C30.2155 87.7996 29.5803 88.3715 29.2144 89.4413C29.0073 90.0469 28.9884 90.7281 29.1579 91.485C29.3072 92.235 29.6627 92.9428 30.2242 93.6083C30.7926 94.2537 31.5511 94.7386 32.4998 95.0631L39.4032 97.4243L38.2847 100.694L24.3872 95.9409Z" fill="black"/>
<path d="M58.9301 64.2688C58.2487 65.0332 57.4433 65.7442 56.514 66.4019C55.583 67.0295 54.826 67.3978 54.243 67.5068L52.9792 64.8369C54.4998 64.4777 55.8066 63.685 56.8997 62.4588C57.9928 61.2326 58.1811 60.3001 57.4645 59.6613C57.146 59.3774 56.7856 59.2847 56.3833 59.3834C55.981 59.482 55.3694 59.7513 54.5485 60.1912L53.4049 60.8008C52.171 61.4156 51.0428 61.7674 50.0204 61.8563C48.9822 61.9309 48.0251 61.5779 47.1493 60.7971C46.146 59.9028 45.7135 58.817 45.8518 57.5399C45.9883 56.2326 46.6457 54.9181 47.824 53.5964C48.406 52.9435 49.0455 52.3704 49.7425 51.8771C50.4537 51.3679 51.0698 51.0455 51.5908 50.9098L52.8146 53.6727C52.423 53.6951 51.9497 53.8734 51.3947 54.2074C50.838 54.5113 50.3112 54.942 49.8143 55.4993C48.8064 56.6299 48.6448 57.5005 49.3296 58.1109C49.7118 58.4516 50.1412 58.563 50.618 58.4449C51.0788 58.3127 51.7338 58.0107 52.5831 57.5389C52.6558 57.4894 52.9635 57.3207 53.506 57.0327C54.8127 56.3684 55.9408 56.0166 56.8905 55.9772C57.8401 55.9379 58.7131 56.2731 59.5093 56.9829C60.5921 57.9482 61.0431 59.0933 60.8623 60.4183C60.6956 61.7273 60.0516 63.0108 58.9301 64.2688Z" fill="black"/>
<path d="M71.1633 53.12C70.0322 54.0284 68.8156 54.6088 67.5134 54.8612C66.2144 55.0836 64.9315 54.9511 63.6645 54.4638C62.3841 53.9598 61.243 53.0841 60.2411 51.8366C59.2926 50.6557 58.7056 49.4308 58.4799 48.1618C58.2575 46.8629 58.3934 45.6182 58.8875 44.4278C59.3983 43.2241 60.2358 42.1547 61.4001 41.2196C62.2817 40.5116 63.132 40.0202 63.9511 39.7454C64.7734 39.4406 65.5011 39.3076 66.1342 39.3464L66.68 42.4788C65.4203 42.3413 64.3497 42.6266 63.4682 43.3346C62.4037 44.1895 61.8492 45.1685 61.8047 46.2713C61.7768 47.3609 62.197 48.4462 63.0653 49.5273C64.0538 50.7582 65.1047 51.4875 66.218 51.7152C67.3478 51.9296 68.4284 51.6227 69.4596 50.7944C69.9752 50.3803 70.4141 49.9047 70.7762 49.3676C71.155 48.8171 71.3973 48.3352 71.5031 47.9219L73.999 49.0366C73.8602 49.6132 73.5516 50.2852 73.0734 51.0524C72.5983 51.7896 71.9616 52.4788 71.1633 53.12Z" fill="black"/>
<path d="M70.2474 35.6361L73.2414 33.9097L74.68 36.4046C74.4855 35.384 74.5717 34.4231 74.9386 33.522C75.3056 32.6209 75.9141 31.9253 76.7642 31.4351C77.3556 31.094 77.7941 30.915 78.0798 30.898L79.4064 34.1594C79.1761 34.1445 78.7838 34.2968 78.2294 34.6165C77.3608 35.1174 76.7259 35.8529 76.3249 36.8229C75.9423 37.7823 76.1027 38.8718 76.806 40.0916L80.5785 46.6338L77.5846 48.3602L70.2474 35.6361Z" fill="black"/>
<path d="M95.0643 40.3911C93.6429 40.9145 92.2638 41.0587 90.9268 40.8236C89.5898 40.5884 88.4183 40.0309 87.4123 39.1511C86.4062 38.2712 85.6562 37.1606 85.1623 35.8194C84.6757 34.4981 84.5199 33.1801 84.695 31.8652C84.8901 30.543 85.4202 29.3589 86.2853 28.3128C87.1504 27.2667 88.3037 26.4782 89.745 25.9474C91.1864 25.4166 92.5656 25.2724 93.8825 25.5149C95.2195 25.7501 96.381 26.3112 97.367 27.1985C98.373 28.0783 99.1194 29.1789 99.6059 30.5002C100.1 31.8414 100.249 33.1732 100.054 34.4954C99.8592 35.8176 99.3291 37.0018 98.4639 38.0478C97.6188 39.0866 96.4856 39.8676 95.0643 40.3911ZM94.1812 37.7154C95.3423 37.2878 96.0946 36.522 96.4382 35.4178C96.8019 34.3064 96.7441 33.1 96.2649 31.7988C95.7857 30.4976 95.0235 29.5392 93.9785 28.9238C92.926 28.2884 91.8092 28.1881 90.6281 28.6231C89.487 29.0433 88.7284 29.8229 88.3521 30.9617C87.9958 32.0932 88.061 33.3196 88.5476 34.6409C89.0194 35.9221 89.7879 36.8667 90.853 37.4748C91.9107 38.0628 93.0201 38.143 94.1812 37.7154Z" fill="black"/>
<path d="M101.597 13.8825L104.956 13.2187L109.516 36.2924L106.157 36.9562L101.597 13.8825Z" fill="black"/>
<path d="M114.565 11.9612L117.978 11.6914L119.831 35.1383L116.418 35.408L114.565 11.9612Z" fill="black"/>
<path d="M142.022 37.0824C140.723 36.8314 139.578 36.2949 138.585 35.4728C137.617 34.6339 136.908 33.5842 136.456 32.3235C136.03 31.046 135.964 29.6427 136.26 28.1137C136.701 25.8306 137.692 24.1319 139.233 23.0174C140.778 21.882 142.639 21.5248 144.818 21.9459C146.033 22.1808 147.084 22.6991 147.972 23.5009C148.864 24.2817 149.407 25.1254 149.601 26.0321L149.918 23.5511L151.637 14.6597L154.967 15.3035L150.503 38.396L147.267 37.7704L147.696 35.2134C147.194 35.8986 146.415 36.4433 145.359 36.8476C144.307 37.2309 143.195 37.3092 142.022 37.0824ZM143.14 34.3327C144.334 34.5635 145.419 34.3494 146.393 33.6905C147.372 33.0105 147.991 32.0003 148.25 30.6598L148.293 30.4399C148.467 29.5392 148.434 28.6964 148.195 27.9114C147.956 27.1263 147.55 26.4721 146.977 25.9486C146.405 25.4251 145.731 25.0884 144.956 24.9386C143.616 24.6795 142.494 24.9189 141.591 25.6569C140.692 26.374 140.108 27.4237 139.841 28.8061C139.57 30.2094 139.705 31.4198 140.247 32.4372C140.815 33.4377 141.779 34.0695 143.14 34.3327Z" fill="black"/>
<path d="M159.999 42.6964C158.6 42.1144 157.491 41.2828 156.67 40.2018C155.849 39.1207 155.368 37.9155 155.228 36.5864C155.088 35.2572 155.293 33.9328 155.842 32.6132C156.383 31.3133 157.164 30.2405 158.186 29.395C159.228 28.5576 160.422 28.0492 161.767 27.8698C163.113 27.6903 164.495 27.8957 165.913 28.4859C167.331 29.0761 168.441 29.9076 169.242 30.9805C170.063 32.0616 170.533 33.2626 170.654 34.5836C170.794 35.9128 170.593 37.2273 170.052 38.5272C169.503 39.8468 168.708 40.9253 167.666 41.7627C166.624 42.6001 165.431 43.1085 164.085 43.2879C162.759 43.4755 161.397 43.2783 159.999 42.6964ZM161.169 40.1334C162.312 40.6088 163.384 40.5583 164.387 39.9819C165.409 39.4137 166.186 38.4895 166.719 37.2092C167.252 35.929 167.344 34.7081 166.996 33.5464C166.655 32.365 165.904 31.5325 164.742 31.0488C163.62 30.5816 162.533 30.6379 161.483 31.2176C160.453 31.8055 159.667 32.7494 159.126 34.0493C158.602 35.3099 158.523 36.5251 158.891 37.695C159.268 38.8452 160.027 39.658 161.169 40.1334Z" fill="black"/>
<path d="M181.913 45.4946L173.67 49.6878L173.172 49.3394L176.527 33.7632L179.569 35.8904L177.269 44.7077L185.601 40.1081L185.706 40.1815L184.308 49.5516L191.764 44.4176L194.753 46.5081L181.301 55.0242L180.803 54.6758L181.913 45.4946Z" fill="black"/>
<path d="M197.317 49.7992L199.616 52.2933L197.661 54.1386C198.595 53.8294 199.569 53.8012 200.586 54.0539C201.602 54.3067 202.508 54.8644 203.303 55.7272C204.33 56.8409 204.882 57.9127 204.961 58.9425C205.056 59.9579 204.781 60.9507 204.138 61.9209C203.494 62.8912 202.506 63.9908 201.173 65.2197L195.973 70.0127L193.63 67.4716L198.76 62.7436C200.125 61.4857 200.982 60.4487 201.332 59.6326C201.698 58.8021 201.498 57.9711 200.732 57.1397C200.298 56.6692 199.708 56.3281 198.962 56.1165C198.231 55.8905 197.44 55.8658 196.587 56.0424C195.749 56.2347 194.961 56.6707 194.224 57.3502L188.859 62.2951L186.517 59.7539L197.317 49.7992Z" fill="black"/>
<path d="M208.708 95.2587C208.361 94.2954 208.119 93.2486 207.984 92.1182C207.875 91.0006 207.912 90.1596 208.094 89.5951L211.043 89.7558C210.635 91.2639 210.709 92.7906 211.267 94.3358C211.824 95.881 212.554 96.4908 213.457 96.1651C213.859 96.0203 214.112 95.7476 214.217 95.3468C214.322 94.9461 214.376 94.2801 214.38 93.3488L214.389 92.0529C214.437 90.6751 214.665 89.5156 215.074 88.5743C215.503 87.6259 216.269 86.9526 217.373 86.5545C218.637 86.0985 219.798 86.2354 220.855 86.9654C221.939 87.7082 222.782 88.9125 223.382 90.5781C223.679 91.4009 223.878 92.2362 223.98 93.084C224.089 93.9518 224.079 94.6471 223.95 95.1699L220.938 94.9297C221.105 94.5747 221.173 94.0736 221.144 93.4265C221.142 92.7922 221.014 92.1239 220.761 91.4215C220.247 89.9967 219.559 89.4399 218.696 89.7512C218.214 89.9249 217.912 90.2494 217.788 90.7248C217.685 91.193 217.639 91.9128 217.649 92.8843C217.658 92.9718 217.659 93.3227 217.654 93.9369C217.616 95.4022 217.388 96.5617 216.97 97.4154C216.552 98.2691 215.842 98.877 214.838 99.2389C213.474 99.7311 212.252 99.5821 211.173 98.7919C210.102 98.0218 209.28 96.844 208.708 95.2587Z" fill="black"/>
<path d="M212.682 111.326C212.423 109.898 212.492 108.552 212.89 107.287C213.314 106.039 214.041 104.974 215.073 104.092C216.126 103.207 217.44 102.62 219.014 102.334C220.504 102.063 221.861 102.13 223.084 102.536C224.332 102.959 225.362 103.672 226.173 104.673C226.988 105.696 227.529 106.942 227.797 108.411C227.999 109.523 228.026 110.505 227.878 111.356C227.754 112.224 227.524 112.927 227.189 113.466L224.174 112.453C224.895 111.411 225.155 110.334 224.952 109.222C224.707 107.878 224.111 106.924 223.162 106.36C222.218 105.816 221.063 105.669 219.699 105.917C218.146 106.2 217.004 106.776 216.274 107.647C215.547 108.538 215.302 109.634 215.539 110.936C215.657 111.586 215.866 112.199 216.166 112.773C216.47 113.368 216.778 113.811 217.091 114.101L214.922 115.764C214.481 115.367 214.037 114.776 213.59 113.99C213.169 113.221 212.866 112.333 212.682 111.326Z" fill="black"/>
<path d="M228.491 118.85L228.583 122.304L225.704 122.381C226.694 122.696 227.498 123.23 228.115 123.981C228.733 124.733 229.055 125.6 229.081 126.581C229.099 127.263 229.047 127.734 228.926 127.993L225.426 127.606C225.549 127.411 225.602 126.993 225.585 126.353C225.559 125.351 225.214 124.442 224.553 123.628C223.891 122.834 222.857 122.456 221.449 122.494L213.9 122.694L213.809 119.239L228.491 118.85Z" fill="black"/>
<path d="M212.488 138.404C212.705 136.905 213.235 135.624 214.079 134.56C214.922 133.497 215.971 132.732 217.224 132.267C218.476 131.802 219.81 131.671 221.225 131.876C222.618 132.078 223.851 132.569 224.924 133.349C225.994 134.15 226.782 135.181 227.29 136.44C227.797 137.699 227.941 139.088 227.721 140.608C227.501 142.128 226.971 143.41 226.131 144.452C225.287 145.516 224.24 146.269 222.99 146.714C221.737 147.179 220.414 147.311 219.021 147.109C217.606 146.905 216.364 146.402 215.294 145.6C214.225 144.799 213.436 143.769 212.929 142.51C212.418 141.272 212.271 139.903 212.488 138.404ZM215.261 138.902C215.084 140.127 215.399 141.153 216.206 141.981C217.01 142.831 218.098 143.355 219.471 143.553C220.843 143.752 222.049 143.538 223.088 142.912C224.148 142.29 224.768 141.356 224.948 140.11C225.122 138.907 224.798 137.868 223.976 136.995C223.151 136.142 222.042 135.616 220.648 135.414C219.297 135.218 218.1 135.444 217.058 136.091C216.037 136.741 215.438 137.678 215.261 138.902Z" fill="black"/>
<path d="M232.683 156.776L231.667 160.046L209.207 153.063L210.224 149.793L232.683 156.776Z" fill="black"/>
<path d="M228.195 169.094L226.806 172.223L205.308 162.683L206.696 159.553L228.195 169.094Z" fill="black"/>
<path d="M193.027 181.267C193.866 180.245 194.884 179.493 196.079 179.012C197.278 178.561 198.539 178.437 199.862 178.641C201.189 178.874 202.454 179.485 203.657 180.473C205.455 181.949 206.476 183.63 206.722 185.515C206.984 187.415 206.411 189.222 205.003 190.936C204.218 191.893 203.261 192.57 202.134 192.969C201.022 193.381 200.021 193.457 199.132 193.195L201.162 194.656L208.161 200.403L206.009 203.024L187.832 188.098L189.923 185.551L191.967 187.146C191.604 186.379 191.496 185.434 191.643 184.313C191.807 183.206 192.269 182.191 193.027 181.267ZM194.912 183.56C194.14 184.5 193.812 185.556 193.927 186.727C194.058 187.911 194.651 188.937 195.707 189.803L195.88 189.945C196.589 190.527 197.345 190.9 198.149 191.064C198.954 191.227 199.722 191.182 200.455 190.928C201.188 190.674 201.805 190.242 202.306 189.632C203.173 188.577 203.496 187.477 203.278 186.331C203.076 185.199 202.431 184.186 201.342 183.293C200.238 182.386 199.109 181.928 197.956 181.92C196.807 181.942 195.792 182.489 194.912 183.56Z" fill="black"/>
<path d="M179.527 194.399C180.705 193.446 181.964 192.867 183.306 192.66C184.648 192.453 185.936 192.605 187.172 193.115C188.407 193.625 189.474 194.436 190.373 195.547C191.258 196.642 191.829 197.84 192.085 199.142C192.325 200.457 192.204 201.748 191.72 203.017C191.237 204.285 190.398 205.402 189.204 206.368C188.009 207.334 186.75 207.913 185.424 208.107C184.083 208.314 182.803 208.155 181.584 207.632C180.348 207.122 179.288 206.319 178.403 205.224C177.504 204.113 176.935 202.9 176.695 201.585C176.455 200.27 176.577 198.978 177.06 197.71C177.527 196.455 178.349 195.351 179.527 194.399ZM181.223 196.649C180.26 197.427 179.794 198.394 179.823 199.55C179.836 200.719 180.278 201.843 181.15 202.921C182.022 204 183.051 204.662 184.239 204.909C185.439 205.173 186.529 204.909 187.508 204.118C188.454 203.353 188.922 202.372 188.912 201.172C188.886 199.986 188.43 198.846 187.545 197.751C186.687 196.689 185.656 196.041 184.452 195.808C183.261 195.59 182.185 195.871 181.223 196.649Z" fill="black"/>
<path d="M166.627 212.333L166.867 203.088L167.411 202.816L179.507 213.187L176.187 214.848L169.531 208.625L169.606 218.142L169.491 218.199L161.919 212.506L162.881 221.507L159.619 223.14L158.539 207.255L159.083 206.983L166.627 212.333Z" fill="black"/>
<path d="M155.504 223.826L152.216 224.659L151.525 222.061C151.352 223.029 150.912 223.9 150.206 224.673C149.499 225.446 148.577 225.977 147.44 226.265C145.972 226.637 144.766 226.613 143.823 226.191C142.885 225.791 142.143 225.077 141.597 224.049C141.05 223.021 140.554 221.628 140.109 219.87L138.372 213.015L141.722 212.166L143.435 218.928C143.891 220.727 144.394 221.975 144.945 222.672C145.501 223.389 146.327 223.609 147.423 223.332C148.043 223.174 148.624 222.818 149.166 222.263C149.713 221.728 150.111 221.044 150.362 220.21C150.592 219.382 150.584 218.481 150.338 217.509L148.546 210.437L151.896 209.588L155.504 223.826Z" fill="black"/>
</svg>
