<svg width="267" height="266" viewBox="0 0 267 266" fill="none" xmlns="http://www.w3.org/2000/svg">
<path fill-rule="evenodd" clip-rule="evenodd" d="M133.993 212C178.176 212 213.993 176.183 213.993 132C213.993 87.8172 178.176 52 133.993 52C89.8105 52 53.9933 87.8172 53.9933 132C53.9933 176.183 89.8105 212 133.993 212ZM131.291 120.52L130.843 125.192V156.488H138.139V125.192L137.691 120.52L150.171 132.872L155.227 128.584L134.491 107.784L113.755 128.584L118.811 132.872L131.291 120.52Z" fill="black"/>
<path d="M135.606 253.921L132.75 253.871L132.757 253.487L133.026 251.812C132.922 252.258 132.699 252.658 132.357 253.012C132.007 253.366 131.582 253.643 131.082 253.842C130.583 254.041 130.065 254.136 129.529 254.127C127.993 254.1 126.859 253.54 126.126 252.447C125.393 251.362 125.043 249.855 125.077 247.928C125.101 246.56 125.322 245.392 125.739 244.423C126.156 243.462 126.729 242.736 127.457 242.245C128.186 241.753 129.031 241.516 129.99 241.533C130.822 241.548 131.51 241.816 132.053 242.337C132.595 242.867 132.964 243.521 133.158 244.301L132.91 242.04L133.004 236.689L135.907 236.74L135.606 253.921ZM130.645 243.921C130.237 243.914 129.854 244.043 129.498 244.309C129.133 244.574 128.833 245.001 128.599 245.589C128.364 246.185 128.239 246.943 128.223 247.863C128.208 248.719 128.299 249.432 128.497 250.004C128.695 250.576 128.968 250.996 129.315 251.267C129.655 251.545 130.036 251.687 130.46 251.695C130.94 251.703 131.355 251.538 131.705 251.201C132.055 250.863 132.323 250.391 132.51 249.786C132.696 249.19 132.796 248.511 132.81 247.751C132.823 247 132.746 246.334 132.581 245.755C132.407 245.184 132.154 244.735 131.824 244.41C131.494 244.092 131.1 243.929 130.645 243.921Z" fill="black"/>
<path d="M116.554 240.317C117.257 240.434 117.822 240.691 118.251 241.087C118.679 241.483 118.971 241.969 119.126 242.547C119.274 243.123 119.292 243.742 119.181 244.405C119.085 244.981 118.8 245.522 118.327 246.027C117.844 246.538 117.08 246.914 116.034 247.153C114.988 247.392 113.633 247.372 111.968 247.095L111.877 247.639C111.769 248.286 111.844 248.814 112.1 249.221C112.348 249.628 112.863 249.896 113.645 250.027C114.26 250.129 114.881 250.123 115.509 250.009C116.127 249.901 116.6 249.717 116.927 249.455L117.495 251.886C116.898 252.159 116.18 252.356 115.341 252.475C114.501 252.595 113.632 252.579 112.733 252.429C111.604 252.241 110.741 251.919 110.144 251.462C109.54 251.004 109.156 250.437 108.993 249.761C108.83 249.085 108.826 248.282 108.981 247.351L110.273 239.61L112.806 240.032L112.739 241.749C113.27 241.14 113.852 240.718 114.483 240.482C115.106 240.246 115.797 240.191 116.554 240.317ZM114.92 242.38C114.557 242.32 114.15 242.402 113.699 242.627C113.248 242.851 112.867 243.165 112.557 243.567L112.276 245.248C112.384 245.282 112.572 245.322 112.841 245.367C113.638 245.5 114.374 245.485 115.05 245.322C115.717 245.165 116.1 244.791 116.198 244.199C116.292 243.639 116.237 243.216 116.033 242.931C115.82 242.652 115.449 242.469 114.92 242.38Z" fill="black"/>
<path d="M103.047 235.585C102.482 234.915 101.762 234.438 100.887 234.154C99.9047 233.836 99.0915 233.855 98.4469 234.21C97.7947 234.562 97.2911 235.286 96.9363 236.382L96.3596 238.163C96.7766 237.524 97.2974 237.045 97.9221 236.726C98.5468 236.407 99.2815 236.384 100.126 236.658C101.024 236.949 101.754 237.408 102.316 238.036C102.871 238.661 103.209 239.472 103.332 240.471C103.447 241.467 103.29 242.627 102.861 243.951C102.425 245.298 101.864 246.353 101.18 247.115C100.494 247.885 99.739 248.372 98.916 248.577C98.093 248.781 97.2477 248.743 96.3801 248.462C95.7864 248.27 95.311 247.998 94.9538 247.647C94.5889 247.293 94.3402 246.906 94.2075 246.485C94.0648 246.068 94.0182 245.654 94.0678 245.241L93.1123 247.101L90.8747 246.377L94.379 235.554C94.7585 234.382 95.2829 233.437 95.9522 232.721C96.624 231.996 97.4207 231.535 98.3425 231.338C99.2666 231.132 100.292 231.212 101.418 231.577C102.248 231.845 102.968 232.192 103.579 232.617C104.185 233.032 104.665 233.444 105.02 233.853L103.047 235.585ZM98.831 238.711C98.1612 238.494 97.5389 238.637 96.9638 239.14C96.3864 239.651 95.9116 240.482 95.5395 241.631C95.1747 242.757 95.0589 243.699 95.1919 244.457C95.3173 245.213 95.7187 245.7 96.3961 245.919C96.8147 246.055 97.2385 246.057 97.6675 245.927C98.0964 245.797 98.51 245.494 98.9081 245.017C99.2962 244.546 99.6295 243.88 99.9079 243.02C100.292 241.833 100.38 240.873 100.172 240.141C99.9552 239.407 99.5084 238.93 98.831 238.711Z" fill="black"/>
<path d="M83.8105 229.788C84.9618 230.365 85.7908 231.086 86.2976 231.949C86.8009 232.819 87.0214 233.753 86.9592 234.751C86.8899 235.745 86.5951 236.761 86.0749 237.798C85.544 238.856 84.8684 239.721 84.0482 240.392C83.2172 241.068 82.299 241.471 81.2934 241.602C80.2843 241.74 79.2614 241.549 78.2246 241.028C76.6801 240.254 75.7995 239.252 75.583 238.025C75.3628 236.805 75.6958 235.311 76.582 233.545C76.7542 233.202 76.9622 232.823 77.206 232.408L83.6415 235.637C84.0327 234.75 84.1286 233.962 83.9292 233.271C83.719 232.584 83.1885 232.027 82.3376 231.6C81.8943 231.377 81.3703 231.235 80.7658 231.174C80.1576 231.119 79.6621 231.17 79.279 231.327L79.4434 228.859C80.7889 228.692 82.2446 229.002 83.8105 229.788ZM79.048 235.427C78.5206 236.478 78.2906 237.267 78.3578 237.793C78.4143 238.322 78.6893 238.711 79.1827 238.958C79.8763 239.306 80.5453 239.32 81.1897 238.999C81.827 238.674 82.3716 238.115 82.8234 237.321L79.048 235.427Z" fill="black"/>
<path d="M63.7284 216.533C64.4174 217.094 64.8616 217.651 65.0609 218.204C65.2602 218.758 65.2488 219.337 65.0266 219.94C64.7932 220.544 64.3611 221.234 63.7303 222.01L60.2331 226.312L61.4436 227.296L59.8539 229.251L58.5504 228.191L56.8304 230.041L54.089 229.266L56.3902 226.435L54.0996 224.573L55.6892 222.617L57.9798 224.48L61.4316 220.234C61.8555 219.712 62.0844 219.285 62.1182 218.952C62.1521 218.618 62.0262 218.335 61.7407 218.103C61.4862 217.896 61.157 217.737 60.753 217.625C60.3378 217.514 59.9628 217.462 59.6279 217.468L60.7101 215.224C61.1396 215.254 61.665 215.413 62.2862 215.701C62.9062 215.978 63.387 216.256 63.7284 216.533Z" fill="black"/>
<path d="M53.3927 206.916C54.1877 207.771 54.6839 208.67 54.8813 209.611C55.0788 210.552 54.9846 211.497 54.5988 212.445C54.2071 213.399 53.5335 214.319 52.5782 215.207C51.6228 216.095 50.6526 216.696 49.6673 217.01C48.6767 217.319 47.7167 217.332 46.7875 217.049C45.8469 216.765 44.9791 216.195 44.1842 215.34C43.3946 214.49 42.9125 213.595 42.7376 212.654C42.5515 211.713 42.6597 210.772 43.0623 209.83C43.4649 208.888 44.1321 207.985 45.064 207.119C45.9901 206.258 46.9459 205.665 47.9315 205.339C48.9113 205.019 49.8719 204.989 50.8133 205.25C51.7434 205.511 52.6032 206.066 53.3927 206.916ZM51.6017 208.514C51.0953 207.969 50.4741 207.776 49.738 207.936C48.9964 208.09 48.1626 208.597 47.2366 209.457C46.3047 210.323 45.7348 211.12 45.5268 211.848C45.3076 212.576 45.4512 213.213 45.9576 213.758C46.4912 214.332 47.1198 214.556 47.8433 214.43C48.5669 214.304 49.421 213.783 50.4056 212.868C51.3903 211.954 51.9692 211.143 52.1424 210.436C52.3156 209.729 52.1353 209.088 51.6017 208.514Z" fill="black"/>
<path d="M35.3833 204.35L33.7881 201.981L34.1066 201.767L35.6342 201.027C35.209 201.198 34.7532 201.244 34.2669 201.167C33.7762 201.083 33.306 200.893 32.8565 200.598C32.4069 200.302 32.0324 199.932 31.733 199.488C30.8751 198.214 30.6841 196.963 31.1599 195.736C31.6291 194.514 32.6633 193.364 34.2625 192.287C35.3972 191.523 36.4811 191.034 37.5141 190.821C38.5404 190.612 39.4637 190.666 40.2839 190.981C41.1041 191.297 41.7823 191.853 42.3185 192.649C42.7832 193.339 42.9574 194.056 42.841 194.8C42.718 195.549 42.3927 196.226 41.8652 196.832L43.5757 195.333L48.015 192.343L49.637 194.752L35.3833 204.35ZM40.7364 194.554C40.5085 194.215 40.1835 193.976 39.7613 193.836C39.3346 193.689 38.8131 193.688 38.197 193.833C37.5742 193.983 36.8812 194.314 36.1181 194.828C35.4081 195.306 34.8756 195.79 34.5206 196.28C34.1656 196.77 33.977 197.234 33.9546 197.674C33.9211 198.111 34.0228 198.505 34.2596 198.857C34.5277 199.255 34.9005 199.501 35.378 199.594C35.8554 199.687 36.3955 199.637 36.9981 199.444C37.5941 199.254 38.2073 198.948 38.8377 198.523C39.4615 198.103 39.9631 197.659 40.3426 197.191C40.7109 196.722 40.934 196.258 41.0118 195.801C41.0829 195.348 40.9911 194.932 40.7364 194.554Z" fill="black"/>
<path d="M17.8757 169.974L17.1072 167.223L17.4771 167.12L19.1597 166.899C18.7024 166.927 18.2552 166.828 17.818 166.601C17.3788 166.367 16.9922 166.039 16.6584 165.617C16.3246 165.195 16.0856 164.726 15.9414 164.21C15.5281 162.731 15.7404 161.484 16.5782 160.469C17.4084 159.456 18.7519 158.69 20.6088 158.172C21.9263 157.803 23.1089 157.681 24.1566 157.803C25.1965 157.928 26.056 158.269 26.7352 158.827C27.4143 159.385 27.883 160.126 28.1413 161.051C28.3652 161.852 28.3048 162.588 27.9602 163.257C27.6079 163.929 27.0861 164.469 26.3947 164.878L28.49 163.994L33.6446 162.554L34.426 165.351L17.8757 169.974ZM26.0402 162.361C25.9304 161.968 25.6972 161.638 25.3405 161.372C24.9817 161.099 24.4871 160.934 23.8566 160.877C23.2185 160.823 22.4564 160.92 21.5703 161.167C20.7459 161.398 20.0881 161.689 19.597 162.042C19.1059 162.396 18.7806 162.777 18.6211 163.187C18.4517 163.592 18.424 163.998 18.5381 164.407C18.6672 164.869 18.9437 165.219 19.3676 165.458C19.7915 165.697 20.3199 165.819 20.9528 165.825C21.5781 165.833 22.2567 165.735 22.9886 165.531C23.7129 165.328 24.3287 165.065 24.8361 164.74C25.3337 164.41 25.6913 164.04 25.9091 163.631C26.1192 163.223 26.1629 162.8 26.0402 162.361Z" fill="black"/>
<path d="M25.465 147.828C25.5535 148.535 25.4694 149.15 25.2125 149.674C24.9557 150.198 24.5728 150.617 24.0638 150.931C23.5539 151.236 22.9655 151.431 22.2987 151.515C21.7192 151.587 21.1199 151.469 20.5006 151.159C19.8724 150.843 19.2942 150.218 18.7661 149.284C18.2379 148.351 17.8689 147.047 17.6591 145.372L17.1113 145.44C16.4604 145.522 15.9763 145.744 15.6588 146.106C15.3404 146.46 15.2304 147.03 15.3289 147.816C15.4065 148.435 15.5897 149.029 15.8786 149.598C16.1586 150.159 16.4708 150.56 16.8152 150.799L14.6484 152.038C14.2156 151.544 13.822 150.912 13.4675 150.142C13.1131 149.372 12.8792 148.534 12.7658 147.629C12.6236 146.494 12.6858 145.575 12.9526 144.873C13.2183 144.162 13.6518 143.632 14.253 143.283C14.8542 142.933 15.6232 142.7 16.5598 142.583L24.3469 141.607L24.6662 144.155L23.0023 144.581C23.7376 144.916 24.3083 145.353 24.7143 145.891C25.1193 146.42 25.3695 147.066 25.465 147.828ZM23.0208 146.853C22.975 146.487 22.7799 146.121 22.4355 145.753C22.0911 145.385 21.6817 145.11 21.2073 144.927L19.5165 145.139C19.5146 145.252 19.5305 145.444 19.5643 145.713C19.6648 146.515 19.8897 147.217 20.2392 147.818C20.5797 148.412 21.0476 148.672 21.643 148.597C22.2066 148.527 22.596 148.353 22.8112 148.076C23.0176 147.792 23.0874 147.384 23.0208 146.853Z" fill="black"/>
<path d="M26.1365 133.531C26.6176 132.798 26.8688 131.972 26.8901 131.052C26.914 130.02 26.6638 129.246 26.1396 128.73C25.6156 128.206 24.7778 127.93 23.6261 127.904L21.7546 127.86C22.4857 128.077 23.0935 128.44 23.5779 128.947C24.0623 129.454 24.2942 130.152 24.2737 131.04C24.2518 131.983 24.0205 132.814 23.5798 133.532C23.1392 134.242 22.4582 134.799 21.5366 135.201C20.6152 135.596 19.4587 135.777 18.0671 135.745C16.6515 135.712 15.4806 135.477 14.5545 135.04C13.6203 134.602 12.9377 134.018 12.5065 133.288C12.0753 132.558 11.8702 131.737 11.8913 130.825C11.9058 130.201 12.0301 129.668 12.2644 129.225C12.4989 128.774 12.7991 128.425 13.1649 128.178C13.5229 127.922 13.9068 127.759 14.3166 127.688L12.2609 127.304L12.3153 124.953L23.6883 125.216C24.92 125.245 25.9749 125.477 26.853 125.914C27.7391 126.351 28.4087 126.982 28.8617 127.809C29.3227 128.636 29.5394 129.641 29.512 130.825C29.4919 131.697 29.3655 132.486 29.1331 133.193C28.9089 133.892 28.6514 134.47 28.3608 134.927L26.1365 133.531ZM21.9362 130.385C21.9525 129.681 21.6372 129.126 20.9905 128.719C20.3357 128.312 19.4045 128.094 18.1969 128.066C17.0132 128.039 16.0773 128.197 15.3891 128.541C14.7011 128.877 14.3489 129.401 14.3324 130.113C14.3223 130.553 14.4409 130.96 14.6883 131.334C14.9357 131.708 15.3446 132.017 15.9151 132.262C16.4778 132.499 17.211 132.629 18.1147 132.649C19.3624 132.678 20.3071 132.488 20.9487 132.079C21.5905 131.662 21.9197 131.097 21.9362 130.385Z" fill="black"/>
<path d="M26.1914 113.441C25.9671 114.71 25.5139 115.71 24.832 116.442C24.1421 117.174 23.3101 117.652 22.3359 117.878C21.3631 118.096 20.3055 118.104 19.1632 117.902C17.9973 117.695 16.9754 117.295 16.0974 116.701C15.2129 116.098 14.5642 115.333 14.1512 114.407C13.7302 113.48 13.6208 112.445 13.8228 111.303C14.1237 109.601 14.8313 108.471 15.9456 107.913C17.052 107.353 18.5781 107.245 20.5239 107.589C20.9021 107.656 21.3247 107.747 21.7918 107.862L20.5379 114.952C21.4995 115.073 22.2827 114.94 22.8876 114.551C23.4861 114.153 23.8682 113.485 24.034 112.548C24.1203 112.06 24.1066 111.517 23.9929 110.92C23.8712 110.322 23.6804 109.861 23.4206 109.539L25.8329 108.991C26.377 110.233 26.4965 111.716 26.1914 113.441ZM19.4259 110.49C18.2679 110.285 17.4465 110.29 16.9617 110.505C16.4704 110.711 16.1766 111.085 16.0805 111.629C15.9454 112.393 16.1238 113.038 16.6157 113.564C17.1091 114.081 17.8006 114.443 18.6903 114.65L19.4259 110.49Z" fill="black"/>
<path d="M33.1501 90.4076C32.8104 91.228 32.4037 91.8129 31.93 92.1622C31.4563 92.5116 30.8987 92.666 30.2574 92.6256C29.6118 92.5747 28.827 92.3579 27.9031 91.9753L22.7809 89.8541L22.184 91.2955L19.8558 90.3313L20.4986 88.7791L18.2346 87.6597L18.1933 84.8112L21.5637 86.2069L22.6932 83.4796L25.0214 84.4437L23.892 87.1711L28.9476 89.2647C29.5685 89.5218 30.0435 89.6189 30.3726 89.5561C30.7017 89.4932 30.9366 89.2918 31.0774 88.9518C31.2029 88.6487 31.2615 88.2877 31.2532 87.8686C31.2406 87.4391 31.1835 87.0648 31.0818 86.7456L33.5418 87.1409C33.6362 87.561 33.6341 88.1099 33.5352 88.7877C33.4468 89.4611 33.3185 90.0011 33.1501 90.4076Z" fill="black"/>
<path d="M39.4112 77.7533C38.8185 78.7598 38.0994 79.4922 37.2539 79.9505C36.4084 80.4089 35.4762 80.5887 34.4573 80.4901C33.4316 80.3874 32.3569 80.0052 31.2332 79.3436C30.1095 78.6819 29.2561 77.924 28.6728 77.0699C28.0936 76.2089 27.8068 75.2927 27.8125 74.3212C27.8154 73.3388 28.1132 72.3444 28.7059 71.3379C29.2945 70.3384 30.0144 69.6204 30.8656 69.1839C31.7139 68.7365 32.6469 68.571 33.6646 68.6875C34.6822 68.804 35.739 69.185 36.8351 69.8304C37.9243 70.4718 38.766 71.2181 39.3603 72.0694C39.9476 72.9166 40.2508 73.8285 40.2698 74.8053C40.286 75.771 39.9998 76.7537 39.4112 77.7533ZM37.3674 76.4941C37.745 75.853 37.752 75.2026 37.3884 74.5429C37.029 73.8763 36.3046 73.2223 35.2154 72.5809C34.1194 71.9355 33.1927 71.6173 32.4354 71.6263C31.6753 71.6243 31.1064 71.9438 30.7289 72.5849C30.3311 73.2605 30.2961 73.9269 30.6239 74.5842C30.9518 75.2414 31.6948 75.911 32.8529 76.593C34.011 77.275 34.9535 77.5979 35.6804 77.5617C36.4073 77.5256 36.9696 77.1697 37.3674 76.4941Z" fill="black"/>
<path d="M36.7199 59.7621L38.5338 57.5562L38.8304 57.8L39.9756 59.0525C39.6906 58.6938 39.5157 58.2703 39.451 57.7822C39.3915 57.2878 39.4389 56.783 39.5932 56.2678C39.7476 55.7526 39.995 55.288 40.3354 54.874C41.311 53.6875 42.4547 53.1469 43.7665 53.252C45.0721 53.352 46.4696 54.0143 47.9587 55.2388C49.0154 56.1077 49.7936 57.0066 50.2934 57.9354C50.787 58.8592 50.9999 59.7592 50.9318 60.6354C50.8638 61.5117 50.525 62.3206 49.9152 63.0621C49.3868 63.7047 48.7496 64.0766 48.0035 64.1778C47.2512 64.2739 46.5094 64.1558 45.7779 63.8236L47.7033 65.034L51.8372 68.4333L49.9928 70.6763L36.7199 59.7621ZM47.638 62.0906C47.8971 61.7754 48.0334 61.3955 48.0469 60.9509C48.0654 60.5001 47.9172 60.0001 47.6022 59.4511C47.2811 58.897 46.7652 58.3278 46.0546 57.7435C45.3934 57.1998 44.7774 56.8279 44.2066 56.6278C43.6357 56.4277 43.1366 56.3798 42.7091 56.484C42.2805 56.5769 41.9316 56.7872 41.6623 57.1147C41.3574 57.4854 41.2286 57.9129 41.2758 58.3971C41.323 58.8813 41.5255 59.3844 41.8834 59.9065C42.235 60.4235 42.7044 60.9234 43.2914 61.4061C43.8722 61.8837 44.441 62.2375 44.9977 62.4674C45.5533 62.686 46.0614 62.7672 46.5219 62.7109C46.9763 62.6496 47.3483 62.4428 47.638 62.0906Z" fill="black"/>
<path d="M64.6545 33.156L67.0706 31.6331L67.2754 31.958L67.9682 33.5072C67.8105 33.077 67.7778 32.6201 67.8701 32.1364C67.9691 31.6484 68.173 31.1842 68.4817 30.7437C68.7904 30.3033 69.1715 29.9402 69.6249 29.6543C70.9243 28.8353 72.1801 28.6821 73.3921 29.1948C74.5999 29.7007 75.7178 30.7692 76.7459 32.4002C77.4753 33.5575 77.9311 34.6556 78.1131 35.6946C78.2909 36.7268 78.2096 37.648 77.8692 38.4583C77.5289 39.2686 76.9526 39.9297 76.1405 40.4416C75.4367 40.8852 74.7147 41.0377 73.9748 40.8989C73.2305 40.7533 72.5635 40.4077 71.9738 39.8622L73.4203 41.6171L76.2742 46.1448L73.8175 47.6932L64.6545 33.156ZM74.2848 38.8027C74.6299 38.5851 74.8789 38.2675 75.0316 37.8497C75.1911 37.4276 75.2078 36.9064 75.0816 36.2862C74.9512 35.6591 74.6407 34.9565 74.1501 34.1782C73.6937 33.454 73.2261 32.9071 72.7472 32.5375C72.2684 32.1679 71.8097 31.9653 71.3711 31.9297C70.9351 31.883 70.5377 31.9727 70.179 32.1988C69.773 32.4547 69.5161 32.8199 69.4085 33.2944C69.301 33.7688 69.3348 34.3102 69.5101 34.9184C69.6812 35.5198 69.9693 36.142 70.3746 36.7849C70.7756 37.4211 71.2041 37.9359 71.6601 38.3293C72.1186 38.7117 72.5753 38.9487 73.0302 39.0402C73.4808 39.125 73.899 39.0458 74.2848 38.8027Z" fill="black"/>
<path d="M88.046 34.0959C87.3944 34.3828 86.7807 34.478 86.2052 34.3817C85.6296 34.2854 85.1188 34.0383 84.6726 33.6403C84.2338 33.239 83.8791 32.7309 83.6084 32.1158C83.3731 31.5813 83.3152 30.9731 83.4346 30.2912C83.5581 29.5988 83.9917 28.8661 84.7353 28.093C85.4789 27.32 86.6231 26.5934 88.1681 25.9134L87.9457 25.4082C87.6815 24.8078 87.3304 24.4073 86.8925 24.2067C86.4619 24.0029 85.8842 24.0605 85.1593 24.3796C84.5881 24.6309 84.0715 24.9763 83.6093 25.4157C83.1513 25.8446 82.857 26.2582 82.7264 26.6566L80.9196 24.9345C81.2692 24.3786 81.7623 23.8207 82.3987 23.2609C83.0351 22.7011 83.7707 22.2375 84.6054 21.8701C85.6525 21.4092 86.5508 21.2061 87.3003 21.2608C88.0572 21.3123 88.689 21.5761 89.1957 22.0523C89.7025 22.5285 90.1461 23.1986 90.5263 24.0626L93.6879 31.2456L91.3374 32.2802L90.4533 30.8075C90.3424 31.6081 90.0873 32.2797 89.6882 32.8225C89.2963 33.3621 88.749 33.7865 88.046 34.0959ZM88.2821 31.4747C88.6189 31.3265 88.9144 31.0347 89.1686 30.5994C89.4228 30.1642 89.5695 29.6932 89.6087 29.1864L88.9222 27.6268C88.8133 27.6573 88.6343 27.7273 88.3854 27.8369C87.6458 28.1624 87.038 28.5785 86.5618 29.0853C86.0897 29.5815 85.9745 30.1042 86.2162 30.6534C86.445 31.1733 86.7228 31.4967 87.0497 31.6238C87.3807 31.7404 87.7915 31.6907 88.2821 31.4747Z" fill="black"/>
<path d="M101.938 30.6518C102.778 30.9032 103.641 30.9076 104.529 30.665C105.524 30.3929 106.195 29.9318 106.539 29.2819C106.892 28.6299 106.916 27.7483 106.613 26.637L106.119 24.8313C106.12 25.594 105.947 26.2799 105.599 26.8892C105.251 27.4984 104.649 27.9201 103.793 28.1542C102.882 28.4031 102.02 28.4191 101.206 28.202C100.4 27.9829 99.6716 27.4894 99.0222 26.7214C98.3804 25.9514 97.876 24.895 97.509 23.5523C97.1356 22.1864 97.0262 20.9972 97.1806 19.9846C97.333 18.9643 97.6974 18.1432 98.2738 17.5212C98.8501 16.8992 99.5782 16.468 100.458 16.2275C101.06 16.0629 101.606 16.0296 102.098 16.1276C102.597 16.2234 103.017 16.4112 103.359 16.691C103.706 16.9609 103.972 17.2821 104.157 17.6546L103.937 15.575L106.206 14.9548L109.205 25.9282C109.53 27.1166 109.609 28.194 109.442 29.1602C109.277 30.1342 108.863 30.9564 108.2 31.6269C107.54 32.3051 106.639 32.8003 105.496 33.1125C104.655 33.3424 103.863 33.4471 103.119 33.4264C102.385 33.4114 101.758 33.3301 101.236 33.1823L101.938 30.6518ZM103.751 25.7273C104.43 25.5416 104.873 25.0807 105.078 24.3446C105.281 23.6007 105.223 22.6462 104.905 21.4809C104.592 20.3388 104.173 19.4873 103.646 18.9263C103.128 18.3631 102.525 18.1754 101.838 18.3632C101.413 18.4792 101.058 18.7092 100.77 19.0532C100.483 19.3972 100.303 19.8775 100.231 20.4943C100.165 21.1013 100.251 21.8408 100.489 22.7128C100.818 23.9166 101.271 24.7674 101.846 25.2653C102.43 25.761 103.065 25.915 103.751 25.7273Z" fill="black"/>
<path d="M121.205 24.9598C119.926 25.1076 118.838 24.9594 117.941 24.5153C117.043 24.0633 116.347 23.4028 115.852 22.5338C115.365 21.6639 115.055 20.6528 114.922 19.5005C114.786 18.3243 114.877 17.2306 115.195 16.2195C115.52 15.1994 116.068 14.3591 116.837 13.6985C117.605 13.03 118.566 12.6292 119.718 12.4962C121.435 12.298 122.72 12.6529 123.574 13.561C124.426 14.4611 124.966 15.8927 125.193 17.8556C125.237 18.2371 125.271 18.6681 125.294 19.1486L118.141 19.9743C118.3 20.9305 118.652 21.6428 119.197 22.1113C119.75 22.571 120.499 22.7463 121.444 22.6371C121.937 22.5802 122.453 22.4119 122.993 22.1322C123.531 21.8445 123.918 21.5301 124.152 21.189L125.367 23.3438C124.333 24.2202 122.946 24.7589 121.205 24.9598ZM122.099 17.633C121.964 16.4648 121.724 15.6791 121.38 15.2759C121.042 14.8639 120.599 14.6895 120.051 14.7529C119.28 14.8419 118.713 15.1972 118.35 15.819C117.995 16.4398 117.846 17.206 117.903 18.1175L122.099 17.633Z" fill="black"/>
<path d="M145.267 25.0418C144.384 24.9508 143.707 24.7283 143.237 24.3742C142.766 24.0202 142.459 23.5301 142.314 22.904C142.179 22.2708 142.162 21.4568 142.264 20.4621L142.832 14.9472L141.28 14.7874L141.539 12.2807L143.21 12.4528L143.635 9.96325L146.353 9.10919L145.979 12.738L148.916 13.0404L148.657 15.5472L145.721 15.2447L145.16 20.6879C145.092 21.3564 145.134 21.8393 145.289 22.1367C145.443 22.4341 145.703 22.6016 146.069 22.6393C146.395 22.6729 146.758 22.6258 147.157 22.4981C147.565 22.3632 147.908 22.2014 148.185 22.0127L148.509 24.483C148.134 24.6936 147.607 24.8485 146.929 24.9476C146.259 25.0554 145.705 25.0868 145.267 25.0418Z" fill="black"/>
<path d="M159.183 27.4226C158.049 27.1424 157.142 26.6628 156.461 25.9836C155.78 25.3045 155.341 24.4626 155.144 23.4581C154.949 22.4458 155.008 21.3067 155.321 20.0408C155.634 18.7748 156.116 17.7403 156.768 16.9371C157.427 16.1359 158.223 15.5992 159.156 15.3269C160.098 15.0487 161.136 15.0497 162.27 15.3299C163.396 15.6081 164.29 16.0926 164.951 16.7835C165.623 17.4685 166.048 18.3152 166.227 19.3237C166.407 20.3321 166.344 21.4538 166.039 22.6886C165.736 23.9158 165.261 24.9357 164.615 25.7486C163.971 26.5536 163.184 27.1049 162.254 27.4024C161.333 27.6941 160.309 27.7008 159.183 27.4226ZM159.805 25.1041C160.528 25.2826 161.153 25.1033 161.681 24.5663C162.217 24.0313 162.637 23.1502 162.94 21.9231C163.245 20.6882 163.285 19.7092 163.06 18.9861C162.844 18.2572 162.376 17.8035 161.653 17.625C160.892 17.437 160.244 17.594 159.707 18.0961C159.171 18.5982 158.742 19.5016 158.42 20.8064C158.097 22.1111 158.058 23.1066 158.3 23.7928C158.543 24.479 159.044 24.9161 159.805 25.1041Z" fill="black"/>
<path d="M175.653 19.6997L178.286 20.8071L178.137 21.1611L177.264 22.6166C177.526 22.2409 177.882 21.9522 178.331 21.7507C178.788 21.5522 179.285 21.4533 179.823 21.4539C180.361 21.4545 180.877 21.5588 181.371 21.7666C182.787 22.3622 183.632 23.3035 183.906 24.5906C184.184 25.8704 183.949 27.3988 183.201 29.176C182.671 30.4369 182.032 31.4397 181.285 32.1842C180.541 32.9214 179.739 33.3826 178.88 33.568C178.021 33.7534 177.149 33.66 176.264 33.2877C175.497 32.9651 174.959 32.4608 174.648 31.7748C174.341 31.0814 174.242 30.3368 174.351 29.5409L173.742 31.732L171.667 36.6653L168.99 35.5392L175.653 19.6997ZM176.544 30.8277C176.92 30.9859 177.323 31.0079 177.753 30.8937C178.19 30.7826 178.627 30.4976 179.063 30.0388C179.502 29.5726 179.9 28.9155 180.257 28.0674C180.589 27.2784 180.769 26.5818 180.797 25.9776C180.826 25.3734 180.729 24.8813 180.507 24.5015C180.295 24.1174 179.994 23.8431 179.603 23.6787C179.161 23.4926 178.714 23.4914 178.264 23.6751C177.813 23.8588 177.389 24.1967 176.991 24.6889C176.596 25.1737 176.252 25.7664 175.957 26.4669C175.665 27.1601 175.489 27.8063 175.428 28.4054C175.377 29.0004 175.445 29.5104 175.63 29.9357C175.819 30.3536 176.124 30.6509 176.544 30.8277Z" fill="black"/>
<path d="M209.136 38.8604L211.286 40.7402L211.034 41.0293L209.747 42.1361C210.114 41.862 210.543 41.7 211.033 41.6501C211.529 41.6055 212.032 41.6681 212.542 41.838C213.053 42.0079 213.509 42.2692 213.913 42.622C215.069 43.633 215.575 44.7925 215.431 46.1005C215.291 47.4025 214.587 48.7793 213.318 50.2308C212.418 51.2607 211.496 52.0114 210.552 52.4829C209.614 52.9484 208.708 53.1339 207.834 53.0395C206.96 52.945 206.162 52.5819 205.439 51.95C204.813 51.4024 204.46 50.7542 204.382 50.0054C204.308 49.2506 204.449 48.5127 204.803 47.7915L203.535 49.6796L200.012 53.7088L197.826 51.7975L209.136 38.8604ZM206.479 49.7031C206.786 49.9717 207.162 50.1194 207.606 50.1463C208.056 50.1785 208.56 50.0454 209.118 49.7472C209.682 49.4429 210.266 48.9444 210.872 48.2518C211.435 47.6074 211.826 47.0029 212.043 46.4383C212.26 45.8738 212.323 45.3763 212.232 44.9459C212.152 44.5147 211.952 44.1596 211.633 43.8805C211.272 43.5646 210.848 43.4229 210.363 43.4555C209.878 43.488 209.369 43.6753 208.836 44.0172C208.309 44.353 207.795 44.8071 207.295 45.3792C206.8 45.9454 206.429 46.5032 206.182 47.0527C205.947 47.6014 205.85 48.1068 205.893 48.5689C205.94 49.0249 206.136 49.403 206.479 49.7031Z" fill="black"/>
<path d="M214.924 61.5443C214.463 61.0018 214.196 60.4411 214.124 59.862C214.051 59.2829 214.142 58.7227 214.396 58.1814C214.655 57.6462 215.041 57.161 215.552 56.7257C215.997 56.3474 216.564 56.118 217.251 56.0375C217.95 55.9578 218.776 56.1638 219.73 56.6553C220.683 57.1468 221.706 58.0355 222.8 59.3216L223.22 58.964C223.72 58.5391 224.003 58.0881 224.07 57.6112C224.143 57.1403 223.922 56.6031 223.409 55.9997C223.005 55.5243 222.526 55.128 221.973 54.8108C221.431 54.4945 220.951 54.3308 220.532 54.3195L221.665 52.0958C222.298 52.2718 222.973 52.5848 223.692 53.0345C224.41 53.4843 225.065 54.0566 225.656 54.7514C226.397 55.623 226.848 56.4257 227.01 57.1596C227.177 57.8996 227.105 58.5805 226.793 59.2022C226.482 59.824 225.967 60.4406 225.248 61.0521L219.268 66.1355L217.605 64.179L218.763 62.9107C217.965 63.0334 217.248 62.981 216.614 62.7537C215.985 62.5325 215.421 62.1294 214.924 61.5443ZM217.503 61.021C217.742 61.3013 218.106 61.5011 218.595 61.6202C219.085 61.7393 219.579 61.7452 220.075 61.6379L221.374 60.5341C221.313 60.4384 221.195 60.287 221.019 60.0797C220.495 59.4641 219.923 59.0006 219.301 58.6892C218.69 58.3787 218.157 58.4178 217.7 58.8064C217.267 59.1744 217.036 59.5331 217.008 59.8827C216.991 60.2332 217.156 60.6126 217.503 61.021Z" fill="black"/>
<path d="M222.197 73.8709C222.196 74.7477 222.439 75.5767 222.925 76.3577C223.47 77.2338 224.104 77.7441 224.825 77.8887C225.551 78.0401 226.403 77.8114 227.381 77.2026L228.97 76.2132C228.239 76.4324 227.532 76.4625 226.849 76.3036C226.166 76.1447 225.59 75.6883 225.12 74.9344C224.621 74.133 224.36 73.3112 224.335 72.4691C224.314 71.6338 224.579 70.7952 225.129 69.9533C225.684 69.1181 226.552 68.3327 227.733 67.5971C228.935 66.8487 230.044 66.4038 231.058 66.2623C232.079 66.1166 232.971 66.2309 233.731 66.6054C234.492 66.9799 235.114 67.5542 235.596 68.3285C235.925 68.8582 236.114 69.3724 236.16 69.8711C236.211 70.3766 236.151 70.8332 235.981 71.2408C235.822 71.6509 235.59 71.9977 235.286 72.2813L237.216 71.4757L238.459 73.4724L228.801 79.4845C227.755 80.1356 226.745 80.5193 225.772 80.6354C224.791 80.7558 223.885 80.5943 223.053 80.151C222.214 79.7119 221.482 78.9898 220.856 77.9847C220.395 77.2444 220.069 76.515 219.876 75.7964C219.68 75.0888 219.579 74.4641 219.571 73.9222L222.197 73.8709ZM227.434 74.2008C227.806 74.7984 228.374 75.0903 229.138 75.0764C229.909 75.0582 230.807 74.73 231.833 74.0916C232.838 73.4658 233.534 72.8205 233.921 72.1555C234.312 71.4973 234.32 70.866 233.944 70.2615C233.711 69.888 233.389 69.6126 232.977 69.4355C232.565 69.2584 232.054 69.2236 231.442 69.331C230.841 69.4411 230.157 69.7349 229.39 70.2127C228.33 70.8723 227.645 71.549 227.332 72.243C227.024 72.9437 227.058 73.5963 227.434 74.2008Z" fill="black"/>
<path d="M233.16 90.7064C232.653 89.5225 232.484 88.4374 232.653 87.451C232.829 86.4615 233.263 85.6054 233.954 84.8826C234.649 84.1672 235.529 83.5811 236.595 83.1241C237.683 82.6576 238.757 82.4323 239.817 82.448C240.888 82.4679 241.849 82.752 242.702 83.3003C243.563 83.8455 244.221 84.6511 244.678 85.7173C245.359 87.3056 245.387 88.6386 244.76 89.7164C244.142 90.791 242.924 91.7176 241.108 92.496C240.755 92.6473 240.352 92.8028 239.898 92.9625L237.062 86.3447C236.191 86.7702 235.609 87.3112 235.316 87.9677C235.033 88.6285 235.08 89.3964 235.455 90.2714C235.65 90.7273 235.959 91.1737 236.381 91.6107C236.811 92.0445 237.223 92.3249 237.616 92.452L235.899 94.2326C234.763 93.4921 233.851 92.3167 233.16 90.7064ZM240.437 89.4676C241.518 89.0043 242.202 88.55 242.49 88.1046C242.788 87.6634 242.829 87.1891 242.611 86.6817C242.305 85.9685 241.803 85.5268 241.103 85.3566C240.407 85.1938 239.63 85.27 238.773 85.5852L240.437 89.4676Z" fill="black"/>
<path d="M239.962 113.787C239.797 112.914 239.816 112.202 240.021 111.65C240.226 111.098 240.608 110.664 241.166 110.346C241.734 110.035 242.51 109.786 243.492 109.6L248.939 108.567L248.648 107.035L251.124 106.565L251.437 108.216L253.944 107.912L255.54 110.272L251.956 110.951L252.506 113.851L250.03 114.321L249.48 111.42L244.104 112.44C243.443 112.565 242.993 112.744 242.752 112.977C242.511 113.21 242.425 113.507 242.494 113.869C242.555 114.191 242.704 114.525 242.94 114.871C243.186 115.223 243.439 115.505 243.699 115.716L241.425 116.734C241.115 116.434 240.816 115.974 240.528 115.353C240.233 114.741 240.044 114.219 239.962 113.787Z" fill="black"/>
<path d="M241.659 127.803C241.604 126.636 241.804 125.629 242.26 124.783C242.716 123.936 243.397 123.274 244.303 122.799C245.218 122.322 246.326 122.053 247.629 121.991C248.931 121.929 250.06 122.095 251.016 122.49C251.973 122.892 252.715 123.502 253.242 124.317C253.778 125.141 254.074 126.136 254.13 127.302C254.185 128.461 253.976 129.456 253.504 130.288C253.039 131.127 252.349 131.777 251.434 132.237C250.519 132.697 249.426 132.958 248.156 133.018C246.893 133.079 245.78 132.916 244.817 132.529C243.861 132.142 243.108 131.546 242.557 130.739C242.014 129.94 241.715 128.961 241.659 127.803ZM244.059 127.736C244.094 128.479 244.445 129.027 245.111 129.38C245.777 129.74 246.741 129.89 248.003 129.83C249.274 129.769 250.223 129.528 250.852 129.105C251.489 128.69 251.79 128.111 251.754 127.368C251.717 126.585 251.381 126.008 250.746 125.638C250.112 125.268 249.123 125.115 247.781 125.179C246.439 125.243 245.473 125.49 244.885 125.918C244.297 126.347 244.021 126.953 244.059 127.736Z" fill="black"/>
<path d="M253.769 141.377L253.461 144.217L253.079 144.175L251.435 143.755C251.87 143.899 252.248 144.157 252.57 144.53C252.891 144.911 253.128 145.359 253.281 145.875C253.434 146.391 253.482 146.915 253.424 147.448C253.258 148.975 252.597 150.054 251.443 150.685C250.296 151.316 248.764 151.528 246.847 151.32C245.487 151.172 244.344 150.847 243.416 150.344C242.497 149.841 241.826 149.205 241.403 148.435C240.98 147.665 240.82 146.803 240.923 145.848C241.013 145.021 241.343 144.361 241.911 143.867C242.488 143.375 243.173 143.067 243.967 142.944L241.693 142.987L236.372 142.408L236.686 139.521L253.769 141.377ZM243.361 145.413C243.317 145.818 243.411 146.211 243.643 146.59C243.875 146.978 244.273 147.314 244.837 147.601C245.409 147.889 246.153 148.082 247.067 148.181C247.918 148.274 248.637 148.247 249.225 148.102C249.812 147.956 250.256 147.723 250.556 147.402C250.864 147.089 251.04 146.722 251.086 146.3C251.138 145.823 251.011 145.395 250.707 145.016C250.402 144.637 249.957 144.327 249.371 144.086C248.794 143.846 248.127 143.686 247.372 143.603C246.624 143.522 245.954 143.538 245.363 143.651C244.778 143.772 244.309 143.983 243.954 144.282C243.608 144.583 243.41 144.96 243.361 145.413Z" fill="black"/>
<path d="M244.983 178.941L243.796 181.539L243.447 181.38L242.019 180.463C242.386 180.737 242.664 181.101 242.852 181.556C243.036 182.019 243.12 182.519 243.103 183.056C243.087 183.594 242.967 184.106 242.744 184.594C242.106 185.991 241.14 186.807 239.845 187.043C238.557 187.282 237.037 187 235.283 186.199C234.038 185.631 233.055 184.962 232.334 184.193C231.619 183.427 231.183 182.612 231.023 181.748C230.864 180.883 230.984 180.014 231.383 179.141C231.728 178.384 232.249 177.861 232.944 177.572C233.646 177.286 234.393 177.209 235.185 177.343L233.014 176.667L228.145 174.444L229.352 171.802L244.983 178.941ZM233.833 179.495C233.663 179.866 233.629 180.269 233.73 180.702C233.828 181.142 234.1 181.587 234.545 182.037C234.998 182.49 235.643 182.908 236.48 183.29C237.258 183.645 237.949 183.847 238.552 183.893C239.155 183.94 239.65 183.858 240.037 183.648C240.427 183.448 240.71 183.155 240.886 182.769C241.086 182.333 241.1 181.886 240.93 181.431C240.76 180.975 240.435 180.541 239.955 180.128C239.483 179.719 238.901 179.356 238.209 179.04C237.525 178.728 236.885 178.532 236.288 178.453C235.695 178.384 235.183 178.436 234.752 178.609C234.329 178.785 234.022 179.08 233.833 179.495Z" fill="black"/>
<path d="M224.901 190.973C225.289 190.376 225.75 189.96 226.284 189.725C226.819 189.49 227.381 189.417 227.973 189.505C228.56 189.601 229.135 189.831 229.698 190.197C230.188 190.516 230.57 190.993 230.843 191.628C231.12 192.275 231.159 193.126 230.96 194.18C230.762 195.234 230.203 196.469 229.283 197.884L229.746 198.185C230.296 198.542 230.809 198.685 231.285 198.613C231.757 198.547 232.209 198.183 232.64 197.518C232.98 196.995 233.223 196.423 233.369 195.802C233.517 195.193 233.537 194.685 233.428 194.281L235.883 194.731C235.895 195.388 235.788 196.124 235.563 196.941C235.337 197.758 234.976 198.549 234.479 199.314C233.856 200.273 233.216 200.936 232.559 201.301C231.897 201.672 231.224 201.798 230.539 201.677C229.854 201.557 229.116 201.239 228.325 200.725L221.744 196.449L223.143 194.295L224.69 195.043C224.344 194.312 224.189 193.611 224.225 192.938C224.257 192.272 224.483 191.617 224.901 190.973ZM226.14 193.295C225.94 193.603 225.852 194.009 225.878 194.513C225.904 195.016 226.04 195.491 226.284 195.936L227.713 196.864C227.788 196.779 227.899 196.622 228.047 196.394C228.487 195.717 228.768 195.036 228.889 194.351C229.012 193.677 228.821 193.177 228.318 192.85C227.842 192.54 227.432 192.422 227.089 192.495C226.749 192.579 226.432 192.845 226.14 193.295Z" fill="black"/>
<path d="M215.169 201.466C214.328 201.716 213.603 202.186 212.994 202.875C212.31 203.648 212.002 204.401 212.07 205.134C212.133 205.873 212.595 206.623 213.458 207.386L214.861 208.626C214.442 207.989 214.211 207.32 214.168 206.62C214.125 205.92 214.397 205.237 214.986 204.572C215.611 203.865 216.323 203.379 217.123 203.114C217.918 202.856 218.797 202.87 219.761 203.156C220.72 203.449 221.721 204.056 222.764 204.978C223.825 205.916 224.568 206.851 224.993 207.782C225.425 208.719 225.57 209.606 225.429 210.442C225.288 211.278 224.915 212.038 224.311 212.721C223.898 213.189 223.459 213.516 222.994 213.703C222.524 213.896 222.07 213.97 221.63 213.923C221.192 213.888 220.793 213.765 220.435 213.555L221.758 215.173L220.2 216.935L211.678 209.4C210.755 208.584 210.099 207.726 209.709 206.826C209.313 205.921 209.209 205.007 209.396 204.083C209.577 203.153 210.059 202.245 210.843 201.358C211.421 200.705 212.026 200.183 212.66 199.793C213.282 199.403 213.852 199.127 214.369 198.965L215.169 201.466ZM216.35 206.58C215.884 207.107 215.767 207.735 215.998 208.463C216.236 209.196 216.808 209.963 217.713 210.763C218.6 211.548 219.417 212.03 220.165 212.211C220.908 212.398 221.515 212.224 221.986 211.691C222.278 211.361 222.449 210.974 222.501 210.528C222.553 210.083 222.44 209.583 222.163 209.028C221.885 208.484 221.408 207.912 220.731 207.313C219.796 206.487 218.951 206.023 218.197 205.922C217.437 205.827 216.822 206.046 216.35 206.58Z" fill="black"/>
<path d="M202.171 216.787C203.16 215.962 204.152 215.49 205.145 215.37C206.144 215.256 207.088 215.427 207.979 215.882C208.863 216.343 209.676 217.019 210.419 217.91C211.177 218.819 211.7 219.784 211.988 220.804C212.275 221.836 212.278 222.839 211.996 223.813C211.72 224.793 211.136 225.655 210.245 226.397C208.918 227.504 207.648 227.911 206.437 227.619C205.23 227.334 203.994 226.432 202.729 224.914C202.483 224.619 202.218 224.277 201.936 223.888L207.466 219.278C206.809 218.565 206.124 218.162 205.412 218.069C204.698 217.987 203.975 218.251 203.244 218.861C202.863 219.178 202.523 219.602 202.225 220.132C201.932 220.667 201.781 221.142 201.772 221.556L199.575 220.419C199.96 219.119 200.825 217.909 202.171 216.787ZM205.439 223.405C206.192 224.308 206.823 224.834 207.332 224.983C207.84 225.142 208.306 225.046 208.73 224.692C209.326 224.195 209.605 223.587 209.568 222.868C209.525 222.154 209.23 221.432 208.683 220.7L205.439 223.405Z" fill="black"/>
<path d="M181.999 229.903C182.788 229.495 183.476 229.311 184.063 229.349C184.65 229.388 185.176 229.629 185.64 230.074C186.101 230.529 186.561 231.201 187.02 232.089L189.567 237.013L190.953 236.296L192.111 238.535L190.618 239.306L191.627 241.622L189.821 243.826L188.146 240.586L185.524 241.942L184.366 239.703L186.988 238.347L184.474 233.487C184.165 232.89 183.865 232.509 183.573 232.345C183.281 232.181 182.971 232.184 182.644 232.353C182.353 232.503 182.075 232.741 181.811 233.067C181.544 233.404 181.346 233.726 181.218 234.036L179.593 232.148C179.792 231.766 180.147 231.347 180.66 230.893C181.162 230.435 181.608 230.105 181.999 229.903Z" fill="black"/>
<path d="M169.053 235.538C170.155 235.151 171.177 235.055 172.119 235.25C173.061 235.444 173.889 235.908 174.604 236.641C175.322 237.381 175.897 238.366 176.329 239.596C176.761 240.826 176.925 241.956 176.82 242.985C176.707 244.016 176.336 244.902 175.705 245.64C175.069 246.389 174.2 246.957 173.098 247.344C172.004 247.729 170.99 247.813 170.058 247.598C169.122 247.393 168.302 246.918 167.599 246.172C166.896 245.427 166.334 244.455 165.913 243.254C165.494 242.062 165.332 240.949 165.427 239.915C165.524 238.889 165.88 237.996 166.496 237.237C167.106 236.489 167.959 235.922 169.053 235.538ZM169.803 237.818C169.101 238.065 168.676 238.557 168.529 239.296C168.374 240.037 168.506 241.004 168.924 242.197C169.346 243.397 169.849 244.238 170.434 244.719C171.013 245.211 171.654 245.333 172.356 245.087C173.096 244.827 173.552 244.34 173.726 243.626C173.899 242.913 173.763 241.922 173.317 240.654C172.872 239.386 172.36 238.531 171.781 238.09C171.202 237.649 170.543 237.558 169.803 237.818Z" fill="black"/>
<path d="M159.509 251.024L156.7 251.54L156.63 251.162L156.563 249.467C156.549 249.925 156.41 250.361 156.144 250.776C155.871 251.192 155.509 251.547 155.059 251.842C154.609 252.136 154.12 252.331 153.593 252.428C152.082 252.706 150.86 252.382 149.925 251.455C148.991 250.537 148.35 249.13 148.002 247.233C147.755 245.888 147.739 244.699 147.956 243.667C148.175 242.642 148.593 241.817 149.21 241.191C149.827 240.566 150.607 240.166 151.551 239.992C152.37 239.842 153.097 239.969 153.732 240.372C154.369 240.784 154.86 241.353 155.205 242.078L154.514 239.912L153.546 234.648L156.402 234.123L159.509 251.024ZM152.665 242.203C152.264 242.277 151.915 242.48 151.618 242.811C151.313 243.143 151.104 243.621 150.991 244.244C150.879 244.874 150.906 245.642 151.072 246.547C151.227 247.389 151.458 248.07 151.765 248.591C152.073 249.112 152.423 249.471 152.817 249.667C153.205 249.872 153.607 249.937 154.024 249.86C154.496 249.773 154.87 249.53 155.146 249.129C155.422 248.729 155.592 248.213 155.655 247.584C155.72 246.962 155.684 246.277 155.546 245.529C155.41 244.79 155.204 244.153 154.926 243.618C154.643 243.093 154.307 242.703 153.919 242.449C153.532 242.203 153.114 242.121 152.665 242.203Z" fill="black"/>
</svg>
